<svg width="26" height="25" viewBox="0 0 26 25" fill="none" xmlns="http://www.w3.org/2000/svg">
<path d="M21.75 3.75H20.5V1.25C20.5 0.918479 20.3683 0.600537 20.1339 0.366116C19.8995 0.131696 19.5815 0 19.25 0C18.9185 0 18.6005 0.131696 18.3661 0.366116C18.1317 0.600537 18 0.918479 18 1.25V3.75H8V1.25C8 0.918479 7.8683 0.600537 7.63388 0.366116C7.39946 0.131696 7.08152 0 6.75 0C6.41848 0 6.10054 0.131696 5.86612 0.366116C5.6317 0.600537 5.5 0.918479 5.5 1.25V3.75H4.25C3.25544 3.75 2.30161 4.14509 1.59835 4.84835C0.895088 5.55161 0.5 6.50544 0.5 7.5V8.75H25.5V7.5C25.5 6.50544 25.1049 5.55161 24.4017 4.84835C23.6984 4.14509 22.7446 3.75 21.75 3.75Z" fill="#CECFD3"/>
<path d="M0.5 21.25C0.5 22.2446 0.895088 23.1984 1.59835 23.9017C2.30161 24.6049 3.25544 25 4.25 25H21.75C22.7446 25 23.6984 24.6049 24.4017 23.9017C25.1049 23.1984 25.5 22.2446 25.5 21.25V11.25H0.5V21.25Z" fill="#CECFD3"/>
</svg>
