<svg width="31" height="31" viewBox="0 0 31 31" fill="none" xmlns="http://www.w3.org/2000/svg">
<g clip-path="url(#clip0_15_4750)">
<path d="M26.125 11.75H24.25V9.24998C24.25 4.42519 20.3248 0.5 15.5 0.5C10.6752 0.5 6.75002 4.42519 6.75002 9.24998V11.75H4.87502C4.52955 11.75 4.25 12.0296 4.25 12.375V28C4.25 29.3788 5.37119 30.5 6.75002 30.5H24.25C25.6288 30.5 26.75 29.3788 26.75 28V12.375C26.75 12.0296 26.4704 11.75 26.125 11.75ZM17.3714 24.806C17.3909 24.9824 17.3342 25.1594 17.2157 25.2919C17.0973 25.4243 16.9276 25.5 16.75 25.5H14.25C14.0724 25.5 13.9027 25.4243 13.7843 25.2919C13.6659 25.1595 13.6091 24.9825 13.6287 24.806L14.023 21.2605C13.3827 20.7948 13 20.0581 13 19.25C13 17.8712 14.1212 16.75 15.5001 16.75C16.8789 16.75 18.0001 17.8712 18.0001 19.25C18.0001 20.0581 17.6174 20.7948 16.9771 21.2605L17.3714 24.806ZM20.5 11.75H10.5V9.24998C10.5 6.49303 12.743 4.25 15.5 4.25C18.257 4.25 20.5 6.49303 20.5 9.24998V11.75Z" fill="#CECFD3"/>
</g>
<defs>
<clipPath id="clip0_15_4750">
<rect width="30" height="30" fill="white" transform="translate(0.5 0.5)"/>
</clipPath>
</defs>
</svg>
