<svg width="200" height="130" viewBox="0 0 200 130" fill="none" xmlns="http://www.w3.org/2000/svg">
<g clip-path="url(#clip0_3_419)">
<path d="M199.149 57.3663C202.153 88.1508 173.127 122.977 109.69 129.165C46.2523 135.354 3.97254 106.05 0.968507 75.2612C-2.03553 44.4728 14.4142 -25.2624 95.1511 9.46225C175.888 44.1869 196.145 26.5778 199.149 57.3663Z" fill="#E1ECFA"/>
<path d="M124.173 110.954C124.173 110.954 163.817 104.479 165.4 90.6851C166.982 76.8908 133.675 90.3404 133.675 90.3404C133.675 90.3404 148.437 65.2741 141.923 57.4683C135.41 49.6626 116.857 77.1415 116.857 77.1415C116.857 77.1415 119.885 48.1586 111.111 46.9836C102.338 45.8086 94.2269 107.354 94.2269 107.354L124.173 110.954Z" fill="#6AA2E5"/>
<path d="M134.525 69.3318C136.917 65.6763 139.287 62.0208 141.637 58.3653L142.072 57.6877C142.021 57.6172 141.966 57.5506 141.912 57.484C141.857 57.4175 141.778 57.3313 141.712 57.2608C139.477 60.7414 137.23 64.218 134.971 67.6907C132.603 71.3175 130.197 74.9195 127.753 78.4966C125.309 82.0738 122.818 85.57 120.28 88.9853C117.745 92.3797 115.123 95.7153 112.416 98.9922C109.748 102.188 106.975 105.302 104.081 108.298L103.842 108.541L104.512 108.619C107.039 106.008 109.476 103.31 111.82 100.524C114.562 97.2963 117.19 93.9751 119.736 90.595C122.282 87.215 124.827 83.6626 127.279 80.1259C129.731 76.5893 132.175 72.9507 134.525 69.3318Z" fill="#96C6FF"/>
<path d="M165.36 88.6955C165.33 88.5182 165.29 88.343 165.239 88.1707L153.583 92.4985L140.439 97.3786L127.354 102.239L114.209 107.119L108.824 109.117L109.98 109.254L112.721 108.239L125.869 103.359L138.951 98.5027L152.099 93.6226L165.184 88.766L165.36 88.6955Z" fill="#96C6FF"/>
<path d="M105.115 106.007C105.828 102.464 106.473 98.9048 107.05 95.3302C107.677 91.4815 108.244 87.6236 108.754 83.7566C109.276 79.7304 109.75 75.6963 110.175 71.6543C110.604 67.5393 110.972 63.4151 111.28 59.2818C111.583 55.2685 111.823 51.2488 112 47.2225C111.828 47.1572 111.651 47.1036 111.472 47.062C111.32 50.6208 111.117 54.1771 110.861 57.7308C110.568 61.8223 110.218 65.9113 109.811 69.9976C109.404 74.0839 108.943 78.1311 108.429 82.1391C107.927 86.04 107.368 89.9318 106.752 93.8145C106.18 97.4099 105.548 100.995 104.857 104.569C104.774 105 104.688 105.431 104.602 105.858C104.535 106.203 105.048 106.344 105.115 106.007Z" fill="#96C6FF"/>
<path d="M70.0066 111.028C70.0066 111.028 33.919 101.656 32.3367 87.8808C30.7544 74.1061 63.9398 88.8404 63.9398 88.8404C63.9398 88.8404 45.7393 65.3995 52.2761 57.6133C58.813 49.8271 76.6531 78.3713 76.6531 78.3713C76.6531 78.3713 74.3031 48.3074 83.092 47.1364C91.8809 45.9653 97.1135 106.14 97.1135 106.14L70.0066 111.028Z" fill="#6AA2E5"/>
<path d="M83.0372 57.0532C83.3583 60.8014 83.7539 64.5457 84.1847 68.2861C84.6338 72.1557 85.1195 76.0214 85.6417 79.8831C86.143 83.6378 86.6653 87.39 87.2084 91.1395C87.694 94.5103 88.1849 97.8825 88.681 101.256C88.7358 101.628 88.7907 102.004 88.8416 102.376C88.8925 102.748 89.4056 102.572 89.3586 102.235C88.8808 98.9413 88.3951 95.6514 87.9212 92.3575C87.3833 88.6498 86.8611 84.9408 86.3545 81.2304C85.8323 77.3634 85.3375 73.4925 84.8702 69.6177C84.4276 65.8656 84.0202 62.1057 83.6952 58.3379C83.3897 54.95 83.1351 51.5543 82.998 48.1547L82.9628 47.1716C82.7838 47.2027 82.6071 47.2459 82.434 47.3009C82.5359 50.5634 82.7591 53.8064 83.0372 57.0532Z" fill="#96C6FF"/>
<path d="M95.6017 116.398C112.327 116.398 125.885 114.395 125.885 111.925C125.885 109.455 112.327 107.452 95.6017 107.452C78.8767 107.452 65.3185 109.455 65.3185 111.925C65.3185 114.395 78.8767 116.398 95.6017 116.398Z" fill="#4375B1"/>
<path d="M79.7747 96.3877C82.3518 99.4061 84.9968 102.366 87.7097 105.267L88.728 106.348C88.9669 106.598 89.3429 106.218 89.1197 105.956C86.3885 103.084 83.7291 100.144 81.1416 97.1358C78.554 94.1278 76.003 91.0337 73.4885 87.8534C70.9767 84.6575 68.5379 81.4093 66.1723 78.1089C63.8067 74.8085 61.4906 71.4246 59.2242 67.9571C56.9604 64.5078 54.775 61.0077 52.6678 57.4566L52.566 57.2804C52.4582 57.3857 52.3562 57.4969 52.2605 57.6133L52.19 57.6995C54.0569 60.8328 55.98 63.9373 57.9592 67.0132C60.1942 70.4754 62.505 73.8868 64.8916 77.2473C67.2415 80.5529 69.6581 83.8076 72.1412 87.0114C74.6243 90.2151 77.1688 93.3406 79.7747 96.3877Z" fill="#96C6FF"/>
<path d="M81.8465 105.341L83.1234 105.545C83.4602 105.596 83.6051 105.083 83.2643 105.028C79.8099 104.506 76.3816 103.828 72.9793 102.995C69.5771 102.162 66.1919 101.189 62.8236 100.077C59.4292 98.9518 56.0961 97.6867 52.8245 96.2819C49.5528 94.8772 46.3007 93.3301 43.0682 91.6408C39.8383 89.9436 36.675 88.1158 33.5783 86.1575L32.4738 85.4525C32.4241 85.6355 32.3849 85.8212 32.3563 86.0087C35.3851 87.9513 38.4845 89.7791 41.6543 91.4919C44.8242 93.2048 48.0802 94.791 51.4223 96.2506C54.681 97.6789 57.9918 98.9753 61.3548 100.14C64.7179 101.304 68.1123 102.319 71.538 103.183C74.9402 104.05 78.3764 104.769 81.8465 105.341Z" fill="#96C6FF"/>
<path d="M136.781 14.0371L147.896 11.742L158.205 63.077L146.498 65.4935L136.781 14.0371Z" fill="#FFC000"/>
<path d="M147.796 65.2296C159.042 62.9067 165.788 49.5454 162.864 35.3862C159.939 21.227 148.451 11.6318 137.205 13.9547C125.959 16.2776 119.212 29.6389 122.137 43.7981C125.061 57.9573 136.549 67.5525 147.796 65.2296Z" fill="#FFC000"/>
<path d="M138.297 29.4607L123.511 32.5156C123.373 33.4687 123.282 34.4361 123.237 35.4179L138.861 32.1906L138.297 29.4607Z" fill="#FF8F00"/>
<path d="M139.519 44.9822L138.955 42.2406L124.342 45.2721C124.585 46.1846 124.867 47.0776 125.18 47.9471L139.519 44.9822Z" fill="#FF8F00"/>
<path d="M134.952 36.6124L123.284 39.0251C123.347 39.9468 123.451 40.8737 123.598 41.8058L135.516 39.3462L134.952 36.6124Z" fill="#FF8F00"/>
<path d="M141.641 22.3051L125.376 25.6655C124.956 26.6664 124.598 27.6918 124.303 28.7361L142.205 25.0388L141.641 22.3051Z" fill="#FF8F00"/>
<path d="M127.553 21.6001L145.55 17.8832L144.986 15.1416L130.42 18.1496C129.343 19.1926 128.381 20.3495 127.553 21.6001Z" fill="#FF8F00"/>
<path d="M151.057 58.8901L135.9 62.0234C137.156 62.838 138.497 63.5156 139.898 64.0443L151.621 61.6239L151.057 58.8901Z" fill="#FF8F00"/>
<path d="M146.365 53.5204L130.177 56.8613C130.866 57.7027 131.607 58.5006 132.394 59.2504L146.929 56.2503L146.365 53.5204Z" fill="#FF8F00"/>
<path d="M143.623 50.5908L143.059 47.8492L126.574 51.2566C127.013 52.1418 127.491 52.9917 127.996 53.8103L143.623 50.5908Z" fill="#FF8F00"/>
<path d="M158.202 63.079C169.448 60.7562 176.195 47.3948 173.27 33.2356C170.346 19.0765 158.858 9.48124 147.612 11.8041C136.365 14.127 129.619 27.4883 132.543 41.6475C135.468 55.8067 146.956 65.4019 158.202 63.079Z" fill="#FFC000"/>
<path d="M135.234 21.4042C132.813 25.7438 131.591 31.1487 131.924 36.8905L166.531 58.706C169.998 55.4709 172.406 50.814 173.429 45.4796L135.234 21.4042Z" fill="#FFD660"/>
<path d="M136.691 19.1248L173.832 42.5383C174.063 39.8842 173.959 37.2117 173.523 34.5836L141.508 14.4014C139.641 15.6847 138.011 17.283 136.691 19.1248Z" fill="#FFD660"/>
<path d="M157.236 58.4034C166.432 56.504 171.949 45.5794 169.557 34.0025C167.166 22.4256 157.773 14.5804 148.577 16.4798C139.381 18.3791 133.865 29.3037 136.256 40.8806C138.647 52.4575 148.041 60.3027 157.236 58.4034Z" fill="#F18800"/>
<path d="M138.05 25.1368C135.857 29.539 135.093 35.1241 136.28 40.8737C136.338 41.1557 136.405 41.4338 136.471 41.7079L160.876 57.0963C165.161 54.8403 168.247 50.3832 169.492 44.9548L138.05 25.1368Z" fill="#FFA421"/>
<path d="M144.316 18.1378C142.363 19.3199 140.689 20.9113 139.409 22.8025L169.958 42.0683C170.24 39.3929 170.108 36.6901 169.567 34.0549L144.316 18.1378Z" fill="#FFA421"/>
<path d="M148.95 16.4106C157.472 15.9249 165.717 23.4605 167.934 34.1881C170.327 45.7656 164.8 56.6929 155.616 58.5885C155.491 58.6159 155.369 58.6316 155.248 58.6551C155.918 58.617 156.584 58.5306 157.241 58.3966C166.434 56.4971 171.948 45.5697 169.559 33.9922C167.197 22.5753 158.025 14.793 148.95 16.4106Z" fill="#FF8F00"/>
<path d="M161.06 39.9024C161.284 41.7771 160.581 43.5827 158.949 45.319C157.455 46.8413 156.019 47.6794 154.641 47.8335L155.052 51.6208L153.571 51.7814L153.18 47.9941C152.122 48.1118 151.053 48.096 149.999 47.9471C148.807 47.7964 147.648 47.4497 146.568 46.9209L146.051 42.1818L147.877 41.9821C147.944 43.222 148.35 44.4197 149.052 45.4444C149.717 46.2747 151.033 46.5488 153 46.2668L152.009 37.1568C150.345 37.2007 148.726 36.613 147.477 35.5118C146.837 34.9892 146.307 34.3442 145.919 33.6145C145.531 32.8849 145.293 32.0853 145.217 31.2623C144.998 29.5774 145.437 27.8727 146.443 26.5036C147.426 25.1364 148.905 24.2085 150.563 23.9187L150.422 22.6301L151.903 22.4695L152.044 23.7542C152.455 23.7134 152.868 23.6977 153.282 23.7072C153.733 23.7072 154.231 23.7307 154.774 23.7777C155.786 23.8627 156.787 24.0504 157.762 24.3378L158.236 28.6852L156.728 28.8497C156.764 28.2256 156.625 27.604 156.327 27.0546C156.028 26.5053 155.583 26.05 155.04 25.7399C154.175 25.2127 153.139 25.0414 152.15 25.2621L153.047 33.487C154.146 33.3642 155.451 33.6554 156.963 34.3604C158.092 34.8147 159.072 35.5733 159.796 36.5517C160.519 37.5301 160.957 38.69 161.06 39.9024ZM151.546 33.3695L150.673 25.3757C149.819 25.4853 149.005 26.0062 148.241 26.9423C147.887 27.3386 147.619 27.8039 147.454 28.3087C147.289 28.8136 147.23 29.3471 147.281 29.8758C147.328 30.387 147.483 30.8823 147.736 31.3291C147.988 31.776 148.333 32.1644 148.746 32.4686C149.524 33.1262 150.531 33.45 151.546 33.3695ZM158.357 41.0343C158.173 39.9346 157.582 38.9447 156.701 38.2613C156.263 37.8793 155.748 37.5948 155.192 37.4267C154.636 37.2585 154.05 37.2106 153.473 37.2861L154.437 46.1063C155.038 46.0402 155.619 45.8472 156.14 45.54C156.661 45.2328 157.111 44.8184 157.461 44.3242C157.844 43.8761 158.123 43.3487 158.278 42.7798C158.433 42.211 158.46 41.6148 158.357 41.0343Z" fill="#FF8F00"/>
<path d="M162.137 39.7849C162.361 41.6623 161.658 43.4678 160.026 45.2016C158.538 46.7238 157.101 47.562 155.718 47.716L156.133 51.5034L154.648 51.664L154.257 47.8766C153.2 47.9943 152.133 47.9785 151.08 47.8296C149.888 47.6795 148.728 47.3327 147.649 46.8034L147.132 42.0644L148.954 41.8646C149.022 43.1042 149.429 44.3015 150.129 45.3269C150.794 46.1572 152.112 46.4314 154.08 46.1494L153.086 37.0394C151.422 37.0825 149.803 36.4949 148.554 35.3944C147.915 34.8711 147.386 34.226 146.998 33.4965C146.61 32.7669 146.371 31.9676 146.294 31.1449C146.076 29.4594 146.516 27.7547 147.524 26.3862C148.504 25.0183 149.983 24.09 151.64 23.8012L151.499 22.5127L152.933 22.3638L153.07 23.6485C153.481 23.6078 153.895 23.5921 154.308 23.6015C154.758 23.6015 155.259 23.6328 155.804 23.672C156.815 23.757 157.815 23.9447 158.788 24.2321L159.262 28.5795L157.758 28.744C157.792 28.1197 157.652 27.4983 157.353 26.9492C157.054 26.4001 156.609 25.9448 156.066 25.6342C155.217 25.1221 154.205 24.9514 153.234 25.1564L154.131 33.3812C155.231 33.2585 156.536 33.5497 158.048 34.2546C159.174 34.7089 160.152 35.466 160.874 36.4422C161.595 37.4184 162.033 38.5754 162.137 39.7849ZM152.623 33.252L151.758 25.2582C150.901 25.3679 150.089 25.8901 149.322 26.8248C148.968 27.2212 148.7 27.6864 148.535 28.1912C148.37 28.6961 148.311 29.2297 148.362 29.7584C148.41 30.2692 148.566 30.7642 148.818 31.2109C149.071 31.6577 149.414 32.0462 149.827 32.3512C150.604 33.0078 151.609 33.3315 152.623 33.252ZM159.434 40.9168C159.25 39.8182 158.66 38.8286 157.782 38.1438C157.343 37.7615 156.828 37.4769 156.271 37.3087C155.714 37.1406 155.127 37.0928 154.55 37.1686L155.514 45.9888C156.116 45.9228 156.697 45.7298 157.219 45.4226C157.741 45.1155 158.192 44.701 158.541 44.2067C158.925 43.7588 159.204 43.2312 159.358 42.6622C159.513 42.0933 159.539 41.4971 159.434 40.9168Z" fill="#FFC000"/>
<path d="M154.135 33.3578V33.3303L152.541 32.3042L152.643 33.252C151.627 33.3325 150.621 33.0088 149.843 32.3512C149.43 32.0462 149.086 31.6577 148.834 31.211C148.581 30.7642 148.426 30.2692 148.378 29.7584C148.38 29.731 148.38 29.7035 148.378 29.6761L146.478 28.4777C146.236 29.3447 146.166 30.2508 146.271 31.1449C146.347 31.9676 146.586 32.767 146.974 33.4965C147.362 34.226 147.891 34.8711 148.531 35.3944C149.779 36.4949 151.398 37.0825 153.062 37.0394L154.057 46.1494C152.086 46.4314 150.768 46.1572 150.105 45.3269C149.405 44.3015 148.999 43.1042 148.93 41.8646L147.109 42.0644L147.622 46.7643L147.743 46.8387C148.789 47.339 149.907 47.6682 151.057 47.8139C152.109 47.9628 153.177 47.9786 154.233 47.8609L154.594 51.1548L155.267 51.5817L156.129 51.4877L155.714 47.7004C157.108 47.5489 158.544 46.7108 160.022 45.1859C161.651 43.4495 162.355 41.644 162.133 39.7692C162.071 39.2065 161.948 38.6522 161.765 38.1164L154.182 33.3382L154.135 33.3578ZM159.434 40.9168C159.539 41.4971 159.513 42.0933 159.358 42.6622C159.204 43.2312 158.925 43.7588 158.541 44.2068C158.192 44.701 157.741 45.1155 157.219 45.4227C156.697 45.7298 156.116 45.9228 155.514 45.9888L154.55 37.1686C155.127 37.0928 155.714 37.1406 156.271 37.3087C156.828 37.4769 157.343 37.7615 157.782 38.1438C158.66 38.8287 159.25 39.8182 159.434 40.9168Z" fill="#FFD660"/>
<path d="M156.274 23.7111C156.117 23.7111 155.96 23.672 155.808 23.6602C155.263 23.6211 154.762 23.5976 154.312 23.5897C153.898 23.5804 153.485 23.5961 153.074 23.6367L152.933 22.3638L151.449 22.5244L151.59 23.813C150.068 24.0804 148.693 24.8885 147.72 26.0885L149.181 27.0128L149.314 26.8366C150.082 25.9018 150.894 25.3796 151.75 25.27L152.142 28.8811L153.751 29.8955L153.234 25.1564C154.205 24.9514 155.217 25.1221 156.066 25.6342C156.609 25.9448 157.054 26.4001 157.353 26.9492C157.652 27.4983 157.792 28.1197 157.758 28.744L159.262 28.5795L158.917 25.3875L156.274 23.7111Z" fill="#FFD660"/>
<path d="M174.549 14.4718L175.218 5.03674L176.429 14.417L182.155 15.1886L176.483 16.2931L175.802 25.2738L174.604 16.3479L168.877 15.5724L174.549 14.4718Z" fill="#FFC000"/>
<path d="M183.878 24.6864L184.317 18.459L185.116 24.6511L188.895 25.1603L185.151 25.8888L184.704 31.8146L183.913 25.924L180.134 25.4149L183.878 24.6864Z" fill="#FFC000"/>
<path d="M15.0684 26.6956C15.0684 26.6956 -0.554958 18.5099 1.36026 16.4889C3.27548 14.468 11.1988 18.5217 11.1988 18.5217C11.1988 18.5217 9.19348 9.62312 12.3581 9.58004C15.5227 9.53695 15.0684 26.6956 15.0684 26.6956Z" fill="#FFC000"/>
<path d="M21.7619 16.4889C21.7619 16.4889 18.1625 11.4482 19.1847 11.0056C20.207 10.5631 21.378 12.3138 21.378 12.3138C21.378 12.3138 21.3389 9.86982 22.4982 10.3555C23.6575 10.8411 21.7619 16.4889 21.7619 16.4889Z" fill="#FFC000"/>
<path d="M45.5944 64.3929C60.524 64.3929 72.6269 52.2901 72.6269 37.3605C72.6269 22.4309 60.524 10.3281 45.5944 10.3281C30.6648 10.3281 18.562 22.4309 18.562 37.3605C18.562 52.2901 30.6648 64.3929 45.5944 64.3929Z" fill="#FFC000"/>
<path d="M22.3885 39.8436C22.0603 36.795 22.3361 33.7115 23.2001 30.7695C24.064 27.8275 25.4993 25.0845 27.4237 22.6974C29.3482 20.3103 31.7242 18.3257 34.4159 16.8572C37.1077 15.3887 40.0624 14.465 43.1113 14.1389C55.9264 12.7681 67.0026 23.7542 68.3695 36.5693C69.7364 49.3845 62.0677 58.7882 49.2408 60.159C36.4139 61.5299 23.7633 52.6548 22.3885 39.8436Z" fill="#FF8F00"/>
<path d="M48.5896 58.3696C60.1941 56.7159 68.2608 45.9681 66.6072 34.3636C64.9536 22.7591 54.2057 14.6923 42.6012 16.3459C30.9967 17.9996 22.9299 28.7474 24.5836 40.3519C26.2372 51.9564 36.985 60.0232 48.5896 58.3696Z" fill="white"/>
<path d="M45.9547 41.0539C45.882 41.0539 45.8115 41.029 45.755 40.9834L39.4218 36.0093C39.3639 35.9545 39.3283 35.8801 39.3222 35.8006C39.316 35.721 39.3397 35.6421 39.3886 35.579C39.4374 35.516 39.508 35.4734 39.5866 35.4595C39.6651 35.4457 39.746 35.4615 39.8135 35.504L45.8999 40.2862L55.4486 28.3445C55.4746 28.3112 55.5069 28.2834 55.5437 28.2628C55.5806 28.2422 55.6212 28.2291 55.6631 28.2244C55.705 28.2196 55.7475 28.2233 55.788 28.2352C55.8285 28.2471 55.8663 28.2669 55.899 28.2936C55.9653 28.3466 56.0079 28.4238 56.0175 28.5082C56.027 28.5927 56.0027 28.6774 55.9499 28.744L46.2054 40.9324C46.1754 40.9702 46.1373 41.0007 46.0939 41.0217C46.0505 41.0428 46.003 41.0537 45.9547 41.0539Z" fill="#522D34"/>
<path d="M44.0709 23.3469C44.018 23.3471 43.967 23.3276 43.9278 23.292C43.8887 23.2565 43.8643 23.2076 43.8594 23.155L43.4011 18.8741C43.3954 18.8181 43.4122 18.762 43.4478 18.7183C43.4835 18.6746 43.535 18.6468 43.5911 18.6411C43.6472 18.6354 43.7032 18.6522 43.7469 18.6878C43.7906 18.7234 43.8184 18.775 43.8241 18.8311L44.2824 23.1119C44.2856 23.1397 44.2833 23.1679 44.2756 23.1948C44.2679 23.2217 44.2549 23.2468 44.2375 23.2687C44.22 23.2905 44.1983 23.3087 44.1737 23.3221C44.1492 23.3356 44.1222 23.344 44.0944 23.3469H44.0709Z" fill="#522D34"/>
<path d="M47.6232 56.5244C47.5699 56.5248 47.5184 56.5053 47.4786 56.4699C47.4389 56.4344 47.4136 56.3855 47.4078 56.3325L46.9535 52.0517C46.9497 52.0238 46.9516 51.9954 46.959 51.9683C46.9665 51.9411 46.9795 51.9158 46.9971 51.8938C47.0146 51.8718 47.0365 51.8537 47.0613 51.8404C47.0862 51.8271 47.1134 51.8191 47.1415 51.8167C47.198 51.8112 47.2545 51.8283 47.2985 51.8642C47.3425 51.9002 47.3705 51.9521 47.3765 52.0086L47.8347 56.2855C47.8403 56.3415 47.8237 56.3974 47.7886 56.4413C47.7534 56.4852 47.7025 56.5136 47.6467 56.5205L47.6232 56.5244Z" fill="#522D34"/>
<path d="M60.0663 36.2482C60.0139 36.2446 59.9646 36.222 59.9276 36.1846C59.8907 36.1472 59.8688 36.0976 59.8659 36.0451C59.863 35.9927 59.8794 35.9409 59.912 35.8997C59.9446 35.8585 59.9911 35.8306 60.0428 35.8213L64.3236 35.363C64.353 35.3574 64.3833 35.3579 64.4124 35.3645C64.4416 35.3712 64.4691 35.3839 64.4931 35.4017C64.5171 35.4196 64.5371 35.4423 64.5519 35.4683C64.5666 35.4943 64.5758 35.5231 64.5788 35.5529C64.5818 35.5827 64.5786 35.6128 64.5693 35.6412C64.56 35.6697 64.545 35.6959 64.525 35.7182C64.505 35.7405 64.4807 35.7584 64.4534 35.7707C64.4262 35.7831 64.3966 35.7896 64.3667 35.7899L60.1094 36.2482H60.0663Z" fill="#522D34"/>
<path d="M26.8887 39.8006C26.8361 39.7999 26.7856 39.7801 26.7466 39.7447C26.7076 39.7093 26.683 39.661 26.6772 39.6087C26.674 39.5809 26.6762 39.5527 26.684 39.5258C26.6917 39.4989 26.7046 39.4737 26.7221 39.4519C26.7396 39.43 26.7613 39.4118 26.7858 39.3984C26.8104 39.385 26.8374 39.3766 26.8652 39.3737L31.1461 38.9154C31.202 38.9099 31.2579 38.9264 31.3018 38.9616C31.3458 38.9967 31.3742 39.0476 31.3811 39.1034C31.3867 39.1598 31.3702 39.2162 31.3352 39.2607C31.3001 39.3053 31.2492 39.3345 31.1931 39.3423L26.9122 39.7967L26.8887 39.8006Z" fill="#522D34"/>
<path d="M23.6614 43.1923C24.4448 45.8674 25.5453 47.8923 24.3508 48.2448C23.1562 48.5973 21.5661 46.6781 20.7906 44.0227C20.0151 41.3672 20.3519 38.8958 21.5465 38.5394C22.741 38.183 22.9016 40.5134 23.6614 43.1923Z" fill="white"/>
<path d="M64.0847 53.7632C64.6605 55.1693 61.3431 58.8548 55.8599 61.1108C50.3766 63.3668 44.8385 63.2923 44.2628 61.8941C43.6871 60.4959 47.4666 60.2883 52.9381 58.0441C58.4096 55.7999 63.509 52.3611 64.0847 53.7632Z" fill="#FF8F00"/>
<path d="M67.7859 27.6316C68.6515 27.4006 70.4962 29.3784 71.3109 32.4177C72.1255 35.457 71.5772 38.4101 70.7116 38.6412C69.846 38.8723 70.0693 36.8435 69.2625 33.8042C68.4556 30.7649 66.9164 27.8471 67.7859 27.6316Z" fill="#FF8F00"/>
<path d="M93.2596 77.1415L81.31 110.91C85.0229 114.788 107.865 114.365 109.811 110.91L97.8616 77.1415H93.2596Z" fill="#71659C"/>
<path d="M105.15 112.896L97.5521 79.4131L95.2727 79.4444L94.1525 113.644C97.8342 113.759 101.518 113.509 105.15 112.896Z" fill="#5F5583"/>
<path d="M88.7554 113.276L95.492 75.9508L85.3793 112.7C86.4939 112.951 87.6208 113.143 88.7554 113.276Z" fill="#E0D0FF"/>
<path d="M95.7231 84.2462C96.4582 84.23 97.1828 84.0684 97.855 83.7706C98.5273 83.4728 99.1338 83.0447 99.6397 82.5111L97.979 77.678L93.2282 77.447L91.5715 82.2683C92.0876 82.8689 92.7235 83.355 93.4384 83.6956C94.1533 84.0362 94.9315 84.2237 95.7231 84.2462Z" fill="#5F5583"/>
<path d="M42.2222 76.7224H148.895V77.0044C148.895 77.6515 148.638 78.2722 148.18 78.7298C147.723 79.1874 147.102 79.4445 146.455 79.4445H44.6623C44.0151 79.4445 43.3945 79.1874 42.9369 78.7298C42.4793 78.2722 42.2222 77.6515 42.2222 77.0044V76.7224Z" fill="#71659C"/>
<path d="M108.66 79.4444H82.6534L81.0906 76.7263H110.03L108.66 79.4444Z" fill="#5F5583"/>
<path d="M95.492 82.985C97.9904 82.985 100.016 80.9597 100.016 78.4614C100.016 75.963 97.9904 73.9377 95.492 73.9377C92.9937 73.9377 90.9684 75.963 90.9684 78.4614C90.9684 80.9597 92.9937 82.985 95.492 82.985Z" fill="#E0D0FF"/>
<path d="M95.492 81.6613C97.2592 81.6613 98.6919 80.2286 98.6919 78.4614C98.6919 76.6942 97.2592 75.2615 95.492 75.2615C93.7247 75.2615 92.2921 76.6942 92.2921 78.4614C92.2921 80.2286 93.7247 81.6613 95.492 81.6613Z" fill="#5F5583"/>
<path d="M95.492 81.6612C96.9542 81.6612 98.1396 80.3829 98.1396 78.806C98.1396 77.2291 96.9542 75.9508 95.492 75.9508C94.0297 75.9508 92.8444 77.2291 92.8444 78.806C92.8444 80.3829 94.0297 81.6612 95.492 81.6612Z" fill="#71659C"/>
<path d="M95.492 73.9338C94.8164 73.9336 94.1493 74.0848 93.5397 74.3762C92.9302 74.6676 92.3937 75.0918 91.9695 75.6178C91.5454 76.1437 91.2445 76.7579 91.0889 77.4154C90.9332 78.0728 90.9268 78.7568 91.0701 79.417C92.5364 78.9045 94.0696 78.609 95.6212 78.5397C97.0975 78.443 98.5754 78.7037 99.9295 79.2995C100.053 78.646 100.03 77.9733 99.8639 77.3294C99.6975 76.6854 99.3911 76.0861 98.9666 75.5741C98.5421 75.0622 98.01 74.6501 97.408 74.3672C96.8061 74.0843 96.1492 73.9377 95.4842 73.9377L95.492 73.9338Z" fill="#A594E4"/>
<path d="M95.492 75.2615C94.6433 75.2615 93.8294 75.5987 93.2293 76.1988C92.6292 76.7988 92.2921 77.6127 92.2921 78.4614C92.2932 78.6492 92.3102 78.8366 92.343 79.0215C93.4183 78.7579 94.5158 78.5953 95.6212 78.5358C96.6471 78.4701 97.6767 78.5747 98.6683 78.8452C98.6844 78.7153 98.6923 78.5845 98.6918 78.4536C98.6898 77.6063 98.3517 76.7944 97.7519 76.196C97.152 75.5976 96.3393 75.2615 95.492 75.2615Z" fill="#5F5583"/>
<path d="M20.9394 68.9323H66.8812V69.6059C66.8812 71.164 66.2622 72.6583 65.1605 73.7601C64.0587 74.8619 62.5644 75.4808 61.0063 75.4808H26.8026C25.2444 75.4808 23.7501 74.8619 22.6484 73.7601C21.5466 72.6583 20.9276 71.164 20.9276 69.6059V68.9323H20.9394Z" fill="#E0D0FF"/>
<path d="M124.244 68.9323H170.186V69.6059C170.186 71.164 169.567 72.6583 168.465 73.7601C167.363 74.8619 165.869 75.4808 164.311 75.4808H130.107C128.549 75.4808 127.055 74.8619 125.953 73.7601C124.851 72.6583 124.232 71.164 124.232 69.6059V68.9323H124.244Z" fill="#E0D0FF"/>
<path d="M45.5905 75.4808H42.2222V76.7224H45.5905V75.4808Z" fill="#5F5583"/>
<path d="M148.899 75.4808H145.531V76.7224H148.899V75.4808Z" fill="#5F5583"/>
<path d="M60.1838 68.9401H57.3129L55.2371 75.4809H58.1041L60.1838 68.9401Z" fill="#AE9DE4"/>
<path d="M45.9391 75.4809H53.7214L55.8011 68.9401H48.0149L45.9391 75.4809Z" fill="#AE9DE4"/>
<path d="M37.0327 68.9401H34.1658L32.0861 75.4809H34.953L37.0327 68.9401Z" fill="white"/>
<path d="M27.108 75.4809H29.975L32.0508 68.9401H29.1838L27.108 75.4809Z" fill="white"/>
<path d="M163.751 68.9401H160.884L158.804 75.4809H161.671L163.751 68.9401Z" fill="#AE9DE4"/>
<path d="M149.506 75.4809H157.292L159.372 68.9401H151.586L149.506 75.4809Z" fill="#AE9DE4"/>
<path d="M140.6 68.9401H137.733L135.653 75.4809H138.524L140.6 68.9401Z" fill="white"/>
<path d="M130.675 75.4809H133.542L135.622 68.9401H132.755L130.675 75.4809Z" fill="white"/>
<path d="M93.4632 79.1272C93.5768 79.6207 93.5219 80.0515 93.3457 80.0946C93.1694 80.1377 92.9305 79.7656 92.8169 79.2721C92.7034 78.7786 92.7621 78.3478 92.9384 78.3047C93.1146 78.2616 93.3535 78.6337 93.4632 79.1272Z" fill="#E0D0FF"/>
<path d="M61.8131 79.4444L63.3837 76.7263H48.8648L47.2943 79.4444H61.8131Z" fill="#5F5583"/>
<path d="M71.0445 76.7263H65.6945L64.1239 79.4444H69.474L71.0445 76.7263Z" fill="#5F5583"/>
<path d="M132.108 79.4444L133.679 76.7263H119.16L117.589 79.4444H132.108Z" fill="#5F5583"/>
<path d="M141.336 76.7263H135.99L134.419 79.4444H139.765L141.336 76.7263Z" fill="#5F5583"/>
<path d="M67.8329 77.4783H51.861C51.636 77.4783 51.4537 77.6607 51.4537 77.8857V77.9836C51.4537 78.2085 51.636 78.3909 51.861 78.3909H67.8329C68.0579 78.3909 68.2402 78.2085 68.2402 77.9836V77.8857C68.2402 77.6607 68.0579 77.4783 67.8329 77.4783Z" fill="#E0D0FF"/>
<path d="M73.1517 77.4783H70.5471C70.3222 77.4783 70.1398 77.6607 70.1398 77.8857V77.9836C70.1398 78.2085 70.3222 78.3909 70.5471 78.3909H73.1517C73.3766 78.3909 73.559 78.2085 73.559 77.9836V77.8857C73.559 77.6607 73.3766 77.4783 73.1517 77.4783Z" fill="#E0D0FF"/>
<path d="M124.169 77.4783H113.446C113.221 77.4783 113.038 77.6607 113.038 77.8857V77.9836C113.038 78.2085 113.221 78.3909 113.446 78.3909H124.169C124.394 78.3909 124.577 78.2085 124.577 77.9836V77.8857C124.577 77.6607 124.394 77.4783 124.169 77.4783Z" fill="#E0D0FF"/>
<path d="M127.824 77.4783H126.288C126.063 77.4783 125.881 77.6607 125.881 77.8857V77.9836C125.881 78.2085 126.063 78.3909 126.288 78.3909H127.824C128.049 78.3909 128.231 78.2085 128.231 77.9836V77.8857C128.231 77.6607 128.049 77.4783 127.824 77.4783Z" fill="#E0D0FF"/>
</g>
<defs>
<clipPath id="clip0_3_419">
<rect width="198.721" height="130" fill="white" transform="translate(0.639618)"/>
</clipPath>
</defs>
</svg>
