<svg width="202" height="130" viewBox="0 0 202 130" fill="none" xmlns="http://www.w3.org/2000/svg">
<path d="M13.189 129.383H190.765C214.724 81.6546 195.774 33.751 148.27 26.3823C110.707 20.5548 112.318 -4.05842 78.1097 0.577745C27.1177 7.48922 4.73498 50.1315 1.34313 80.9136C-1.57328 107.438 9.59126 125.093 13.189 129.383Z" fill="#E1ECFA"/>
<path d="M110.821 66.9491H105.416V64.3923H105.004V66.9491H99.5985C99.5077 66.9491 99.4178 66.967 99.3339 67.0018C99.25 67.0365 99.1738 67.0875 99.1096 67.1518C99.0454 67.2161 98.9945 67.2923 98.9597 67.3763C98.925 67.4603 98.9071 67.5503 98.9071 67.6412L99.5744 69.8753C99.7143 70.2338 100.033 70.6163 100.605 70.6163H109.815C110.388 70.6163 110.706 70.2338 110.845 69.8753L111.514 67.6412C111.513 67.4575 111.44 67.2815 111.311 67.1517C111.181 67.022 111.005 66.9491 110.821 66.9491Z" fill="#49263E"/>
<path d="M139.82 95.9037H115.549C115.258 95.7015 114.111 94.7458 114.616 92.5646C115.197 90.0762 117.931 81.0356 119.837 80.1227C121.743 79.2098 125.002 79.0931 127.684 78.9275C130.363 79.0931 133.623 79.2105 135.53 80.1227C137.437 81.0348 140.17 90.0762 140.751 92.5646C141.259 94.7458 140.111 95.7015 139.82 95.9037Z" fill="#223749"/>
<path d="M67.7666 95.6883H92.0379C92.3285 95.4861 93.4751 94.5312 92.9702 92.35C92.3898 89.8616 89.6552 80.821 87.7495 79.9081C85.8439 78.9952 82.5841 78.8785 79.9031 78.7129C77.2236 78.8785 73.9638 78.9959 72.0566 79.9081C70.1493 80.8202 67.4163 89.8616 66.8359 92.35C66.3279 94.5343 67.4745 95.4892 67.7666 95.6883Z" fill="#223749"/>
<path d="M111.335 95.2038C111.335 95.2038 115.036 87.9603 117.632 86.5225C120.229 85.0847 125.311 84.6982 127.41 84.8117C129.509 84.9253 135.918 84.7565 138.459 86.5225C141 88.2885 144.314 94.651 144.314 94.651C144.314 94.651 132.661 102.89 130.725 102.337C128.789 101.784 111.335 95.2038 111.335 95.2038Z" fill="#187C77"/>
<path d="M111.376 95.2217L111.293 95.1797C111.33 95.1074 115.03 87.9067 117.61 86.4789C120.216 85.0357 125.281 84.6469 127.412 84.7589C127.743 84.776 128.185 84.7868 128.696 84.7993C131.365 84.8631 136.334 84.9828 138.484 86.4813C141.006 88.2371 144.322 94.5623 144.355 94.6261L144.272 94.6696C144.239 94.6058 140.932 88.3001 138.432 86.5575C136.303 85.0753 131.352 84.9564 128.693 84.8926C128.181 84.8802 127.739 84.8693 127.407 84.8522C125.284 84.7402 120.244 85.1267 117.654 86.5629C115.1 87.9774 111.413 95.1533 111.376 95.2217Z" fill="black"/>
<path d="M132.44 74.9259L126.106 75.2105L125.058 80.2075C125.058 80.2075 124.633 81.8825 126.056 82.4019L125.256 84.7892C124.978 85.6057 125.36 86.3211 126.106 86.7442C126.524 86.9812 126.976 87.1522 127.446 87.2512C129.123 87.6034 130.297 86.528 130.57 85.9238C130.842 85.3196 131.059 82.2052 131.059 82.2052L131.422 80.7277L132.44 74.9259Z" fill="#F9B59D"/>
<path d="M127.983 77.9057C128.893 77.4392 129.557 78.4851 129.585 78.5278C129.59 78.536 129.597 78.543 129.605 78.5485C129.613 78.554 129.622 78.5578 129.631 78.5597C129.649 78.5635 129.668 78.5602 129.683 78.5504C129.699 78.5403 129.711 78.5243 129.715 78.5058C129.719 78.4873 129.716 78.4679 129.706 78.4516C129.699 78.4392 128.945 77.2471 127.92 77.7751C127.905 77.7848 127.893 77.7997 127.889 77.8171C127.884 77.8344 127.886 77.8529 127.894 77.8689C127.902 77.885 127.916 77.8974 127.933 77.9037C127.95 77.9101 127.968 77.91 127.985 77.9034L127.983 77.9057Z" fill="#E23E3D"/>
<path d="M125.912 77.0768C126.301 76.8606 126.792 77.5006 126.797 77.5076C126.803 77.515 126.81 77.5213 126.818 77.526C126.826 77.5307 126.835 77.5337 126.844 77.5349C126.853 77.5362 126.863 77.5356 126.872 77.5331C126.881 77.5307 126.889 77.5265 126.897 77.5208C126.904 77.5152 126.91 77.5081 126.915 77.5C126.92 77.4919 126.923 77.4829 126.924 77.4736C126.926 77.4643 126.925 77.4548 126.923 77.4457C126.92 77.4366 126.916 77.428 126.911 77.4205C126.888 77.3894 126.342 76.6756 125.844 76.9539C125.827 76.963 125.815 76.9784 125.809 76.9966C125.804 77.0148 125.806 77.0344 125.815 77.0511C125.824 77.0679 125.839 77.0803 125.858 77.0857C125.876 77.0911 125.896 77.089 125.912 77.0799V77.0768Z" fill="#E23E3D"/>
<path d="M128.577 78.6375C128.585 78.5961 128.581 78.5532 128.565 78.5141C128.549 78.4751 128.522 78.4416 128.487 78.418C128.452 78.3944 128.411 78.3817 128.369 78.3815C128.326 78.3813 128.285 78.3936 128.25 78.4169C128.215 78.4401 128.187 78.4733 128.171 78.5121C128.154 78.551 128.15 78.5939 128.158 78.6354C128.165 78.6769 128.185 78.7151 128.215 78.7452C128.245 78.7753 128.282 78.796 128.324 78.8047C128.351 78.8105 128.38 78.8107 128.407 78.8054C128.435 78.8002 128.462 78.7894 128.485 78.7739C128.509 78.7584 128.529 78.7383 128.545 78.7149C128.56 78.6915 128.571 78.6652 128.577 78.6375V78.6375Z" fill="black"/>
<path d="M126.393 77.9586C126.401 77.9173 126.397 77.8744 126.381 77.8354C126.365 77.7964 126.338 77.763 126.303 77.7394C126.268 77.7158 126.227 77.7031 126.185 77.7028C126.143 77.7026 126.101 77.7148 126.066 77.738C126.031 77.7612 126.003 77.7942 125.987 77.8331C125.97 77.8719 125.966 77.9147 125.974 77.9562C125.981 77.9976 126.001 78.0358 126.031 78.066C126.06 78.0962 126.098 78.117 126.139 78.1258C126.167 78.1316 126.195 78.1319 126.223 78.1266C126.251 78.1213 126.277 78.1106 126.301 78.0951C126.324 78.0795 126.345 78.0595 126.361 78.0361C126.376 78.0127 126.387 77.9863 126.393 77.9586V77.9586Z" fill="black"/>
<path d="M130.667 76.5861L132.187 75.1638C132.187 75.1638 132.349 74.9306 132.56 74.5728C132.771 74.2151 131.82 72.9966 130.96 72.2276C130.1 71.4585 129.245 72.4484 128.484 71.8963C127.092 70.8854 125.665 71.4468 125.317 71.7975C124.612 72.5075 123.888 73.1786 125.36 75.2027C126.832 77.2269 130.667 76.5861 130.667 76.5861Z" fill="#E23E3D"/>
<path d="M130.646 82.1578C132.788 82.853 133.132 79.6437 133.247 79.1803C133.362 78.7168 134.138 78.0255 134.016 76.3668C133.894 74.7082 132.264 74.4469 132.264 74.4469L132.342 74.9337L131.145 76.8404L130.646 82.1578Z" fill="#E23E3D"/>
<path d="M132.42 79.3692C132.471 79.1202 132.447 78.8619 132.351 78.6267C132.255 78.3915 132.091 78.1901 131.881 78.0477C131.671 77.9053 131.423 77.8284 131.17 77.8267C130.916 77.825 130.667 77.8985 130.455 78.0381C130.243 78.1776 130.077 78.3769 129.978 78.6107C129.879 78.8446 129.851 79.1026 129.898 79.3522C129.946 79.6018 130.066 79.8318 130.243 80.0132C130.421 80.1946 130.648 80.3193 130.897 80.3715C131.062 80.4059 131.233 80.4072 131.4 80.3754C131.566 80.3436 131.724 80.2794 131.866 80.1863C132.007 80.0932 132.129 79.9731 132.224 79.8329C132.319 79.6927 132.386 79.5351 132.42 79.3692V79.3692Z" fill="#F9B59D"/>
<path d="M131.246 78.6141C131.523 78.5294 131.809 78.6919 131.812 78.6919C131.816 78.6942 131.82 78.6958 131.825 78.6964C131.83 78.697 131.835 78.6967 131.839 78.6955C131.844 78.6942 131.848 78.6921 131.852 78.6892C131.855 78.6863 131.858 78.6827 131.861 78.6787C131.865 78.6705 131.867 78.6608 131.864 78.6517C131.862 78.6425 131.856 78.6347 131.848 78.6297C131.835 78.6219 131.533 78.4477 131.227 78.5418C131.133 78.5741 131.048 78.6258 130.976 78.6936C130.904 78.7615 130.847 78.8438 130.809 78.9353L130.753 79.0519L130.86 78.9811C130.876 78.971 131.236 78.7416 131.543 79.0364C131.611 79.106 131.654 79.1962 131.666 79.293C131.677 79.3898 131.657 79.4876 131.607 79.5714C131.563 79.6627 131.491 79.7371 131.401 79.7832C131.311 79.8293 131.208 79.8445 131.109 79.8264H131.101C131.096 79.8254 131.092 79.8254 131.087 79.8263C131.082 79.8272 131.078 79.829 131.074 79.8316C131.066 79.8368 131.06 79.845 131.058 79.8544C131.056 79.8638 131.058 79.8736 131.063 79.8816C131.069 79.8896 131.077 79.8952 131.086 79.8972H131.093C131.208 79.9177 131.326 79.9003 131.43 79.8475C131.534 79.7948 131.618 79.7096 131.67 79.6048C131.728 79.5074 131.752 79.3931 131.738 79.2803C131.724 79.1675 131.673 79.0627 131.592 78.9827C131.505 78.8991 131.396 78.8435 131.277 78.823C131.159 78.8024 131.037 78.818 130.927 78.8676C130.999 78.7474 131.113 78.6574 131.246 78.6141V78.6141Z" fill="#F07162"/>
<path d="M130.375 80.8521L131.057 77.7603L131.144 76.8388C130.864 77.0488 130.658 77.3427 130.556 77.6779C130.334 78.4065 129.751 80.3746 129.546 80.4244C129.26 80.4952 125.545 79.1413 124.979 79.363C124.979 79.363 123.814 82.6515 126.018 83.2409C129.175 84.0839 129.87 82.3132 130.375 80.8521Z" fill="#E23E3D"/>
<path d="M127.043 77.7121C127.038 77.7105 127.033 77.7098 127.029 77.71C127.024 77.7102 127.019 77.7114 127.015 77.7134C127.011 77.7154 127.007 77.7183 127.004 77.7218C127.001 77.7253 126.998 77.7294 126.997 77.7339L126.407 79.4034L127.106 79.814C127.11 79.8162 127.113 79.8178 127.117 79.8187C127.125 79.82 127.134 79.8185 127.141 79.8143C127.149 79.8102 127.154 79.8036 127.157 79.7957C127.16 79.7878 127.16 79.7792 127.158 79.7712C127.155 79.7632 127.15 79.7563 127.143 79.7518L126.491 79.3715L127.061 77.758C127.065 77.7494 127.065 77.7398 127.061 77.7313C127.058 77.7227 127.051 77.7158 127.043 77.7121Z" fill="#F07162"/>
<path d="M122.529 85.0583C122.529 85.0583 124.835 87.3662 127.824 87.4774C130.814 87.5886 133.376 85.0513 133.376 85.0513C133.376 85.0513 128 84.2122 122.529 85.0583Z" fill="#F9B59D"/>
<path d="M126.126 80.0839C126.152 80.0839 127.772 80.3879 127.772 80.3879C127.772 80.3879 127.429 81.01 126.827 80.9011C126.827 80.9011 126.299 80.7822 126.126 80.0839Z" fill="#FBFDFC"/>
<path d="M127.37 110.957C121.597 110.957 116.9 106.256 116.9 100.477C116.9 94.6976 121.597 89.9977 127.37 89.9977C133.144 89.9977 137.841 94.6984 137.841 100.477C137.841 106.255 133.143 110.957 127.37 110.957ZM127.37 92.3982C125.774 92.3982 124.214 92.872 122.886 93.7597C121.559 94.6474 120.525 95.9091 119.914 97.3853C119.303 98.8615 119.143 100.486 119.454 102.053C119.766 103.62 120.535 105.06 121.663 106.189C122.792 107.319 124.23 108.089 125.796 108.4C127.361 108.712 128.984 108.552 130.459 107.941C131.934 107.329 133.194 106.294 134.081 104.965C134.968 103.637 135.441 102.075 135.441 100.477C135.439 98.335 134.588 96.2814 133.075 94.7669C131.562 93.2523 129.51 92.4005 127.37 92.3982V92.3982Z" fill="#223749"/>
<path d="M120.526 95.8609C120.759 96.0118 121.106 95.9014 121.318 95.5903C121.551 95.2497 121.531 94.8267 121.283 94.6634L119.392 93.4192C119.392 93.4192 118.9 93.4752 118.669 93.8523C118.439 94.2295 118.566 94.5708 118.627 94.6113L120.526 95.8609Z" fill="#FE9F73"/>
<path d="M119.827 97.1525C120.053 97.3081 120.403 97.207 120.619 96.899C120.852 96.5623 120.843 96.137 120.599 95.9659L118.535 94.5312C118.535 94.5312 118.224 94.5514 117.991 94.9254C117.758 95.2995 117.753 95.7101 117.813 95.752L119.827 97.1525Z" fill="#FE9F73"/>
<path d="M119.118 98.3454C119.327 98.4955 119.653 98.4037 119.856 98.1191C120.079 97.8081 120.072 97.4092 119.847 97.2474L117.945 95.8796C117.945 95.8796 117.659 95.8951 117.437 96.2404C117.215 96.5857 117.204 96.9714 117.264 97.011L119.118 98.3454Z" fill="#FE9F73"/>
<path d="M120.594 95.7474L118.556 94.3936C118.511 94.364 118.443 94.3936 118.401 94.4535C118.384 94.4758 118.375 94.5027 118.374 94.5305C118.373 94.5583 118.381 94.5857 118.396 94.609C118.401 94.6144 118.406 94.6192 118.412 94.623L120.452 95.9768C120.729 96.1595 121.141 96.0173 121.389 95.6533C121.519 95.4698 121.586 95.2497 121.582 95.025C121.583 94.9333 121.563 94.8426 121.522 94.7604C121.482 94.6782 121.422 94.6068 121.349 94.5522L119.477 93.3236C119.464 93.3175 119.449 93.3143 119.434 93.314C119.419 93.3138 119.404 93.3165 119.39 93.3221C119.376 93.3277 119.363 93.3359 119.352 93.3465C119.341 93.357 119.333 93.3696 119.327 93.3835C119.307 93.4077 119.298 93.4382 119.3 93.4691C119.302 93.5001 119.315 93.5291 119.337 93.5506L121.209 94.7793C121.26 94.8161 121.301 94.8648 121.329 94.9212C121.357 94.9775 121.371 95.0398 121.37 95.1028C121.372 95.2563 121.326 95.4066 121.238 95.532C121.072 95.7785 120.789 95.8734 120.594 95.7474Z" fill="#F07162"/>
<path d="M121.453 94.8329C121.676 94.9885 122.018 94.8913 122.235 94.5934C122.483 94.2521 122.472 93.8158 122.223 93.6455L120.335 92.3601C120.125 92.217 119.745 92.4146 119.604 92.6284C119.362 92.9985 119.371 93.4146 119.431 93.4558L121.453 94.8329Z" fill="#FE9F73"/>
<path d="M121.527 94.7256L119.507 93.3368C119.493 93.3299 119.478 93.326 119.462 93.3252C119.447 93.3244 119.431 93.3268 119.417 93.3322C119.402 93.3375 119.389 93.3458 119.378 93.3565C119.367 93.3672 119.358 93.3801 119.351 93.3943C119.335 93.4165 119.325 93.4433 119.324 93.4711C119.323 93.4989 119.33 93.5264 119.345 93.5499C119.35 93.5553 119.355 93.56 119.361 93.5639L121.381 94.9527C121.656 95.1401 122.067 95.0032 122.318 94.6416C122.449 94.4589 122.519 94.2391 122.517 94.0141C122.52 93.9221 122.5 93.8308 122.461 93.7478C122.421 93.6647 122.362 93.5924 122.289 93.5366L120.439 92.2746C120.395 92.2442 120.327 92.2699 120.288 92.3329C120.269 92.3571 120.26 92.3874 120.261 92.4183C120.263 92.4491 120.276 92.4782 120.298 92.5001L122.15 93.7614C122.2 93.7991 122.241 93.8486 122.268 93.9055C122.295 93.9624 122.308 94.025 122.305 94.088C122.306 94.2416 122.259 94.3915 122.169 94.5164C122.001 94.7637 121.717 94.8555 121.527 94.7256Z" fill="#F07162"/>
<path d="M119.928 97.0258L117.99 95.6261C117.947 95.595 117.879 95.6191 117.84 95.6805C117.823 95.7026 117.813 95.7294 117.812 95.7572C117.811 95.785 117.818 95.8125 117.833 95.836C117.836 95.8408 117.841 95.845 117.846 95.8485L119.788 97.2482C120.063 97.4395 120.446 97.3182 120.698 96.9597C120.83 96.7774 120.9 96.558 120.9 96.3329C120.903 96.2407 120.884 96.149 120.845 96.0654C120.806 95.9819 120.747 95.9088 120.675 95.8524L118.61 94.4177C118.566 94.3873 118.498 94.413 118.46 94.4744C118.44 94.4985 118.43 94.529 118.432 94.5601C118.433 94.5911 118.446 94.6205 118.468 94.6424L120.532 96.0771C120.582 96.1154 120.622 96.1652 120.65 96.2225C120.677 96.2798 120.689 96.3427 120.687 96.406C120.687 96.5599 120.639 96.7098 120.549 96.8345C120.372 97.081 120.118 97.1588 119.928 97.0258Z" fill="#F07162"/>
<path d="M119.259 98.1673L117.404 96.833C117.36 96.8018 117.292 96.826 117.248 96.8882C117.232 96.9104 117.222 96.9371 117.221 96.9648C117.22 96.9926 117.227 97.0201 117.241 97.0437C117.246 97.0482 117.25 97.0524 117.255 97.0561L119.111 98.3897C119.365 98.5733 119.754 98.4527 119.995 98.1152C120.12 97.9443 120.189 97.7381 120.191 97.5258C120.195 97.4387 120.178 97.3519 120.142 97.2725C120.106 97.1931 120.052 97.1233 119.984 97.0686L118.081 95.7007C118.038 95.6689 117.969 95.6937 117.926 95.7552C117.906 95.7792 117.896 95.8098 117.897 95.8409C117.898 95.872 117.911 95.9016 117.933 95.9239L119.835 97.2917C119.881 97.3279 119.917 97.3743 119.941 97.4272C119.965 97.48 119.976 97.5378 119.973 97.5958C119.971 97.7359 119.925 97.8718 119.842 97.9846C119.69 98.2125 119.429 98.291 119.259 98.1673Z" fill="#F07162"/>
<path d="M134.392 95.8609C134.159 96.0118 133.812 95.9014 133.6 95.5903C133.367 95.2497 133.387 94.8267 133.635 94.6634L135.526 93.4192C135.526 93.4192 136.018 93.4752 136.249 93.8523C136.479 94.2295 136.352 94.5708 136.291 94.6113L134.392 95.8609Z" fill="#FE9F73"/>
<path d="M135.091 97.1525C134.865 97.3081 134.515 97.207 134.299 96.899C134.062 96.5623 134.075 96.137 134.319 95.9659L136.383 94.5312C136.383 94.5312 136.694 94.5514 136.927 94.9254C137.16 95.2995 137.165 95.7101 137.105 95.752L135.091 97.1525Z" fill="#FE9F73"/>
<path d="M135.797 98.3454C135.588 98.4955 135.263 98.4037 135.059 98.1191C134.836 97.8081 134.843 97.4092 135.069 97.2474L136.97 95.8796C136.97 95.8796 137.256 95.8951 137.478 96.2404C137.701 96.5857 137.711 96.9714 137.652 97.011L135.797 98.3454Z" fill="#FE9F73"/>
<path d="M134.322 95.7474L136.36 94.3936C136.406 94.364 136.473 94.3936 136.516 94.4535C136.532 94.4758 136.542 94.5027 136.543 94.5305C136.543 94.5583 136.536 94.5857 136.521 94.609C136.516 94.6144 136.51 94.6192 136.504 94.623L134.465 95.9768C134.188 96.1595 133.775 96.0173 133.527 95.6533C133.398 95.4698 133.33 95.2497 133.335 95.025C133.333 94.9333 133.353 94.8426 133.394 94.7604C133.435 94.6782 133.494 94.6068 133.568 94.5522L135.439 93.3236C135.453 93.3175 135.468 93.3143 135.483 93.314C135.498 93.3138 135.513 93.3165 135.527 93.3221C135.541 93.3277 135.554 93.3359 135.565 93.3465C135.575 93.357 135.584 93.3696 135.59 93.3835C135.609 93.4077 135.619 93.4382 135.617 93.4691C135.615 93.5001 135.601 93.5291 135.579 93.5506L133.707 94.7793C133.656 94.8161 133.615 94.8648 133.587 94.9212C133.559 94.9775 133.545 95.0398 133.547 95.1028C133.544 95.2563 133.59 95.4066 133.679 95.532C133.846 95.7785 134.129 95.8734 134.322 95.7474Z" fill="#F07162"/>
<path d="M133.465 94.8329C133.242 94.9885 132.9 94.8913 132.683 94.5934C132.435 94.2521 132.45 93.8158 132.695 93.6455L134.583 92.3601C134.793 92.217 135.173 92.4146 135.314 92.6284C135.556 92.9985 135.547 93.4146 135.487 93.4558L133.465 94.8329Z" fill="#FE9F73"/>
<path d="M133.391 94.7256L135.411 93.3367C135.425 93.3299 135.44 93.326 135.456 93.3252C135.471 93.3244 135.487 93.3267 135.501 93.3321C135.516 93.3375 135.529 93.3458 135.54 93.3565C135.551 93.3672 135.56 93.38 135.566 93.3943C135.583 93.4165 135.593 93.4433 135.594 93.4711C135.595 93.4989 135.588 93.5264 135.573 93.5498C135.568 93.5553 135.563 93.56 135.557 93.5638L133.537 94.9526C133.262 95.14 132.851 95.0032 132.6 94.6416C132.468 94.4588 132.399 94.239 132.401 94.014C132.398 93.922 132.418 93.8307 132.457 93.7477C132.497 93.6647 132.556 93.5923 132.629 93.5366L134.481 92.2753C134.525 92.245 134.593 92.2706 134.632 92.3336C134.651 92.3578 134.661 92.3882 134.659 92.419C134.657 92.4498 134.644 92.4789 134.623 92.5008L132.77 93.7621C132.72 93.7999 132.68 93.8493 132.653 93.9062C132.625 93.9631 132.613 94.0257 132.615 94.0887C132.614 94.2423 132.662 94.3923 132.751 94.5172C132.917 94.7637 133.201 94.8554 133.391 94.7256Z" fill="#F07162"/>
<path d="M134.99 97.0258L136.928 95.6261C136.971 95.595 137.039 95.6191 137.078 95.6805C137.095 95.7026 137.105 95.7294 137.106 95.7572C137.107 95.785 137.1 95.8125 137.085 95.836C137.081 95.8408 137.077 95.845 137.072 95.8485L135.134 97.2482C134.859 97.4395 134.476 97.3182 134.224 96.9597C134.092 96.7774 134.021 96.558 134.022 96.3329C134.019 96.2407 134.038 96.149 134.077 96.0654C134.116 95.9819 134.174 95.9088 134.247 95.8524L136.312 94.4177C136.356 94.3873 136.423 94.413 136.462 94.4744C136.482 94.4985 136.492 94.529 136.49 94.5601C136.489 94.5911 136.476 94.6205 136.454 94.6424L134.39 96.0771C134.34 96.1154 134.299 96.1652 134.272 96.2225C134.245 96.2798 134.232 96.3427 134.235 96.406C134.235 96.5599 134.283 96.7098 134.373 96.8345C134.546 97.081 134.8 97.1588 134.99 97.0258Z" fill="#F07162"/>
<path d="M135.659 98.1673L137.514 96.833C137.558 96.8018 137.626 96.826 137.67 96.8882C137.686 96.9104 137.696 96.9371 137.697 96.9648C137.698 96.9926 137.691 97.0201 137.677 97.0437C137.672 97.0482 137.668 97.0524 137.663 97.0561L135.807 98.3897C135.553 98.5733 135.164 98.4527 134.923 98.1152C134.798 97.9443 134.729 97.7381 134.727 97.5258C134.723 97.4387 134.74 97.3519 134.776 97.2725C134.812 97.1931 134.866 97.1233 134.934 97.0686L136.837 95.7007C136.88 95.6689 136.949 95.6937 136.992 95.7552C137.012 95.7792 137.022 95.8098 137.021 95.8409C137.019 95.872 137.007 95.9016 136.985 95.9239L135.083 97.2917C135.037 97.3279 135.001 97.3743 134.977 97.4272C134.953 97.48 134.942 97.5378 134.945 97.5958C134.947 97.7359 134.993 97.8718 135.076 97.9846C135.228 98.2125 135.487 98.291 135.659 98.1673Z" fill="#F07162"/>
<path d="M109.47 60.7732C109.47 60.7732 114.152 54.4154 114.61 53.4084C115.647 51.1331 119.875 29.7214 119.875 29.7214L113.418 28.6475L108.188 45.3313L102.338 55.494L109.47 60.7732Z" fill="#FE9F73"/>
<path d="M121.332 22.3822C121.184 22.3147 121.017 22.3054 120.863 22.3562C120.709 22.4069 120.58 22.514 120.502 22.6559L119.473 24.4662C119.457 24.4942 119.433 24.5166 119.405 24.5305C119.376 24.5445 119.343 24.5491 119.312 24.544C119.29 24.5393 119.269 24.5299 119.252 24.5165C119.234 24.5031 119.219 24.486 119.208 24.4664C119.197 24.4468 119.191 24.4251 119.19 24.4027C119.188 24.3804 119.191 24.3581 119.199 24.3371L120.351 21.4848C120.384 21.4132 120.4 21.3348 120.397 21.2559C120.395 21.1771 120.374 21.0999 120.336 21.0306C120.298 20.9614 120.245 20.9019 120.18 20.8569C120.115 20.812 120.041 20.7828 119.963 20.7718V20.7718C119.786 20.7442 119.605 20.7756 119.448 20.8612C119.291 20.9468 119.167 21.0818 119.094 21.2453L117.918 24.1474C117.904 24.1797 117.88 24.2064 117.85 24.2232C117.819 24.24 117.783 24.2459 117.749 24.2399L117.698 24.2306C117.659 24.2225 117.624 24.1993 117.601 24.1659C117.578 24.1325 117.569 24.0916 117.576 24.0517L118.227 20.6341C118.259 20.4752 118.23 20.3099 118.146 20.1713C118.061 20.0328 117.928 19.9312 117.772 19.8868C117.689 19.8649 117.602 19.8604 117.517 19.8736C117.432 19.8867 117.35 19.9173 117.277 19.9633C117.204 20.0093 117.142 20.0698 117.093 20.1411C117.045 20.2123 117.011 20.2928 116.995 20.3775L116.341 23.8169C116.333 23.8562 116.31 23.8908 116.276 23.9134C116.243 23.936 116.203 23.9449 116.163 23.9382L116.002 23.9079C115.967 23.9005 115.935 23.8808 115.913 23.8524C115.89 23.824 115.878 23.7886 115.879 23.7524L116.066 20.505C116.078 20.3438 116.028 20.1842 115.927 20.0579C115.827 19.9317 115.682 19.8481 115.522 19.8238C115.437 19.8131 115.35 19.8201 115.268 19.8443C115.185 19.8685 115.109 19.9093 115.043 19.9644C114.977 20.0194 114.923 20.0875 114.884 20.1643C114.845 20.2411 114.823 20.325 114.818 20.4109C114.818 20.4109 114.266 25.3473 114.118 26.1117L112.835 24.8263C112.741 24.6885 112.597 24.5936 112.433 24.5624C112.27 24.5312 112.1 24.5662 111.963 24.6598V24.6598C111.894 24.7063 111.836 24.7657 111.791 24.8348C111.746 24.9038 111.714 24.9811 111.699 25.0622C111.684 25.1433 111.684 25.2266 111.701 25.3074C111.718 25.3882 111.751 25.4649 111.797 25.5331L113.664 29.1242C113.791 29.3116 114.235 29.3971 114.609 29.3808C118.182 30.3497 118.745 30.4694 119.736 30.6421L120.345 26.7252C120.52 25.5947 120.9 24.5056 121.465 23.5113L121.607 23.2617C121.65 23.1866 121.677 23.1035 121.686 23.0174C121.695 22.9314 121.687 22.8444 121.661 22.7619C121.635 22.6793 121.593 22.603 121.536 22.5376C121.479 22.4723 121.41 22.4194 121.332 22.3822V22.3822Z" fill="#FE9F73"/>
<path d="M72.2213 61.4373C72.2213 61.4373 67.539 55.0795 67.0807 54.0725C66.0435 51.7972 61.8157 30.3854 61.8157 30.3854L68.2732 29.3115L73.5023 45.9984L79.3546 56.1596L72.2213 61.4373Z" fill="#FE9F73"/>
<path d="M60.3591 23.0447C60.5064 22.9772 60.6737 22.9679 60.8276 23.0187C60.9814 23.0694 61.1105 23.1765 61.1888 23.3184L62.2182 25.1287C62.2337 25.1566 62.2575 25.1791 62.2863 25.193C62.3151 25.2069 62.3474 25.2116 62.379 25.2065C62.4008 25.2017 62.4214 25.1924 62.4393 25.179C62.4572 25.1656 62.472 25.1485 62.4826 25.1289C62.4933 25.1092 62.4997 25.0875 62.5012 25.0652C62.5028 25.0429 62.4995 25.0205 62.4916 24.9996L61.3395 22.1473C61.3065 22.0756 61.2908 21.9972 61.2934 21.9183C61.2961 21.8394 61.3171 21.7622 61.3548 21.6928C61.3926 21.6235 61.4459 21.564 61.5107 21.5189C61.5755 21.4739 61.6499 21.4446 61.728 21.4335V21.4335C61.9047 21.4062 62.0854 21.4379 62.2424 21.5236C62.3993 21.6093 62.5238 21.7443 62.5965 21.9078L63.7719 24.8161C63.7856 24.8484 63.8098 24.8751 63.8405 24.8919C63.8713 24.9087 63.9068 24.9146 63.9413 24.9086L63.9926 24.8993C64.032 24.891 64.0667 24.8678 64.0893 24.8344C64.1119 24.801 64.1206 24.7602 64.1137 24.7204L63.4635 21.3028C63.4313 21.1439 63.4602 20.9786 63.5445 20.84C63.6287 20.7015 63.7621 20.5999 63.918 20.5555C64.0013 20.5336 64.0882 20.5291 64.1734 20.5423C64.2585 20.5554 64.34 20.586 64.4129 20.632C64.4857 20.678 64.5484 20.7385 64.5969 20.8098C64.6454 20.881 64.6787 20.9615 64.6949 21.0462L65.349 24.4856C65.3573 24.5249 65.3804 24.5595 65.4136 24.5821C65.4467 24.6047 65.4873 24.6136 65.5269 24.6069L65.6877 24.5766C65.7232 24.5692 65.755 24.5495 65.7775 24.5211C65.8001 24.4927 65.812 24.4573 65.8112 24.4211L65.624 21.1737C65.6124 21.0125 65.6619 20.8529 65.7627 20.7266C65.8635 20.6004 66.0082 20.5168 66.1678 20.4925C66.2531 20.4819 66.3397 20.4888 66.4222 20.513C66.5047 20.5372 66.5813 20.578 66.6474 20.6331C66.7134 20.6881 66.7675 20.7562 66.8062 20.833C66.8449 20.9098 66.8675 20.9937 66.8725 21.0796C66.8725 21.0796 67.424 26.016 67.5716 26.7804L68.855 25.495C68.9488 25.3572 69.0933 25.2623 69.2569 25.2311C69.4204 25.1999 69.5897 25.2349 69.7275 25.3285C69.7957 25.375 69.854 25.4344 69.8992 25.5035C69.9444 25.5725 69.9756 25.6498 69.991 25.7309C70.0064 25.812 70.0056 25.8953 69.9888 25.9761C69.972 26.0569 69.9394 26.1336 69.893 26.2018L68.023 29.7897C67.8964 29.9772 67.452 30.0627 67.0783 30.0464C63.5047 31.0153 62.9422 31.135 61.9509 31.3077L61.3426 27.3908C61.1703 26.2588 60.7936 25.1677 60.2309 24.1707L60.0895 23.9211C60.0469 23.8464 60.02 23.7639 60.0106 23.6784C60.0011 23.593 60.0093 23.5065 60.0346 23.4244C60.0598 23.3423 60.1017 23.2662 60.1575 23.2009C60.2133 23.1355 60.2819 23.0824 60.3591 23.0447Z" fill="#FE9F73"/>
<path d="M83.2266 57.0158C83.2266 57.0158 96.7932 57.5096 97.9096 57.1029C99.026 56.6962 103.984 50.9076 103.984 50.9076C103.984 50.9076 107.325 50.9076 113.864 56.5974C113.864 56.5974 107.548 65.9172 107.243 67.4421C106.938 68.967 107.304 103.679 107.304 103.679C107.304 103.679 90.3769 109.386 74.8052 103.528C74.8052 103.528 78.0976 70.4841 77.4885 68.8574C76.8794 67.2306 67.8645 57.3797 67.8645 57.3797C67.8645 57.3797 72.0379 51.3042 76.9867 50.1253L83.2266 57.0158Z" fill="#FEC786"/>
<path d="M92.3665 47.3772L93.7649 52.2933C93.7649 52.2933 94.3087 53.9356 92.9103 54.5577L93.8131 56.6977C93.9785 57.0822 94.0049 57.5124 93.8876 57.9142C93.7703 58.316 93.5168 58.6643 93.1706 58.8992C92.7669 59.1664 92.3246 59.3699 91.8592 59.5026C90.199 59.977 88.9444 58.9871 88.6289 58.4038C88.3135 57.8206 87.8793 54.7241 87.8793 54.7241L87.4131 53.2754L85.9837 47.5537L92.3665 47.3772Z" fill="#FE9F73"/>
<path d="M89.0594 50.9799C89.0414 50.9845 89.0224 50.9826 89.0058 50.9744C88.9889 50.9655 88.9763 50.9503 88.9706 50.9321C88.9649 50.9139 88.9667 50.8942 88.9755 50.8772C88.9825 50.864 89.656 49.6183 90.7258 50.0716C90.7354 50.0746 90.7443 50.0796 90.7519 50.0863C90.7595 50.093 90.7656 50.1012 90.7699 50.1104C90.7741 50.1196 90.7764 50.1296 90.7765 50.1397C90.7766 50.1498 90.7746 50.1599 90.7706 50.1692C90.7666 50.1785 90.7607 50.1869 90.7533 50.1937C90.7459 50.2006 90.7371 50.2058 90.7275 50.2091C90.718 50.2124 90.7078 50.2136 90.6977 50.2127C90.6877 50.2118 90.6779 50.2087 90.6691 50.2038C89.722 49.8026 89.1277 50.8974 89.1029 50.9441C89.0983 50.9527 89.0922 50.9602 89.0847 50.9664C89.0772 50.9725 89.0686 50.9771 89.0594 50.9799V50.9799Z" fill="#49263E"/>
<path d="M91.7924 49.7505C91.7825 49.7532 91.7721 49.7538 91.7619 49.7522C91.7517 49.7505 91.742 49.7468 91.7334 49.7412C91.7254 49.736 91.7186 49.7294 91.7132 49.7216C91.7079 49.7138 91.7041 49.705 91.7022 49.6958C91.7002 49.6865 91.7001 49.677 91.7019 49.6677C91.7036 49.6584 91.7072 49.6495 91.7124 49.6416C91.7334 49.6097 92.2321 48.8562 92.7511 49.0973C92.7684 49.1052 92.7819 49.1197 92.7885 49.1376C92.7951 49.1555 92.7944 49.1752 92.7865 49.1926C92.7785 49.2099 92.764 49.2233 92.7462 49.23C92.7283 49.2366 92.7086 49.2359 92.6913 49.2279C92.2842 49.0413 91.8367 49.7155 91.8367 49.7225C91.8259 49.737 91.8101 49.747 91.7924 49.7505V49.7505Z" fill="#49263E"/>
<path d="M90.5378 50.8602C90.5495 50.9013 90.5488 50.9449 90.5357 50.9856C90.5226 51.0263 90.4978 51.0622 90.4643 51.0888C90.4309 51.1153 90.3903 51.1314 90.3478 51.1349C90.3052 51.1384 90.2626 51.1292 90.2252 51.1084C90.1879 51.0877 90.1576 51.0563 90.138 51.0183C90.1185 50.9803 90.1107 50.9374 90.1155 50.8949C90.1203 50.8524 90.1377 50.8123 90.1653 50.7797C90.1928 50.7471 90.2295 50.7234 90.2705 50.7116C90.2978 50.7038 90.3264 50.7014 90.3546 50.7046C90.3828 50.7079 90.4101 50.7166 90.4349 50.7304C90.4597 50.7442 90.4816 50.7628 90.4992 50.785C90.5169 50.8073 90.53 50.8328 90.5378 50.8602V50.8602Z" fill="black"/>
<path d="M92.6843 50.0227C92.696 50.0638 92.6954 50.1075 92.6823 50.1482C92.6692 50.189 92.6444 50.2249 92.6109 50.2515C92.5774 50.2781 92.5368 50.2941 92.4942 50.2976C92.4516 50.3011 92.4089 50.2918 92.3716 50.271C92.3342 50.2502 92.3039 50.2188 92.2844 50.1807C92.2649 50.1426 92.2572 50.0996 92.2621 50.0571C92.2671 50.0146 92.2845 49.9745 92.3122 49.942C92.34 49.9094 92.3767 49.8858 92.4178 49.8741C92.4451 49.8663 92.4736 49.864 92.5017 49.8672C92.5299 49.8704 92.5571 49.8792 92.5819 49.893C92.6066 49.9068 92.6284 49.9254 92.646 49.9476C92.6636 49.9699 92.6766 49.9954 92.6843 50.0227V50.0227Z" fill="black"/>
<path d="M86.2564 47.7706L87.8824 49.0809C87.8824 49.0809 91.7792 49.4433 93.1178 47.3142C94.4563 45.185 93.681 44.5668 92.9236 43.9082C92.5499 43.5839 91.0777 43.1306 89.7484 44.2379C89.0236 44.8437 88.0953 43.9175 87.2842 44.748C86.4731 45.5785 85.6046 46.8639 85.8407 47.2069C86.0769 47.5498 86.2564 47.7706 86.2564 47.7706Z" fill="#49263E"/>
<path d="M86.1274 47.0583C86.1274 47.0583 84.5084 47.437 84.5014 49.1035C84.4944 50.7699 85.3233 51.4037 85.4694 51.8586C85.6154 52.3135 86.1865 55.494 88.2895 54.644L87.4217 49.3679L86.0847 47.5537L86.1274 47.0583Z" fill="#49263E"/>
<path d="M88.803 51.2777C88.873 51.5241 88.8685 51.7857 88.79 52.0296C88.7115 52.2734 88.5626 52.4885 88.362 52.6476C88.1614 52.8067 87.9182 52.9027 87.6632 52.9235C87.4081 52.9443 87.1526 52.8889 86.9289 52.7644C86.7053 52.6398 86.5235 52.4517 86.4067 52.2238C86.2898 51.9959 86.243 51.7384 86.2723 51.484C86.3016 51.2295 86.4056 50.9894 86.5712 50.7941C86.7368 50.5987 86.9565 50.4569 87.2026 50.3866C87.3662 50.3398 87.5373 50.3258 87.7063 50.3452C87.8752 50.3647 88.0387 50.4174 88.1873 50.5001C88.336 50.5829 88.4668 50.6942 88.5725 50.8276C88.6781 50.961 88.7565 51.114 88.803 51.2777Z" fill="#FE9F73"/>
<path d="M87.6835 52.4231C87.5701 52.4523 87.4504 52.4436 87.3423 52.3986C87.2343 52.3536 87.1438 52.2746 87.0845 52.1735C87.0201 52.0809 86.9885 51.9693 86.9947 51.8566C87.0009 51.7439 87.0445 51.6365 87.1187 51.5514C87.1999 51.4613 87.3062 51.3976 87.4238 51.3683C87.5415 51.3391 87.6652 51.3457 87.7791 51.3874C87.698 51.2708 87.5773 51.1879 87.4396 51.1541C87.156 51.0887 86.8802 51.2738 86.8771 51.2762C86.8692 51.2815 86.8594 51.2835 86.85 51.2817C86.8406 51.2799 86.8323 51.2744 86.827 51.2664C86.8216 51.2585 86.8197 51.2488 86.8215 51.2393C86.8233 51.2299 86.8288 51.2216 86.8367 51.2163C86.8491 51.2077 87.1405 51.0118 87.4582 51.0833C87.5543 51.1085 87.6439 51.154 87.721 51.2166C87.7982 51.2792 87.8612 51.3576 87.9057 51.4465L87.9702 51.5584L87.8567 51.4962C87.8412 51.4877 87.4629 51.2839 87.1746 51.6012C87.1111 51.6754 87.0741 51.7686 87.0693 51.8661C87.0645 51.9637 87.0923 52.0601 87.1482 52.1401C87.1991 52.228 87.2772 52.2969 87.3707 52.3364C87.4642 52.3758 87.5681 52.3836 87.6664 52.3586H87.6734C87.6779 52.3573 87.6827 52.3569 87.6874 52.3575C87.6921 52.358 87.6966 52.3595 87.7007 52.3618C87.7048 52.3641 87.7085 52.3672 87.7114 52.3709C87.7143 52.3747 87.7164 52.3789 87.7177 52.3835C87.7191 52.388 87.7196 52.3927 87.7192 52.3974C87.7187 52.4021 87.7173 52.4066 87.7151 52.4108C87.7128 52.4149 87.7098 52.4186 87.7061 52.4215C87.7024 52.4244 87.6981 52.4266 87.6936 52.4278L87.6835 52.4231Z" fill="#F07162"/>
<path d="M89.1471 54.1075C89.1471 54.1075 90.0375 56.861 93.5831 56.1363L92.9173 54.5577C92.9173 54.5577 90.7957 55.6534 89.1471 54.1075Z" fill="#F07162"/>
<path d="M91.6689 52.0522C91.6617 52.0545 91.6539 52.0544 91.6468 52.0519C91.6396 52.0493 91.6335 52.0446 91.6293 52.0382C91.6241 52.0302 91.6221 52.0205 91.6239 52.0111C91.6256 52.0017 91.6309 51.9933 91.6386 51.9877L92.2671 51.5608L91.5827 49.99C91.5804 49.9857 91.579 49.9809 91.5787 49.976C91.5783 49.9711 91.579 49.9662 91.5806 49.9616C91.5822 49.957 91.5848 49.9527 91.5881 49.9491C91.5914 49.9455 91.5954 49.9426 91.5999 49.9407C91.6044 49.9387 91.6092 49.9376 91.6141 49.9376C91.619 49.9376 91.6239 49.9386 91.6284 49.9405C91.6329 49.9424 91.6369 49.9453 91.6403 49.9488C91.6437 49.9524 91.6463 49.9566 91.6479 49.9612L92.3564 51.5865L91.679 52.0476C91.676 52.0499 91.6726 52.0515 91.6689 52.0522Z" fill="#F07162"/>
<path d="M91.324 52.8804C91.3442 52.8695 92.6835 52.4535 92.6835 52.4535C92.6835 52.4535 92.6734 53.06 92.1762 53.2156C91.679 53.3711 91.324 52.8804 91.324 52.8804Z" fill="#FBFDFC"/>
<path d="M85.3055 57.085C85.3055 57.085 88.3858 59.613 91.3061 59.6068C94.2264 59.6006 96.8103 57.2242 96.8103 57.2242L85.3055 57.085Z" fill="#FE9F73"/>
<path d="M113.867 56.7234C113.836 56.7234 113.806 56.7117 113.784 56.6907C108.649 52.025 104.635 51.1517 104.045 51.0452C103.31 52.0973 102.321 53.2389 101.106 54.4379C101.094 54.451 101.08 54.4615 101.065 54.4689C101.049 54.4762 101.032 54.4803 101.015 54.4808C100.997 54.4813 100.98 54.4783 100.964 54.4718C100.948 54.4654 100.934 54.4557 100.921 54.4434C100.909 54.4311 100.9 54.4164 100.894 54.4002C100.887 54.3841 100.885 54.3668 100.885 54.3495C100.886 54.3322 100.89 54.3153 100.898 54.2997C100.905 54.2842 100.916 54.2703 100.929 54.2591C102.16 53.046 103.154 51.8944 103.881 50.8376L103.925 50.7738L104.003 50.7839C104.045 50.7901 108.353 51.4146 113.947 56.5056C113.966 56.5226 113.979 56.545 113.985 56.5697C113.991 56.5945 113.989 56.6205 113.98 56.6442C113.971 56.668 113.955 56.6883 113.933 56.7026C113.912 56.7169 113.887 56.7244 113.862 56.7241L113.867 56.7234Z" fill="black"/>
<path d="M90.3435 106.279C89.433 106.279 88.494 106.259 87.5266 106.218C87.5101 106.217 87.4939 106.214 87.479 106.207C87.464 106.2 87.4506 106.19 87.4394 106.178C87.4283 106.166 87.4197 106.151 87.4141 106.136C87.4085 106.12 87.4061 106.104 87.4069 106.087C87.4072 106.071 87.4109 106.055 87.4177 106.039C87.4245 106.024 87.4343 106.011 87.4465 105.999C87.4587 105.988 87.473 105.98 87.4887 105.974C87.5043 105.969 87.5209 105.967 87.5375 105.968C98.782 106.447 106.322 103.898 107.182 103.591C107.171 102.139 107.026 83.5404 107.001 74.2307C106.978 64.6435 106.008 62.2398 105.998 62.2165C105.985 62.1856 105.985 62.1507 105.998 62.1196C106.01 62.0884 106.035 62.0636 106.066 62.0505C106.097 62.0374 106.131 62.0371 106.162 62.0497C106.194 62.0624 106.218 62.0868 106.232 62.1177C106.272 62.2134 107.231 64.561 107.255 74.2299C107.279 83.8724 107.434 103.481 107.436 103.678V103.765L107.358 103.797C107.282 103.823 100.691 106.279 90.3435 106.279Z" fill="black"/>
<path d="M76.5539 84.9323H76.5454C76.5122 84.9291 76.4816 84.913 76.4602 84.8874C76.4388 84.8617 76.4284 84.8287 76.4312 84.7954C76.8367 80.2176 77.3634 68.9647 77.3697 68.8542C77.37 68.8376 77.3738 68.8213 77.3807 68.8061C77.3876 68.791 77.3974 68.7774 77.4097 68.7662C77.422 68.755 77.4364 68.7465 77.4521 68.741C77.4678 68.7355 77.4844 68.7333 77.501 68.7345C77.5341 68.7363 77.5653 68.7511 77.5877 68.7757C77.61 68.8003 77.6219 68.8327 77.6206 68.8659C77.6152 68.9794 77.0869 80.2378 76.6813 84.8211C76.6779 84.8522 76.6628 84.8809 76.6393 84.9015C76.6157 84.9221 76.5852 84.9331 76.5539 84.9323V84.9323Z" fill="black"/>
<path d="M82.0123 101.909C81.9947 101.909 81.9774 101.906 81.9613 101.899C81.9453 101.891 81.9309 101.881 81.9191 101.868L79.2621 98.9644C79.2498 98.9525 79.24 98.9382 79.2334 98.9223C79.2268 98.9065 79.2235 98.8895 79.2237 98.8723C79.2239 98.8551 79.2276 98.8382 79.2346 98.8225C79.2416 98.8068 79.2517 98.7927 79.2643 98.7811C79.2769 98.7694 79.2918 98.7605 79.308 98.7549C79.3242 98.7492 79.3414 98.7469 79.3585 98.7481C79.3756 98.7493 79.3923 98.7541 79.4075 98.762C79.4227 98.7699 79.4362 98.7808 79.447 98.7941L82.1047 101.699C82.1159 101.711 82.1245 101.725 82.1302 101.74C82.1358 101.756 82.1384 101.772 82.1377 101.789C82.1369 101.805 82.133 101.821 82.126 101.836C82.119 101.851 82.1091 101.865 82.097 101.876C82.0738 101.897 82.0437 101.909 82.0123 101.909Z" fill="black"/>
<path d="M82.0123 103.394C81.9949 103.394 81.9778 103.391 81.9619 103.384C81.946 103.377 81.9317 103.367 81.9198 103.354L79.9116 101.195C79.8913 101.17 79.8813 101.138 79.8834 101.106C79.8856 101.074 79.8999 101.044 79.9234 101.022C79.9468 101.001 79.9777 100.989 80.0098 100.989C80.0418 100.989 80.0725 101.001 80.0957 101.024L82.104 103.183C82.1205 103.201 82.1315 103.223 82.1356 103.247C82.1397 103.271 82.1367 103.296 82.127 103.319C82.1173 103.341 82.1013 103.36 82.0809 103.374C82.0605 103.387 82.0367 103.394 82.0123 103.394V103.394Z" fill="black"/>
<path d="M67.8684 57.5072C67.8455 57.5074 67.823 57.5012 67.8034 57.4894C67.7837 57.4776 67.7677 57.4606 67.757 57.4403C67.7464 57.42 67.7415 57.3972 67.7429 57.3743C67.7443 57.3514 67.752 57.3293 67.7651 57.3105C72.4217 50.4675 76.7963 50.018 76.9797 50.0009L77.0418 49.9962L83.2872 56.8929L87.3976 57.0204C87.4309 57.0217 87.4624 57.036 87.4853 57.0603C87.5081 57.0846 87.5204 57.117 87.5196 57.1503C87.5193 57.1669 87.5157 57.1832 87.509 57.1984C87.5022 57.2135 87.4925 57.2272 87.4804 57.2385C87.4683 57.2498 87.4541 57.2586 87.4385 57.2643C87.4229 57.27 87.4064 57.2725 87.3899 57.2716L83.173 57.1402L83.1372 57.1013L76.9416 50.2583C76.3978 50.336 72.264 51.1448 67.9725 57.4505C67.9612 57.4678 67.9458 57.4821 67.9276 57.492C67.9095 57.5019 67.8891 57.5071 67.8684 57.5072V57.5072Z" fill="black"/>
<g opacity="0.5">
<path opacity="0.5" d="M149.15 93.1999C146.261 86.5637 139.323 70.9041 137.309 68.8263C134.764 66.201 131.721 65.6925 128.297 65.3355L128.234 65.3285C126.98 65.2041 123.796 65.0556 120.135 64.9148C115.079 64.7197 109.111 64.5377 106.052 64.4483L104.07 64.3923H104.047C103.397 64.4102 96.5298 64.603 90.1967 64.8332C85.589 64.9996 81.2626 65.1854 79.8199 65.3363C76.3939 65.6932 73.3516 66.2018 70.8081 68.827C68.7945 70.9048 61.8561 86.5645 58.9669 93.2007C58.8541 93.4592 58.8074 93.7418 58.8309 94.0229C58.8544 94.304 58.9474 94.5748 59.1015 94.8109C59.2557 95.0471 59.4661 95.2411 59.7138 95.3755C59.9616 95.51 60.2389 95.5806 60.5207 95.581H147.593C147.875 95.5812 148.152 95.5111 148.401 95.3769C148.649 95.2428 148.86 95.0488 149.015 94.8126C149.169 94.5763 149.263 94.3052 149.286 94.0238C149.31 93.7424 149.263 93.4595 149.15 93.2007V93.1999Z" fill="#A6E0ED"/>
</g>
<g opacity="0.3">
<path opacity="0.3" d="M106.051 64.4444L91.7046 95.5771H76.028L90.1967 64.8293C96.5298 64.596 103.397 64.4063 104.047 64.3884H104.069L106.051 64.4444Z" fill="white"/>
</g>
<g opacity="0.3">
<path opacity="0.3" d="M128.233 65.3254L114.293 95.5748H106.002L120.134 64.9094C123.794 65.0501 126.978 65.201 128.233 65.3254Z" fill="white"/>
</g>
<path d="M70.9332 69.1925C73.3229 66.7282 76.1461 66.2212 79.6218 65.8588C83.0976 65.4965 103.831 64.9171 103.831 64.9171V62.6885C95.8485 62.6107 82.083 63.5034 76.8732 63.9109C71.6635 64.3184 70.1144 66.194 70.1144 66.194C64.0058 72.2275 57.0007 91.8756 55.6978 94.1587C55.2373 94.9786 54.687 95.7446 54.0571 96.4426C53.0118 97.5767 52.0415 98.7778 51.1523 100.038C47.4124 105.375 45.8928 108.448 45.4702 110.913C44.9815 113.766 46.0808 129.379 46.0808 129.379H103.83V94.63L60.2806 95.0468C60.0852 95.0498 59.8922 95.0035 59.7193 94.9123C59.5464 94.821 59.3992 94.6877 59.2913 94.5246C59.1834 94.3615 59.1182 94.1739 59.1017 93.9789C59.0852 93.784 59.1179 93.588 59.1969 93.4091C61.5407 88.028 68.932 71.2571 70.9332 69.1925Z" fill="#FF424D"/>
<g style="mix-blend-mode:multiply" opacity="0.5">
<g style="mix-blend-mode:multiply" opacity="0.5">
<path d="M48.775 118.144C48.775 118.144 48.3167 122.046 49.67 123.354C51.0233 124.662 77.4046 123.716 77.4046 123.716C77.4046 123.716 77.4823 122.388 77.4046 121.397C77.3269 120.406 48.775 118.144 48.775 118.144Z" fill="#F4BD45"/>
</g>
</g>
<path d="M58.0852 97.1253L56.3636 99.3672L51.6782 95.7661H41.9183C41.7391 95.7569 41.5703 95.6791 41.4468 95.5488C41.3233 95.4186 41.2546 95.2458 41.2548 95.0662V89.8958C41.2548 89.4421 41.4349 89.007 41.7554 88.6861C42.076 88.3653 42.5107 88.1851 42.964 88.1851H52.7395C53.1928 88.1851 53.6275 88.3653 53.948 88.6861C54.2685 89.007 54.4486 89.4421 54.4486 89.8958V94.3282L58.0852 97.1253Z" fill="#FF424D"/>
<path d="M103.831 111.056V124.971H84.3033C82.128 124.971 80.9247 123.521 80.394 122.159L77.8599 113.683C77.8599 112.987 78.1364 112.318 78.6285 111.826C79.1207 111.333 79.7882 111.056 80.4842 111.056H103.831Z" fill="#49263E"/>
<path d="M52.0364 110.074V121.76C51.5473 121.656 51.0639 121.526 50.5883 121.372C47.9648 120.494 48.0339 111.474 49.6995 110.437C50.0421 110.224 50.8726 110.108 52.0364 110.074Z" fill="#FCAE30"/>
<path d="M77.3766 122.241C77.3766 122.241 59.9442 123.515 52.0364 121.763V110.074C56.5485 109.957 66.056 111.137 71.4234 113.097C78.1768 115.564 77.3766 122.241 77.3766 122.241Z" fill="white"/>
<path d="M52.1172 121.882C51.6237 121.776 51.1362 121.644 50.6566 121.487C49.6381 121.147 48.8939 119.587 48.6165 117.21C48.298 114.488 48.6826 110.989 49.7422 110.336C50.0942 110.117 50.9006 109.99 52.1405 109.958C54.4509 109.899 57.9616 110.173 61.5337 110.692C65.5518 111.276 69.1176 112.092 71.5726 112.988L71.4887 113.221C65.9961 111.217 56.3644 110.098 52.1444 110.206C50.6551 110.245 50.0849 110.413 49.8689 110.546C48.9964 111.091 48.514 114.252 48.8589 117.185C49.1254 119.466 49.8091 120.952 50.7335 121.261C51.2054 121.415 51.6848 121.545 52.17 121.65L52.1172 121.882Z" fill="black"/>
<g style="mix-blend-mode:multiply">
<g style="mix-blend-mode:multiply">
<path d="M103.831 111.78V124.247H84.7422C82.8 124.247 81.7124 122.949 81.2393 121.728L78.9685 114.133C78.9685 113.509 79.2162 112.91 79.6572 112.469C80.0983 112.028 80.6964 111.78 81.3201 111.78H103.831Z" fill="#49263E"/>
</g>
</g>
<path d="M103.83 113.518H78.7766V114.17H103.83V113.518Z" fill="#49263E"/>
<path d="M103.83 115.668H78.7766V116.32H103.83V115.668Z" fill="#49263E"/>
<path d="M103.83 117.818V118.469H79.2901L79.0951 117.818H103.83Z" fill="#49263E"/>
<path d="M103.83 119.967V120.62H79.9334L79.7376 119.967H103.83Z" fill="#49263E"/>
<path d="M103.83 122.117V122.77H80.6792C80.5716 122.573 80.4766 122.369 80.3948 122.16L80.3824 122.117H103.83Z" fill="#49263E"/>
<path d="M136.676 69.1925C134.287 66.7282 131.463 66.2212 127.988 65.8588C124.513 65.4965 103.779 64.9171 103.779 64.9171V62.6885C111.761 62.6107 125.526 63.5034 130.737 63.9109C135.947 64.3184 137.495 66.194 137.495 66.194C143.604 72.2275 150.609 91.8756 151.912 94.1587C152.373 94.9786 152.923 95.7446 153.553 96.4426C154.598 97.5767 155.568 98.7778 156.458 100.038C160.196 105.375 161.712 108.448 162.134 110.913C162.623 113.766 161.524 129.379 161.524 129.379H103.779V94.63L147.328 95.0468C147.523 95.0504 147.717 95.0046 147.89 94.9137C148.064 94.8227 148.211 94.6895 148.32 94.5263C148.428 94.3631 148.494 94.1752 148.51 93.9799C148.527 93.7847 148.494 93.5883 148.415 93.4091C146.069 88.028 138.679 71.2571 136.676 69.1925Z" fill="#FF424D"/>
<g style="mix-blend-mode:multiply" opacity="0.5">
<g style="mix-blend-mode:multiply" opacity="0.5">
<path d="M158.834 118.144C158.834 118.144 159.292 122.046 157.94 123.354C156.587 124.662 130.205 123.716 130.205 123.716C130.205 123.716 130.128 122.388 130.205 121.397C130.283 120.406 158.834 118.144 158.834 118.144Z" fill="#F4BD45"/>
</g>
</g>
<path d="M149.525 97.1253L151.246 99.3672L155.932 95.7622H165.691C165.87 95.7532 166.039 95.6755 166.163 95.5452C166.286 95.4149 166.355 95.242 166.355 95.0623V89.8919C166.355 89.4382 166.175 89.0031 165.854 88.6822C165.534 88.3614 165.099 88.1812 164.646 88.1812H154.87C154.417 88.1812 153.982 88.3614 153.662 88.6822C153.341 89.0031 153.161 89.4382 153.161 89.8919V94.3243L149.525 97.1253Z" fill="#FF424D"/>
<path d="M103.697 111.056V124.971H123.225C125.4 124.971 126.604 123.521 127.134 122.159L129.668 113.683C129.668 112.987 129.392 112.318 128.9 111.826C128.408 111.333 127.74 111.056 127.044 111.056H103.697Z" fill="#49263E"/>
<path d="M155.573 110.074V121.76C156.063 121.656 156.546 121.526 157.022 121.372C159.645 120.496 159.578 111.471 157.91 110.437C157.568 110.224 156.737 110.108 155.573 110.074Z" fill="#FCAE30"/>
<path d="M130.232 122.241C130.232 122.241 147.666 123.515 155.573 121.763V110.074C151.061 109.957 141.554 111.137 136.186 113.097C129.435 115.564 130.232 122.241 130.232 122.241Z" fill="white"/>
<g style="mix-blend-mode:multiply">
<g style="mix-blend-mode:multiply">
<path d="M103.697 111.78V124.247H122.786C124.728 124.247 125.816 122.949 126.289 121.728L128.56 114.133C128.56 113.509 128.312 112.91 127.871 112.469C127.43 112.028 126.832 111.78 126.208 111.78H103.697Z" fill="#49263E"/>
</g>
</g>
<path d="M103.697 114.17H128.751V113.517H103.697V114.17Z" fill="#49263E"/>
<path d="M103.697 116.32H128.751V115.668H103.697V116.32Z" fill="#49263E"/>
<path d="M103.697 117.818V118.469H128.237L128.432 117.818H103.697Z" fill="#49263E"/>
<path d="M103.405 119.967V120.62H127.203L127.394 119.967H103.405Z" fill="#49263E"/>
<path d="M103.698 122.117V122.77H126.849C126.957 122.573 127.052 122.369 127.133 122.16L127.146 122.117H103.698Z" fill="#49263E"/>
<path d="M103.634 64.3923H104.058C104.058 64.3923 103.737 65.1854 103.737 65.1435C103.737 65.1015 103.634 64.3923 103.634 64.3923Z" fill="#49263E"/>
<path d="M45.9596 129.388C45.9146 128.75 44.865 113.728 45.3506 110.892C45.7996 108.268 47.4481 105.103 51.0474 99.9683C51.94 98.7038 52.9137 97.4985 53.9623 96.3602C54.5857 95.6686 55.1305 94.91 55.5867 94.0981C55.8975 93.5584 56.5283 92.0288 57.4054 89.9122C60.1843 83.2044 65.3568 70.7205 70.0204 66.1108C70.1322 65.9794 71.7404 64.1901 76.8569 63.7896L76.8763 64.033C71.7901 64.4311 70.2154 66.2539 70.1998 66.2725L70.1921 66.2811C65.5626 70.8527 60.4034 83.311 57.6276 90.0063C56.7513 92.1307 56.1135 93.6665 55.8027 94.2194C55.3375 95.0471 54.782 95.8207 54.1464 96.5258C53.1047 97.6562 52.1376 98.8532 51.251 100.109C47.6773 105.211 46.0381 108.347 45.5953 110.934C45.1144 113.74 46.1966 129.215 46.2075 129.371L45.9596 129.388Z" fill="black"/>
<path d="M82.4302 98.721L80.537 104.709C80.3958 105.155 80.3618 105.628 80.4375 106.09C80.5133 106.552 80.6967 106.99 80.973 107.367C81.2493 107.745 81.6106 108.052 82.0277 108.264C82.4447 108.475 82.9057 108.586 83.3734 108.586H123.745C124.248 108.586 124.744 108.458 125.184 108.214C125.625 107.97 125.997 107.618 126.264 107.191C126.532 106.764 126.687 106.276 126.715 105.773C126.743 105.27 126.643 104.768 126.424 104.314L123.54 98.326C123.296 97.8215 122.916 97.3959 122.442 97.0981C121.968 96.8003 121.42 96.6424 120.86 96.6425H85.2666C84.6346 96.6423 84.0189 96.8438 83.5089 97.2175C82.9989 97.5912 82.6211 98.1179 82.4302 98.721V98.721Z" fill="#FF424D"/>
<path d="M60.7747 99.0079L57.0372 104.82C55.8377 106.686 55.5393 108.586 56.4467 108.586H74.6436C75.6318 108.586 77.3867 106.357 77.9065 104.436L79.4913 98.6238C79.764 97.6238 79.6094 96.9908 79.0951 96.9908H63.0572C62.4722 96.9885 61.5516 97.8057 60.7747 99.0079Z" fill="#FF424D"/>
<path d="M146.034 99.0079L149.773 104.82C150.972 106.686 151.27 108.586 150.363 108.586H132.17C131.181 108.586 129.426 106.357 128.907 104.436L127.322 98.6238C127.05 97.6238 127.203 96.9908 127.718 96.9908H143.762C144.338 96.9885 145.261 97.8057 146.034 99.0079Z" fill="#FF424D"/>
<path d="M77.3671 122.121L66.6036 122.556L66.6135 122.801L77.3769 122.366L77.3671 122.121Z" fill="black"/>
<path d="M155.424 121.882L155.372 121.644C155.857 121.539 156.336 121.409 156.808 121.255C157.732 120.944 158.416 119.46 158.683 117.179C159.025 114.245 158.543 111.081 157.673 110.54C157.456 110.406 156.886 110.238 155.396 110.199C151.181 110.092 141.548 111.21 136.052 113.215L135.969 112.982C138.424 112.086 141.989 111.271 146.007 110.686C149.581 110.166 153.09 109.892 155.401 109.952C156.64 109.984 157.447 110.108 157.798 110.329C158.859 110.986 159.243 114.48 158.925 117.204C158.647 119.584 157.903 121.144 156.884 121.48C156.405 121.64 155.918 121.774 155.424 121.882Z" fill="black"/>
<path d="M130.173 122.122L130.163 122.366L140.927 122.801L140.937 122.556L130.173 122.122Z" fill="black"/>
<path d="M108.872 125.093H84.5208C81.0878 125.093 80.2705 122.179 80.2627 122.149L77.7425 113.718L77.9756 113.648L80.4958 122.082C80.5276 122.199 81.2781 124.848 84.5193 124.848H108.871L108.872 125.093Z" fill="black"/>
<path d="M127.161 122.354L126.928 122.283L129.546 113.669C129.371 111.481 127.426 111.207 127.28 111.19L125.649 111.178H98.5186V110.934H125.644L127.3 110.946C127.322 110.946 129.608 111.221 129.786 113.674V113.697L129.779 113.719L127.161 122.354Z" fill="black"/>
<path d="M90.2042 98.7405L84.8458 101.566L84.9598 101.783L90.3183 98.9572L90.2042 98.7405Z" fill="black"/>
<path d="M93.4714 98.7184L88.1134 101.545L88.2275 101.762L93.5855 98.9351L93.4714 98.7184Z" fill="black"/>
<path d="M147.323 95.4542H60.2868V95.6992H147.323V95.4542Z" fill="black"/>
<path d="M144.539 94.4021H63.0696V94.6471H144.539V94.4021Z" fill="black"/>
<path d="M54.5721 94.3275H54.3266V89.8951C54.3266 89.4285 54.1868 89.0537 53.9102 88.7862C53.3967 88.2862 52.5716 88.3049 52.5639 88.3049H42.9655V88.0607H52.5616C52.5957 88.0607 53.4938 88.0373 54.0811 88.6089C54.4066 88.9254 54.5721 89.3577 54.5721 89.8951V94.3275Z" fill="black"/>
<path d="M50.3894 95.6393H42.5157V95.8843H50.3894V95.6393Z" fill="black"/>
<path d="M44.069 89.09L42.4398 90.3216L42.5873 90.5171L44.2165 89.2855L44.069 89.09Z" fill="black"/>
<path d="M45.2695 89.2556L43.6403 90.4871L43.7878 90.6826L45.417 89.451L45.2695 89.2556Z" fill="black"/>
<path d="M161.51 129.388L161.266 129.371C161.278 129.215 162.36 113.741 161.879 110.934C161.437 108.347 159.797 105.211 156.223 100.109C155.337 98.853 154.369 97.6561 153.328 96.5258C152.692 95.8207 152.136 95.0471 151.671 94.2194C151.356 93.6665 150.72 92.1307 149.839 90.0063C147.066 83.3125 141.904 70.8527 137.275 66.2811L137.266 66.2718C137.251 66.2539 135.676 64.4311 130.591 64.033L130.609 63.7896C135.73 64.1901 137.339 65.9794 137.45 66.1108C142.112 70.7205 147.286 83.2044 150.065 89.9122C150.942 92.0288 151.576 93.5584 151.883 94.0981C152.34 94.91 152.884 95.6686 153.508 96.3602C154.556 97.4987 155.53 98.7039 156.423 99.9683C160.02 105.101 161.67 108.268 162.12 110.892C162.606 113.729 161.555 128.75 161.51 129.388Z" fill="black"/>
<path d="M153.146 94.3275H152.901V89.895C152.901 89.3577 153.066 88.9253 153.393 88.6088C153.982 88.0381 154.877 88.0591 154.915 88.0606H164.508V88.3009H154.908C154.897 88.3009 154.072 88.2822 153.558 88.7823C153.282 89.0498 153.143 89.423 153.143 89.8911L153.146 94.3275Z" fill="black"/>
<path d="M164.954 95.6393H157.081V95.8843H164.954V95.6393Z" fill="black"/>
<path d="M163.396 89.0783L163.249 89.2737L164.878 90.5056L165.025 90.3101L163.396 89.0783Z" fill="black"/>
<path d="M162.194 89.2386L162.046 89.434L163.675 90.6659L163.823 90.4704L162.194 89.2386Z" fill="black"/>
<g style="mix-blend-mode:multiply">
<g style="mix-blend-mode:multiply">
<path d="M52.1436 115.535C51.6545 115.431 51.1712 115.301 50.6955 115.147C49.8339 114.859 49.2629 113.694 48.9428 112.222C48.2437 115.17 48.6554 120.776 50.6955 121.455C51.1711 121.61 51.6544 121.74 52.1436 121.844C60.0507 123.595 77.4838 122.322 77.4838 122.322C77.4838 122.322 77.8847 118.959 75.7048 116.126C71.0645 116.394 58.5132 116.946 52.1436 115.535Z" fill="#E8F9F9"/>
</g>
</g>
<g style="mix-blend-mode:multiply">
<g style="mix-blend-mode:multiply">
<path d="M155.466 115.535C155.955 115.431 156.439 115.301 156.914 115.147C157.775 114.859 158.347 113.694 158.666 112.222C159.365 115.17 158.954 120.776 156.914 121.455C156.439 121.61 155.955 121.74 155.466 121.844C147.559 123.595 130.126 122.322 130.126 122.322C130.126 122.322 129.724 118.959 131.905 116.126C136.545 116.394 149.097 116.946 155.466 115.535Z" fill="#E8F9F9"/>
</g>
</g>
<path d="M148.897 93.1999C146.008 86.5629 139.07 70.9025 137.056 68.8254C134.511 66.2002 131.468 65.6916 128.044 65.3339C124.619 64.9762 104.94 64.4195 103.814 64.3876H103.791C102.668 64.4195 82.9942 64.9739 79.5643 65.3316C76.1344 65.6893 73.0968 66.1979 70.5525 68.8231C68.5435 70.9001 61.6021 86.5606 58.7121 93.1999C58.5997 93.4588 58.5535 93.7415 58.5774 94.0227C58.6014 94.304 58.6949 94.5748 58.8495 94.8108C59.0041 95.0468 59.2149 95.2407 59.463 95.3749C59.711 95.509 59.9886 95.5793 60.2705 95.5794H147.339C147.621 95.5788 147.898 95.508 148.146 95.3736C148.393 95.2391 148.603 95.0452 148.757 94.8092C148.912 94.5732 149.005 94.3026 149.028 94.0217C149.052 93.7408 149.005 93.4584 148.893 93.1999H148.897ZM147.874 94.2326C147.816 94.3215 147.737 94.3943 147.644 94.4445C147.55 94.4946 147.446 94.5204 147.34 94.5195H147.333L103.805 94.6315L60.2767 94.5195H60.2697C60.1635 94.5195 60.059 94.493 59.9656 94.4424C59.8721 94.3918 59.7928 94.3187 59.7346 94.2298C59.6764 94.1408 59.6412 94.0388 59.6322 93.9329C59.6233 93.8269 59.6408 93.7204 59.6832 93.6229C64.2917 83.038 69.7671 71.1583 71.3131 69.5642C73.615 67.1901 76.3457 66.736 79.6762 66.3884C83.0168 66.04 102.777 65.4794 103.805 65.4498C104.832 65.4794 124.59 66.04 127.933 66.3884C131.264 66.736 133.993 67.1901 136.296 69.5642C137.843 71.1583 143.318 83.038 147.927 93.6229C147.97 93.7204 147.988 93.8272 147.978 93.9334C147.969 94.0396 147.933 94.1417 147.874 94.2303V94.2326Z" fill="#49263E"/>
<path d="M88.3407 63.2904L88.3229 63.0462C88.4596 63.0361 102.101 62.0625 115.467 62.8549L115.452 63.0991C102.105 62.3074 88.4767 63.2803 88.3407 63.2904Z" fill="black"/>
<g opacity="0.7">
<path opacity="0.7" d="M63.9599 14.2553C65.9798 14.2094 70.7087 14.1713 74.8028 14.6589C75.2033 14.7074 75.6095 14.6712 75.9951 14.5527C76.3807 14.4341 76.7372 14.2359 77.0415 13.9708C77.3457 13.7057 77.591 13.3796 77.7614 13.0136C77.9318 12.6476 78.0236 12.2499 78.0308 11.8462C78.0386 11.1464 77.8164 10.3268 77.2011 9.38351C74.83 5.75359 70.3801 8.98926 70.3599 10.7894C70.3599 10.7894 69.5768 8.04989 66.8997 8.43248C64.2225 8.81507 65.0282 12.7871 65.0282 12.7871C65.0282 12.7871 64.1736 12.5756 63.5661 12.9621C62.9585 13.3486 63.2514 14.2716 63.9599 14.2553Z" fill="white"/>
</g>
<g opacity="0.7">
<path opacity="0.7" d="M182.812 53.9201C177.878 53.5312 165.842 52.7466 158.573 53.7544C157.523 53.8998 156.839 52.6658 157.535 51.8609C158.037 51.2839 158.923 50.8034 160.476 50.7497C160.476 50.7497 159.108 43.9953 165.627 43.4245C172.328 42.8382 172.349 49.9285 172.349 49.9285C172.349 49.9285 176.299 46.2496 178.15 50.8702C178.15 50.8702 182.302 49.1004 184.154 51.3664C185.029 52.434 184.185 54.0289 182.812 53.9201Z" fill="white"/>
</g>
<g opacity="0.7">
<path opacity="0.7" d="M26.4141 37.7409C30.2915 37.4299 39.7539 36.8187 45.4663 37.6103C46.2921 37.7246 46.829 36.7549 46.282 36.1219C45.8874 35.6686 45.1905 35.2906 43.9708 35.2487C43.9708 35.2487 45.046 29.9391 39.921 29.4943C34.6537 29.0331 34.6382 34.6063 34.6382 34.6063C34.6382 34.6063 31.5307 31.7144 30.0779 35.3466C30.0779 35.3466 26.815 33.9555 25.3583 35.7354C24.6708 36.5722 25.3343 37.8265 26.4141 37.7409Z" fill="white"/>
</g>
<path d="M197.65 129.15H4.75704V130H197.65V129.15Z" fill="#49263E"/>
</svg>
