<svg width="755" height="373" viewBox="0 0 755 373" fill="none" xmlns="http://www.w3.org/2000/svg">
<path opacity="0.2" d="M730.425 131.044C714.345 79.637 643.911 10.0223 537.271 1.55066C430.63 -6.92101 382.916 20.5608 352.982 60.3874C323.048 100.214 294.743 114.853 237.921 113.3C191.12 112.022 108.84 58.9158 34.0077 159.132C-0.044126 204.736 -7.37246 257.979 6.89631 312.401C14.9354 343.089 27.8384 365.64 31.2552 370.963H726.876C727.078 370.963 730.439 356.443 734.018 333.613C743.614 272.407 748.959 190.292 730.425 131.044Z" fill="#6AA2E5"/>
<g opacity="0.5">
<path opacity="0.5" d="M265.149 145.671V126.924H254.936V100.572H210.448V126.924H200.234V145.671H187.893V371.958H277.49V145.671H265.149Z" fill="#488ACC"/>
<path opacity="0.5" d="M361.223 106.154H295.208V370.438H361.223V106.154Z" fill="#488ACC"/>
<path opacity="0.5" d="M610.798 123.234V371.961H544.782V141.817H544.95C546.617 141.837 548.278 141.612 549.881 141.15C552.19 140.48 554.329 139.323 556.152 137.755C556.433 137.523 556.705 137.267 556.972 137.007C558.567 135.457 559.84 133.607 560.717 131.563C561.594 129.519 562.058 127.321 562.082 125.097C562.092 124.476 562.066 123.855 562.006 123.237L610.798 123.234Z" fill="#488ACC"/>
<path opacity="0.5" d="M422.946 102.29H346.731V371.961H422.946V102.29Z" fill="#6AA2E5"/>
<path opacity="0.5" d="M315.62 198.984V184.654H307.813V164.509H273.808V184.654H265.999V198.984H256.566V371.958H325.053V198.984H315.62Z" fill="#6AA2E5"/>
<path opacity="0.5" d="M520.591 164.572V147.392H509.455V123.239H460.954V147.392H449.818V164.572H436.362V371.958H534.047V164.572H520.591Z" fill="#488ACC"/>
<path opacity="0.5" d="M204.346 229.344V217.529H195.777V200.921L177.116 180.181L158.457 200.921V217.529H149.888V229.344H139.533V371.958H214.701V229.344H204.346Z" fill="#CAE3FF"/>
<path opacity="0.5" d="M570.005 196.834H490.427V371.958H570.005V196.834Z" fill="#6AA2E5"/>
<g opacity="0.5">
<path opacity="0.5" d="M155.319 239.594H149.521V248.733H155.319V239.594Z" fill="#6AA2E5"/>
</g>
<g opacity="0.5">
<path opacity="0.5" d="M167.932 239.594H162.134V248.733H167.932V239.594Z" fill="#6AA2E5"/>
</g>
<g opacity="0.5">
<path opacity="0.5" d="M180.544 239.594H174.747V248.733H180.544V239.594Z" fill="#6AA2E5"/>
</g>
<g opacity="0.5">
<path opacity="0.5" d="M193.157 239.594H187.359V248.733H193.157V239.594Z" fill="#6AA2E5"/>
</g>
<g opacity="0.5">
<path opacity="0.5" d="M205.77 239.594H199.972V248.733H205.77V239.594Z" fill="#6AA2E5"/>
</g>
<g opacity="0.5">
<path opacity="0.5" d="M155.319 255.71H149.521V264.849H155.319V255.71Z" fill="#6AA2E5"/>
</g>
<g opacity="0.5">
<path opacity="0.5" d="M167.932 255.71H162.134V264.849H167.932V255.71Z" fill="#6AA2E5"/>
</g>
<g opacity="0.5">
<path opacity="0.5" d="M180.544 255.71H174.747V264.849H180.544V255.71Z" fill="#6AA2E5"/>
</g>
<g opacity="0.5">
<path opacity="0.5" d="M193.157 255.71H187.359V264.849H193.157V255.71Z" fill="#6AA2E5"/>
</g>
<g opacity="0.5">
<path opacity="0.5" d="M205.77 255.71H199.972V264.849H205.77V255.71Z" fill="#6AA2E5"/>
</g>
<g opacity="0.5">
<path opacity="0.5" d="M155.319 271.826H149.521V280.965H155.319V271.826Z" fill="#6AA2E5"/>
</g>
<g opacity="0.5">
<path opacity="0.5" d="M167.932 271.826H162.134V280.965H167.932V271.826Z" fill="#6AA2E5"/>
</g>
<g opacity="0.5">
<path opacity="0.5" d="M180.544 271.826H174.747V280.965H180.544V271.826Z" fill="#6AA2E5"/>
</g>
<g opacity="0.5">
<path opacity="0.5" d="M193.157 271.826H187.359V280.965H193.157V271.826Z" fill="#6AA2E5"/>
</g>
<g opacity="0.5">
<path opacity="0.5" d="M205.77 271.826H199.972V280.965H205.77V271.826Z" fill="#6AA2E5"/>
</g>
<g opacity="0.5">
<path opacity="0.5" d="M155.319 287.942H149.521V297.08H155.319V287.942Z" fill="#6AA2E5"/>
</g>
<g opacity="0.5">
<path opacity="0.5" d="M167.932 287.942H162.134V297.08H167.932V287.942Z" fill="#6AA2E5"/>
</g>
<g opacity="0.5">
<path opacity="0.5" d="M180.544 287.942H174.747V297.08H180.544V287.942Z" fill="#6AA2E5"/>
</g>
<g opacity="0.5">
<path opacity="0.5" d="M193.157 287.942H187.359V297.08H193.157V287.942Z" fill="#6AA2E5"/>
</g>
<g opacity="0.5">
<path opacity="0.5" d="M205.77 287.942H199.972V297.08H205.77V287.942Z" fill="#6AA2E5"/>
</g>
<g opacity="0.5">
<path opacity="0.5" d="M155.319 304.057H149.521V313.196H155.319V304.057Z" fill="#6AA2E5"/>
</g>
<g opacity="0.5">
<path opacity="0.5" d="M167.932 304.057H162.134V313.196H167.932V304.057Z" fill="#6AA2E5"/>
</g>
<g opacity="0.5">
<path opacity="0.5" d="M180.544 304.057H174.747V313.196H180.544V304.057Z" fill="#6AA2E5"/>
</g>
<g opacity="0.5">
<path opacity="0.5" d="M193.157 304.057H187.359V313.196H193.157V304.057Z" fill="#6AA2E5"/>
</g>
<g opacity="0.5">
<path opacity="0.5" d="M205.77 304.057H199.972V313.196H205.77V304.057Z" fill="#6AA2E5"/>
</g>
<g opacity="0.5">
<path opacity="0.5" d="M155.319 321.21H149.521V330.349H155.319V321.21Z" fill="#6AA2E5"/>
</g>
<g opacity="0.5">
<path opacity="0.5" d="M167.932 321.21H162.134V330.349H167.932V321.21Z" fill="#6AA2E5"/>
</g>
<g opacity="0.5">
<path opacity="0.5" d="M180.544 321.21H174.747V330.349H180.544V321.21Z" fill="#6AA2E5"/>
</g>
<g opacity="0.5">
<path opacity="0.5" d="M193.157 321.21H187.359V330.349H193.157V321.21Z" fill="#6AA2E5"/>
</g>
<g opacity="0.5">
<path opacity="0.5" d="M205.77 321.21H199.972V330.349H205.77V321.21Z" fill="#6AA2E5"/>
</g>
<g opacity="0.5">
<path opacity="0.5" d="M155.319 338.362H149.521V347.501H155.319V338.362Z" fill="#6AA2E5"/>
</g>
<g opacity="0.5">
<path opacity="0.5" d="M167.932 338.362H162.134V347.501H167.932V338.362Z" fill="#6AA2E5"/>
</g>
<g opacity="0.5">
<path opacity="0.5" d="M180.544 338.362H174.747V347.501H180.544V338.362Z" fill="#6AA2E5"/>
</g>
<g opacity="0.5">
<path opacity="0.5" d="M193.157 338.362H187.359V347.501H193.157V338.362Z" fill="#6AA2E5"/>
</g>
<g opacity="0.5">
<path opacity="0.5" d="M205.77 338.362H199.972V347.501H205.77V338.362Z" fill="#6AA2E5"/>
</g>
<g opacity="0.5">
<path opacity="0.5" d="M155.319 355.515H149.521V364.654H155.319V355.515Z" fill="#6AA2E5"/>
</g>
<g opacity="0.5">
<path opacity="0.5" d="M167.932 355.515H162.134V364.654H167.932V355.515Z" fill="#6AA2E5"/>
</g>
<g opacity="0.5">
<path opacity="0.5" d="M180.544 355.515H174.747V364.654H180.544V355.515Z" fill="#6AA2E5"/>
</g>
<g opacity="0.5">
<path opacity="0.5" d="M193.157 355.515H187.359V364.654H193.157V355.515Z" fill="#6AA2E5"/>
</g>
<g opacity="0.5">
<path opacity="0.5" d="M205.77 355.515H199.972V364.654H205.77V355.515Z" fill="#6AA2E5"/>
</g>
<g style="mix-blend-mode:multiply" opacity="0.3">
<g style="mix-blend-mode:multiply" opacity="0.3">
<path d="M563.03 204.087H495.403V209.593H563.03V204.087Z" fill="#6AA2E5"/>
</g>
</g>
<g style="mix-blend-mode:multiply" opacity="0.3">
<g style="mix-blend-mode:multiply" opacity="0.3">
<path d="M563.03 218.734H495.403V224.239H563.03V218.734Z" fill="#6AA2E5"/>
</g>
</g>
<g style="mix-blend-mode:multiply" opacity="0.3">
<g style="mix-blend-mode:multiply" opacity="0.3">
<path d="M563.03 233.38H495.403V238.885H563.03V233.38Z" fill="#6AA2E5"/>
</g>
</g>
<g style="mix-blend-mode:multiply" opacity="0.3">
<g style="mix-blend-mode:multiply" opacity="0.3">
<path d="M563.03 248.027H495.403V253.532H563.03V248.027Z" fill="#6AA2E5"/>
</g>
</g>
<g style="mix-blend-mode:multiply" opacity="0.3">
<g style="mix-blend-mode:multiply" opacity="0.3">
<path d="M563.03 262.671H495.403V268.176H563.03V262.671Z" fill="#6AA2E5"/>
</g>
</g>
<g style="mix-blend-mode:multiply" opacity="0.3">
<g style="mix-blend-mode:multiply" opacity="0.3">
<path d="M563.03 277.317H495.403V282.822H563.03V277.317Z" fill="#6AA2E5"/>
</g>
</g>
<g style="mix-blend-mode:multiply" opacity="0.3">
<g style="mix-blend-mode:multiply" opacity="0.3">
<path d="M563.03 291.964H495.403V297.469H563.03V291.964Z" fill="#6AA2E5"/>
</g>
</g>
<g style="mix-blend-mode:multiply" opacity="0.3">
<g style="mix-blend-mode:multiply" opacity="0.3">
<path d="M563.03 306.61H495.403V312.115H563.03V306.61Z" fill="#6AA2E5"/>
</g>
</g>
<g style="mix-blend-mode:multiply" opacity="0.3">
<g style="mix-blend-mode:multiply" opacity="0.3">
<path d="M563.03 321.256H495.403V326.762H563.03V321.256Z" fill="#6AA2E5"/>
</g>
</g>
<g style="mix-blend-mode:multiply" opacity="0.3">
<g style="mix-blend-mode:multiply" opacity="0.3">
<path d="M563.03 335.903H495.403V341.408H563.03V335.903Z" fill="#6AA2E5"/>
</g>
</g>
<g style="mix-blend-mode:multiply" opacity="0.3">
<g style="mix-blend-mode:multiply" opacity="0.3">
<path d="M563.03 350.549H495.403V356.054H563.03V350.549Z" fill="#6AA2E5"/>
</g>
</g>
<g style="mix-blend-mode:multiply" opacity="0.3">
<g style="mix-blend-mode:multiply" opacity="0.3">
<path d="M563.03 365.196H495.403V370.701H563.03V365.196Z" fill="#6AA2E5"/>
</g>
</g>
<g style="mix-blend-mode:multiply" opacity="0.3">
<g style="mix-blend-mode:multiply" opacity="0.3">
<path d="M276.191 207.31H265.444V216.448H276.191V207.31Z" fill="#6AA2E5"/>
</g>
</g>
<g style="mix-blend-mode:multiply" opacity="0.3">
<g style="mix-blend-mode:multiply" opacity="0.3">
<path d="M296.183 207.31H285.436V216.448H296.183V207.31Z" fill="#6AA2E5"/>
</g>
</g>
<g style="mix-blend-mode:multiply" opacity="0.3">
<g style="mix-blend-mode:multiply" opacity="0.3">
<path d="M316.175 207.31H305.428V216.448H316.175V207.31Z" fill="#6AA2E5"/>
</g>
</g>
<g style="mix-blend-mode:multiply" opacity="0.3">
<g style="mix-blend-mode:multiply" opacity="0.3">
<path d="M276.191 224.239H265.444V233.378H276.191V224.239Z" fill="#6AA2E5"/>
</g>
</g>
<g style="mix-blend-mode:multiply" opacity="0.3">
<g style="mix-blend-mode:multiply" opacity="0.3">
<path d="M296.183 224.239H285.436V233.378H296.183V224.239Z" fill="#6AA2E5"/>
</g>
</g>
<g style="mix-blend-mode:multiply" opacity="0.3">
<g style="mix-blend-mode:multiply" opacity="0.3">
<path d="M316.175 224.239H305.428V233.378H316.175V224.239Z" fill="#6AA2E5"/>
</g>
</g>
<g style="mix-blend-mode:multiply" opacity="0.3">
<g style="mix-blend-mode:multiply" opacity="0.3">
<path d="M276.191 241.168H265.444V250.307H276.191V241.168Z" fill="#6AA2E5"/>
</g>
</g>
<g style="mix-blend-mode:multiply" opacity="0.3">
<g style="mix-blend-mode:multiply" opacity="0.3">
<path d="M296.183 241.168H285.436V250.307H296.183V241.168Z" fill="#6AA2E5"/>
</g>
</g>
<g style="mix-blend-mode:multiply" opacity="0.3">
<g style="mix-blend-mode:multiply" opacity="0.3">
<path d="M316.175 241.168H305.428V250.307H316.175V241.168Z" fill="#6AA2E5"/>
</g>
</g>
<g style="mix-blend-mode:multiply" opacity="0.3">
<g style="mix-blend-mode:multiply" opacity="0.3">
<path d="M276.191 258.098H265.444V267.237H276.191V258.098Z" fill="#6AA2E5"/>
</g>
</g>
<g style="mix-blend-mode:multiply" opacity="0.3">
<g style="mix-blend-mode:multiply" opacity="0.3">
<path d="M296.183 258.098H285.436V267.237H296.183V258.098Z" fill="#6AA2E5"/>
</g>
</g>
<g style="mix-blend-mode:multiply" opacity="0.3">
<g style="mix-blend-mode:multiply" opacity="0.3">
<path d="M316.175 258.098H305.428V267.237H316.175V258.098Z" fill="#6AA2E5"/>
</g>
</g>
<g style="mix-blend-mode:multiply" opacity="0.3">
<g style="mix-blend-mode:multiply" opacity="0.3">
<path d="M276.191 275.027H265.444V284.166H276.191V275.027Z" fill="#6AA2E5"/>
</g>
</g>
<g style="mix-blend-mode:multiply" opacity="0.3">
<g style="mix-blend-mode:multiply" opacity="0.3">
<path d="M296.183 275.027H285.436V284.166H296.183V275.027Z" fill="#6AA2E5"/>
</g>
</g>
<g style="mix-blend-mode:multiply" opacity="0.3">
<g style="mix-blend-mode:multiply" opacity="0.3">
<path d="M316.175 275.027H305.428V284.166H316.175V275.027Z" fill="#6AA2E5"/>
</g>
</g>
<g style="mix-blend-mode:multiply" opacity="0.3">
<g style="mix-blend-mode:multiply" opacity="0.3">
<path d="M276.191 291.956H265.444V301.095H276.191V291.956Z" fill="#6AA2E5"/>
</g>
</g>
<g style="mix-blend-mode:multiply" opacity="0.3">
<g style="mix-blend-mode:multiply" opacity="0.3">
<path d="M296.183 291.956H285.436V301.095H296.183V291.956Z" fill="#6AA2E5"/>
</g>
</g>
<g style="mix-blend-mode:multiply" opacity="0.3">
<g style="mix-blend-mode:multiply" opacity="0.3">
<path d="M316.175 291.956H305.428V301.095H316.175V291.956Z" fill="#6AA2E5"/>
</g>
</g>
<g style="mix-blend-mode:multiply" opacity="0.3">
<g style="mix-blend-mode:multiply" opacity="0.3">
<path d="M276.191 308.886H265.444V318.025H276.191V308.886Z" fill="#6AA2E5"/>
</g>
</g>
<g style="mix-blend-mode:multiply" opacity="0.3">
<g style="mix-blend-mode:multiply" opacity="0.3">
<path d="M296.183 308.886H285.436V318.025H296.183V308.886Z" fill="#6AA2E5"/>
</g>
</g>
<g style="mix-blend-mode:multiply" opacity="0.3">
<g style="mix-blend-mode:multiply" opacity="0.3">
<path d="M316.175 308.886H305.428V318.025H316.175V308.886Z" fill="#6AA2E5"/>
</g>
</g>
<g style="mix-blend-mode:multiply" opacity="0.3">
<g style="mix-blend-mode:multiply" opacity="0.3">
<path d="M276.191 325.815H265.444V334.954H276.191V325.815Z" fill="#6AA2E5"/>
</g>
</g>
<g style="mix-blend-mode:multiply" opacity="0.3">
<g style="mix-blend-mode:multiply" opacity="0.3">
<path d="M296.183 325.815H285.436V334.954H296.183V325.815Z" fill="#6AA2E5"/>
</g>
</g>
<g style="mix-blend-mode:multiply" opacity="0.3">
<g style="mix-blend-mode:multiply" opacity="0.3">
<path d="M316.175 325.815H305.428V334.954H316.175V325.815Z" fill="#6AA2E5"/>
</g>
</g>
<g style="mix-blend-mode:multiply" opacity="0.3">
<g style="mix-blend-mode:multiply" opacity="0.3">
<path d="M276.191 342.745H265.444V351.884H276.191V342.745Z" fill="#6AA2E5"/>
</g>
</g>
<g style="mix-blend-mode:multiply" opacity="0.3">
<g style="mix-blend-mode:multiply" opacity="0.3">
<path d="M296.183 342.745H285.436V351.884H296.183V342.745Z" fill="#6AA2E5"/>
</g>
</g>
<g style="mix-blend-mode:multiply" opacity="0.3">
<g style="mix-blend-mode:multiply" opacity="0.3">
<path d="M316.175 342.745H305.428V351.884H316.175V342.745Z" fill="#6AA2E5"/>
</g>
</g>
<g style="mix-blend-mode:multiply" opacity="0.3">
<g style="mix-blend-mode:multiply" opacity="0.3">
<path d="M276.191 359.674H265.444V368.813H276.191V359.674Z" fill="#6AA2E5"/>
</g>
</g>
<g style="mix-blend-mode:multiply" opacity="0.3">
<g style="mix-blend-mode:multiply" opacity="0.3">
<path d="M296.183 359.674H285.436V368.813H296.183V359.674Z" fill="#6AA2E5"/>
</g>
</g>
<g style="mix-blend-mode:multiply" opacity="0.3">
<g style="mix-blend-mode:multiply" opacity="0.3">
<path d="M316.175 359.674H305.428V368.813H316.175V359.674Z" fill="#6AA2E5"/>
</g>
</g>
<g style="mix-blend-mode:multiply" opacity="0.3">
<g style="mix-blend-mode:multiply" opacity="0.3">
<path d="M361.223 112.006H350.957V166.704H361.223V112.006Z" fill="#6AA2E5"/>
</g>
</g>
<g style="mix-blend-mode:multiply" opacity="0.3">
<g style="mix-blend-mode:multiply" opacity="0.3">
<path d="M381.118 112.006H370.851V166.704H381.118V112.006Z" fill="#6AA2E5"/>
</g>
</g>
<g style="mix-blend-mode:multiply" opacity="0.3">
<g style="mix-blend-mode:multiply" opacity="0.3">
<path d="M401.01 112.006H390.743V166.704H401.01V112.006Z" fill="#6AA2E5"/>
</g>
</g>
<g style="mix-blend-mode:multiply" opacity="0.3">
<g style="mix-blend-mode:multiply" opacity="0.3">
<path d="M419.578 112.006H409.312V166.704H419.578V112.006Z" fill="#6AA2E5"/>
</g>
</g>
<g style="mix-blend-mode:multiply" opacity="0.3">
<g style="mix-blend-mode:multiply" opacity="0.3">
<path d="M361.223 184.531H350.957V239.229H361.223V184.531Z" fill="#6AA2E5"/>
</g>
</g>
<g style="mix-blend-mode:multiply" opacity="0.3">
<g style="mix-blend-mode:multiply" opacity="0.3">
<path d="M381.118 184.531H370.851V239.229H381.118V184.531Z" fill="#6AA2E5"/>
</g>
</g>
<g style="mix-blend-mode:multiply" opacity="0.3">
<g style="mix-blend-mode:multiply" opacity="0.3">
<path d="M401.01 184.531H390.743V239.229H401.01V184.531Z" fill="#6AA2E5"/>
</g>
</g>
<g style="mix-blend-mode:multiply" opacity="0.3">
<g style="mix-blend-mode:multiply" opacity="0.3">
<path d="M419.578 184.531H409.312V239.229H419.578V184.531Z" fill="#6AA2E5"/>
</g>
</g>
<g style="mix-blend-mode:multiply" opacity="0.3">
<g style="mix-blend-mode:multiply" opacity="0.3">
<path d="M361.223 257.056H350.957V311.755H361.223V257.056Z" fill="#6AA2E5"/>
</g>
</g>
<g style="mix-blend-mode:multiply" opacity="0.3">
<g style="mix-blend-mode:multiply" opacity="0.3">
<path d="M381.118 257.056H370.851V311.755H381.118V257.056Z" fill="#6AA2E5"/>
</g>
</g>
<g style="mix-blend-mode:multiply" opacity="0.3">
<g style="mix-blend-mode:multiply" opacity="0.3">
<path d="M401.01 257.056H390.743V311.755H401.01V257.056Z" fill="#6AA2E5"/>
</g>
</g>
<g style="mix-blend-mode:multiply" opacity="0.3">
<g style="mix-blend-mode:multiply" opacity="0.3">
<path d="M419.578 257.056H409.312V311.755H419.578V257.056Z" fill="#6AA2E5"/>
</g>
</g>
<g style="mix-blend-mode:multiply" opacity="0.3">
<g style="mix-blend-mode:multiply" opacity="0.3">
<path d="M361.223 329.579H350.957V371.958H361.223V329.579Z" fill="#6AA2E5"/>
</g>
</g>
<g style="mix-blend-mode:multiply" opacity="0.3">
<g style="mix-blend-mode:multiply" opacity="0.3">
<path d="M381.118 329.579H370.851V371.958H381.118V329.579Z" fill="#6AA2E5"/>
</g>
</g>
<g style="mix-blend-mode:multiply" opacity="0.3">
<g style="mix-blend-mode:multiply" opacity="0.3">
<path d="M401.01 329.579H390.743V371.958H401.01V329.579Z" fill="#6AA2E5"/>
</g>
</g>
<g style="mix-blend-mode:multiply" opacity="0.3">
<g style="mix-blend-mode:multiply" opacity="0.3">
<path d="M419.578 329.579H409.312V371.958H419.578V329.579Z" fill="#6AA2E5"/>
</g>
</g>
<path opacity="0.5" d="M455.7 198.984V184.654H447.893V164.509L430.89 139.355L413.887 164.509V184.654H406.081V198.984H396.645V371.958H465.132V198.984H455.7Z" fill="#CAE3FF"/>
<g opacity="0.5">
<path opacity="0.5" d="M408.454 209.593H402.657V218.731H408.454V209.593Z" fill="#6AA2E5"/>
</g>
<g opacity="0.5">
<path opacity="0.5" d="M421.067 209.593H415.269V218.731H421.067V209.593Z" fill="#6AA2E5"/>
</g>
<g opacity="0.5">
<path opacity="0.5" d="M433.68 209.593H427.882V218.731H433.68V209.593Z" fill="#6AA2E5"/>
</g>
<g opacity="0.5">
<path opacity="0.5" d="M446.292 209.593H440.495V218.731H446.292V209.593Z" fill="#6AA2E5"/>
</g>
<g opacity="0.5">
<path opacity="0.5" d="M458.905 209.593H453.107V218.731H458.905V209.593Z" fill="#6AA2E5"/>
</g>
<g opacity="0.5">
<path opacity="0.5" d="M408.454 225.708H402.657V234.847H408.454V225.708Z" fill="#6AA2E5"/>
</g>
<g opacity="0.5">
<path opacity="0.5" d="M421.067 225.708H415.269V234.847H421.067V225.708Z" fill="#6AA2E5"/>
</g>
<g opacity="0.5">
<path opacity="0.5" d="M433.68 225.708H427.882V234.847H433.68V225.708Z" fill="#6AA2E5"/>
</g>
<g opacity="0.5">
<path opacity="0.5" d="M446.292 225.708H440.495V234.847H446.292V225.708Z" fill="#6AA2E5"/>
</g>
<g opacity="0.5">
<path opacity="0.5" d="M458.905 225.708H453.107V234.847H458.905V225.708Z" fill="#6AA2E5"/>
</g>
<g opacity="0.5">
<path opacity="0.5" d="M408.454 241.824H402.657V250.963H408.454V241.824Z" fill="#6AA2E5"/>
</g>
<g opacity="0.5">
<path opacity="0.5" d="M421.067 241.824H415.269V250.963H421.067V241.824Z" fill="#6AA2E5"/>
</g>
<g opacity="0.5">
<path opacity="0.5" d="M433.68 241.824H427.882V250.963H433.68V241.824Z" fill="#6AA2E5"/>
</g>
<g opacity="0.5">
<path opacity="0.5" d="M446.292 241.824H440.495V250.963H446.292V241.824Z" fill="#6AA2E5"/>
</g>
<g opacity="0.5">
<path opacity="0.5" d="M458.905 241.824H453.107V250.963H458.905V241.824Z" fill="#6AA2E5"/>
</g>
<g opacity="0.5">
<path opacity="0.5" d="M408.454 257.94H402.657V267.079H408.454V257.94Z" fill="#6AA2E5"/>
</g>
<g opacity="0.5">
<path opacity="0.5" d="M421.067 257.94H415.269V267.079H421.067V257.94Z" fill="#6AA2E5"/>
</g>
<g opacity="0.5">
<path opacity="0.5" d="M433.68 257.94H427.882V267.079H433.68V257.94Z" fill="#6AA2E5"/>
</g>
<g opacity="0.5">
<path opacity="0.5" d="M446.292 257.94H440.495V267.079H446.292V257.94Z" fill="#6AA2E5"/>
</g>
<g opacity="0.5">
<path opacity="0.5" d="M458.905 257.94H453.107V267.079H458.905V257.94Z" fill="#6AA2E5"/>
</g>
<g opacity="0.5">
<path opacity="0.5" d="M408.454 274.055H402.657V283.194H408.454V274.055Z" fill="#6AA2E5"/>
</g>
<g opacity="0.5">
<path opacity="0.5" d="M421.067 274.055H415.269V283.194H421.067V274.055Z" fill="#6AA2E5"/>
</g>
<g opacity="0.5">
<path opacity="0.5" d="M433.68 274.055H427.882V283.194H433.68V274.055Z" fill="#6AA2E5"/>
</g>
<g opacity="0.5">
<path opacity="0.5" d="M446.292 274.055H440.495V283.194H446.292V274.055Z" fill="#6AA2E5"/>
</g>
<g opacity="0.5">
<path opacity="0.5" d="M458.905 274.055H453.107V283.194H458.905V274.055Z" fill="#6AA2E5"/>
</g>
<g opacity="0.5">
<path opacity="0.5" d="M408.454 291.21H402.657V300.349H408.454V291.21Z" fill="#6AA2E5"/>
</g>
<g opacity="0.5">
<path opacity="0.5" d="M421.067 291.21H415.269V300.349H421.067V291.21Z" fill="#6AA2E5"/>
</g>
<g opacity="0.5">
<path opacity="0.5" d="M433.68 291.21H427.882V300.349H433.68V291.21Z" fill="#6AA2E5"/>
</g>
<g opacity="0.5">
<path opacity="0.5" d="M446.292 291.21H440.495V300.349H446.292V291.21Z" fill="#6AA2E5"/>
</g>
<g opacity="0.5">
<path opacity="0.5" d="M458.905 291.21H453.107V300.349H458.905V291.21Z" fill="#6AA2E5"/>
</g>
<g opacity="0.5">
<path opacity="0.5" d="M408.454 308.363H402.657V317.502H408.454V308.363Z" fill="#6AA2E5"/>
</g>
<g opacity="0.5">
<path opacity="0.5" d="M421.067 308.363H415.269V317.502H421.067V308.363Z" fill="#6AA2E5"/>
</g>
<g opacity="0.5">
<path opacity="0.5" d="M433.68 308.363H427.882V317.502H433.68V308.363Z" fill="#6AA2E5"/>
</g>
<g opacity="0.5">
<path opacity="0.5" d="M446.292 308.363H440.495V317.502H446.292V308.363Z" fill="#6AA2E5"/>
</g>
<g opacity="0.5">
<path opacity="0.5" d="M458.905 308.363H453.107V317.502H458.905V308.363Z" fill="#6AA2E5"/>
</g>
<g opacity="0.5">
<path opacity="0.5" d="M408.454 325.515H402.657V334.654H408.454V325.515Z" fill="#6AA2E5"/>
</g>
<g opacity="0.5">
<path opacity="0.5" d="M421.067 325.515H415.269V334.654H421.067V325.515Z" fill="#6AA2E5"/>
</g>
<g opacity="0.5">
<path opacity="0.5" d="M433.68 325.515H427.882V334.654H433.68V325.515Z" fill="#6AA2E5"/>
</g>
<g opacity="0.5">
<path opacity="0.5" d="M446.292 325.515H440.495V334.654H446.292V325.515Z" fill="#6AA2E5"/>
</g>
<g opacity="0.5">
<path opacity="0.5" d="M458.905 325.515H453.107V334.654H458.905V325.515Z" fill="#6AA2E5"/>
</g>
<g opacity="0.5">
<path opacity="0.5" d="M408.454 342.668H402.657V351.807H408.454V342.668Z" fill="#6AA2E5"/>
</g>
<g opacity="0.5">
<path opacity="0.5" d="M421.067 342.668H415.269V351.807H421.067V342.668Z" fill="#6AA2E5"/>
</g>
<g opacity="0.5">
<path opacity="0.5" d="M433.68 342.668H427.882V351.807H433.68V342.668Z" fill="#6AA2E5"/>
</g>
<g opacity="0.5">
<path opacity="0.5" d="M446.292 342.668H440.495V351.807H446.292V342.668Z" fill="#6AA2E5"/>
</g>
<g opacity="0.5">
<path opacity="0.5" d="M458.905 342.668H453.107V351.807H458.905V342.668Z" fill="#6AA2E5"/>
</g>
<g opacity="0.5">
<path opacity="0.5" d="M408.454 359.821H402.657V368.959H408.454V359.821Z" fill="#6AA2E5"/>
</g>
<g opacity="0.5">
<path opacity="0.5" d="M421.067 359.821H415.269V368.959H421.067V359.821Z" fill="#6AA2E5"/>
</g>
<g opacity="0.5">
<path opacity="0.5" d="M433.68 359.821H427.882V368.959H433.68V359.821Z" fill="#6AA2E5"/>
</g>
<g opacity="0.5">
<path opacity="0.5" d="M446.292 359.821H440.495V368.959H446.292V359.821Z" fill="#6AA2E5"/>
</g>
<g opacity="0.5">
<path opacity="0.5" d="M458.905 359.821H453.107V368.959H458.905V359.821Z" fill="#6AA2E5"/>
</g>
<g opacity="0.5">
<path opacity="0.5" d="M417.288 187.695H411.49V196.834H417.288V187.695Z" fill="#6AA2E5"/>
</g>
<g opacity="0.5">
<path opacity="0.5" d="M427.863 187.695H422.066V196.834H427.863V187.695Z" fill="#6AA2E5"/>
</g>
<g opacity="0.5">
<path opacity="0.5" d="M438.439 187.695H432.641V196.834H438.439V187.695Z" fill="#6AA2E5"/>
</g>
<g opacity="0.5">
<path opacity="0.5" d="M427.722 170.773H421.924V179.911H427.722V170.773Z" fill="#6AA2E5"/>
</g>
<g opacity="0.5">
<path opacity="0.5" d="M438.439 170.773H432.641V179.911H438.439V170.773Z" fill="#6AA2E5"/>
</g>
<g opacity="0.5">
<path opacity="0.5" d="M433.68 155.368H427.882V164.507H433.68V155.368Z" fill="#6AA2E5"/>
</g>
<g opacity="0.5">
<path opacity="0.5" d="M449.015 187.695H443.217V196.834H449.015V187.695Z" fill="#6AA2E5"/>
</g>
</g>
<path d="M313.335 94.8344C313.335 94.8344 347.944 76.3287 385.364 108.716C385.364 108.716 332.333 133.798 313.335 94.8344Z" fill="#30A671"/>
<path d="M292.983 92.0353C292.983 92.0353 315.314 28.2211 400.48 25.6429C400.48 25.6429 362.438 119.282 292.983 92.0353Z" fill="#3EC889"/>
<path d="M579.475 51.7251C579.438 51.115 579.186 50.5381 578.762 50.0977C577.761 49.0306 576.052 48.1588 573.188 47.9589C573.188 47.9589 574.177 30.1274 560.721 28.9464C545.275 27.591 545.098 45.1203 545.098 45.1203C545.098 45.1203 538.084 38.455 533.02 46.9034C533.02 46.9034 524.277 41.8469 519.866 51.1881C519.785 51.3604 519.738 51.5466 519.727 51.7367L579.475 51.7251Z" fill="white"/>
<path d="M434.941 94.309C434.982 93.6122 435.269 92.9528 435.752 92.4491C436.894 91.2332 438.841 90.2405 442.114 90.0127C442.114 90.0127 440.987 69.6937 456.322 68.3476C473.908 66.8039 474.121 86.7672 474.121 86.7672C474.121 86.7672 482.114 79.172 487.879 88.8014C487.879 88.8014 497.842 83.0359 502.868 93.6836C502.961 93.8797 503.016 94.0921 503.028 94.309H434.941Z" fill="white"/>
<path d="M593.112 102.225C588.446 101.958 577.503 101.49 567.989 102.295C567.059 102.375 566.121 102.259 565.238 101.953C564.356 101.648 563.546 101.161 562.864 100.523C562.181 99.8852 561.639 99.1108 561.274 98.2503C560.909 97.3897 560.729 96.462 560.744 95.5272C560.782 93.8998 561.362 92.0283 562.86 89.8964C568.637 81.6875 578.676 89.5268 578.579 93.6952C578.579 93.6952 580.609 87.4182 586.773 88.5178C592.938 89.6175 590.757 98.7471 590.757 98.7471C590.757 98.7471 592.748 98.3263 594.127 99.2678C594.416 99.4706 594.631 99.7617 594.739 100.097C594.848 100.433 594.845 100.795 594.731 101.128C594.616 101.462 594.396 101.749 594.104 101.947C593.813 102.145 593.464 102.243 593.112 102.225Z" fill="white"/>
<path d="M536.313 156.4C536.27 154.607 536.043 152.823 535.635 151.077C534.677 146.949 532.757 143.107 530.033 139.864C527.735 137.112 524.886 134.873 521.669 133.292C518.453 131.712 514.941 130.824 511.36 130.688C511.088 130.688 510.814 130.669 510.542 130.665C510.271 130.66 509.994 130.665 509.725 130.665C495.131 130.897 484.441 142.916 484.105 156.398C484.021 160.017 484.678 163.614 486.035 166.969L487.382 169.645L488.485 171.835L503.1 200.872L504.394 203.429L506.717 208.065L508.489 211.585L509.49 213.573L509.955 212.708L510.364 211.945L510.556 211.585L512.44 208.065L514.921 203.429L517.223 199.128L533.947 167.89L534.121 167.567C535.652 164.048 536.4 160.238 536.313 156.4ZM522.377 157.607C522.353 159.858 521.702 162.057 520.498 163.958C519.642 165.31 518.53 166.482 517.225 167.406C516.974 167.585 516.716 167.753 516.449 167.913C514.516 169.073 512.299 169.671 510.045 169.64H509.957C507.607 169.591 505.321 168.861 503.377 167.54C501.432 166.218 499.911 164.361 498.998 162.193C498.086 160.025 497.82 157.638 498.233 155.322C498.646 153.006 499.721 150.859 501.327 149.141C502.933 147.423 505.002 146.208 507.283 145.642C509.565 145.075 511.962 145.182 514.184 145.95C516.406 146.718 518.358 148.113 519.804 149.968C521.251 151.822 522.13 154.057 522.335 156.4C522.361 156.796 522.375 157.198 522.37 157.607H522.377Z" fill="#ED2B47"/>
<path d="M522.133 151.077C521.011 148.974 519.355 147.205 517.33 145.949C515.306 144.693 512.986 143.994 510.606 143.924C508.225 143.854 505.868 144.414 503.774 145.549C501.679 146.683 499.921 148.352 498.678 150.385C497.434 152.418 496.75 154.743 496.693 157.127C496.636 159.51 497.209 161.865 498.355 163.955C499.5 166.045 501.177 167.795 503.215 169.029C505.253 170.262 507.581 170.934 509.962 170.977H510.21C513.343 170.985 516.379 169.895 518.793 167.897C519.086 167.664 519.367 167.402 519.643 167.134C519.919 166.867 520.224 166.539 520.489 166.228C522.544 163.83 523.688 160.784 523.722 157.626C523.722 157.214 523.722 156.807 523.682 156.403C523.544 154.538 523.016 152.724 522.133 151.077ZM520.489 160.811C519.948 162.475 519.009 163.983 517.755 165.202C517.583 165.367 517.411 165.528 517.23 165.681C516.064 166.683 514.697 167.421 513.221 167.848C512.196 168.144 511.134 168.288 510.069 168.276H509.962C507.113 168.217 504.402 167.035 502.419 164.986C500.436 162.938 499.341 160.189 499.372 157.337C499.402 154.485 500.556 151.761 502.583 149.756C504.609 147.751 507.344 146.627 510.194 146.629H510.336C511.755 146.641 513.159 146.935 514.464 147.494C515.769 148.052 516.951 148.865 517.94 149.884C518.301 150.253 518.635 150.648 518.939 151.065C520.081 152.625 520.78 154.464 520.962 156.389C521 156.784 521.016 157.18 521.011 157.577C521.004 158.675 520.828 159.766 520.489 160.811Z" fill="white"/>
<path d="M537.647 156.4C537.633 155.826 537.605 155.254 537.554 154.682C537.496 153.985 537.412 153.288 537.301 152.604C537.217 152.093 537.122 151.583 537.01 151.077C536.323 147.915 535.091 144.896 533.371 142.156C532.965 141.51 532.538 140.885 532.091 140.282C531.463 139.436 530.787 138.626 530.068 137.855C525.224 132.655 518.515 129.591 511.416 129.337C511.132 129.337 510.847 129.316 510.559 129.314C510.271 129.312 509.987 129.314 509.702 129.314C500.615 129.463 492.499 133.933 487.433 141.577C484.925 145.355 483.373 149.688 482.912 154.2C482.45 158.713 483.092 163.27 484.783 167.478L502.882 203.441L503.1 203.876L505.214 208.077L506.986 211.597L509.462 216.516L509.962 215.586L510.371 214.826L512.094 211.603L513.978 208.084L516.461 203.448L517.23 202.009L535.317 168.225L535.366 168.122L535.456 167.908C536.993 164.271 537.74 160.348 537.647 156.4ZM532.908 166.99L532.421 167.901L517.225 196.276L513.395 203.441L510.914 208.077L510.371 209.093L509.962 209.853L509.534 210.65L508.238 208.077L505.916 203.441L503.11 197.861L495.535 182.813L494.508 180.772L490.009 171.83L487.391 166.632L487.278 166.4C485.762 162.604 485.19 158.496 485.611 154.43C486.031 150.364 487.432 146.46 489.693 143.056C494.26 136.167 501.572 132.129 509.757 132.004C510.015 132.004 510.273 132.004 510.535 132.004C510.798 132.004 511.053 132.004 511.314 132.025C514.989 132.157 518.586 133.125 521.832 134.858C525.077 136.59 527.885 139.04 530.042 142.021C530.407 142.521 530.757 143.037 531.09 143.57C531.452 144.146 531.789 144.733 532.1 145.33C533.832 148.65 534.803 152.314 534.945 156.056C535.086 159.798 534.394 163.525 532.918 166.967L532.908 166.99Z" fill="white"/>
<path d="M510.21 171.237H510.025H509.939L509.976 170.726H510.029C510.094 170.726 510.148 170.726 510.206 170.726C512.635 170.73 515.018 170.063 517.093 168.799C517.628 168.47 518.14 168.105 518.626 167.706C518.904 167.474 519.186 167.223 519.457 166.957C519.729 166.692 520.022 166.381 520.289 166.067C522.313 163.717 523.437 160.724 523.459 157.621C523.459 157.219 523.459 156.817 523.42 156.421C523.287 154.593 522.77 152.813 521.901 151.2C521.31 150.098 520.567 149.084 519.694 148.189L520.061 147.829C520.969 148.759 521.741 149.812 522.354 150.958C523.256 152.635 523.794 154.483 523.933 156.382C523.963 156.791 523.977 157.209 523.973 157.628C523.948 160.85 522.782 163.96 520.681 166.402C520.403 166.727 520.112 167.039 519.817 167.332C519.522 167.625 519.241 167.871 518.951 168.111C516.49 170.145 513.397 171.254 510.206 171.247L510.21 171.237ZM510.187 168.534H510.066H509.95C507.047 168.451 504.293 167.231 502.281 165.135C500.269 163.039 499.16 160.236 499.193 157.33C499.226 154.424 500.398 151.647 502.457 149.597C504.516 147.548 507.297 146.39 510.201 146.373H510.35C511.804 146.388 513.24 146.692 514.576 147.266C515.912 147.84 517.121 148.674 518.133 149.719C518.501 150.097 518.843 150.5 519.155 150.925L518.74 151.23C518.442 150.82 518.116 150.432 517.764 150.068C516.797 149.07 515.643 148.275 514.367 147.728C513.091 147.18 511.719 146.891 510.331 146.878H510.194C507.412 146.875 504.742 147.971 502.763 149.928C500.784 151.885 499.657 154.544 499.627 157.328C499.596 160.112 500.664 162.796 502.6 164.796C504.535 166.795 507.181 167.95 509.962 168.008H510.062C511.104 168.021 512.143 167.88 513.144 167.59C514.585 167.175 515.919 166.453 517.056 165.474C517.227 165.328 517.395 165.174 517.569 165.009C518.794 163.821 519.712 162.353 520.245 160.732L520.735 160.89C520.178 162.593 519.217 164.136 517.934 165.386C517.752 165.563 517.576 165.723 517.397 165.876C516.204 166.903 514.804 167.66 513.293 168.097C512.283 168.387 511.238 168.535 510.187 168.534Z" fill="#1D1D1B"/>
<path d="M509.453 217.074L502.652 203.557L484.553 167.592C482.841 163.343 482.189 158.741 482.654 154.183C483.119 149.625 484.686 145.249 487.22 141.433C492.33 133.717 500.527 129.207 509.699 129.058C509.985 129.058 510.273 129.058 510.561 129.058C510.849 129.058 511.139 129.07 511.425 129.081C518.591 129.346 525.361 132.439 530.256 137.683C530.981 138.46 531.662 139.277 532.295 140.131C532.739 140.724 533.173 141.361 533.587 142.021C535.324 144.786 536.567 147.832 537.261 151.023C537.37 151.511 537.468 152.03 537.554 152.567C537.663 153.241 537.749 153.948 537.812 154.659C537.858 155.217 537.891 155.801 537.905 156.393C538.002 160.376 537.248 164.334 535.693 168.001L535.601 168.22L535.547 168.329L509.453 217.074ZM510.173 129.567H509.709C500.71 129.714 492.669 134.14 487.642 141.715C485.158 145.458 483.621 149.75 483.164 154.221C482.706 158.691 483.341 163.206 485.015 167.376L509.462 215.953L517 201.874L535.09 168.104L535.134 168.011C535.159 167.95 535.189 167.88 535.217 167.811C536.745 164.212 537.485 160.328 537.389 156.419C537.389 155.838 537.345 155.257 537.298 154.717C537.238 154.02 537.154 153.322 537.048 152.66C536.962 152.125 536.866 151.63 536.76 151.146C536.078 148.015 534.857 145.025 533.152 142.312C532.746 141.666 532.318 141.04 531.884 140.452C531.262 139.614 530.593 138.811 529.88 138.048C525.076 132.904 518.434 129.87 511.404 129.609C511.123 129.598 510.84 129.591 510.556 129.586L510.173 129.567Z" fill="#1D1D1B"/>
<path d="M321.529 46.8406C321.529 46.7407 321.529 46.6407 321.515 46.543C321.435 44.9394 320.771 43.4206 319.649 42.2735C318.526 41.1264 317.023 40.4305 315.423 40.3172L315.13 40.3032H315.035H170.252H170.157L169.864 40.3172C168.264 40.4305 166.761 41.1264 165.638 42.2735C164.516 43.4206 163.852 44.9394 163.772 46.543C163.772 46.6407 163.772 46.7407 163.758 46.8406C163.758 46.8732 163.758 46.9057 163.758 46.9406V354.68C163.75 355.433 163.89 356.18 164.17 356.879C164.451 357.578 164.866 358.214 165.392 358.752C165.919 359.29 166.546 359.719 167.238 360.014C167.93 360.31 168.673 360.466 169.425 360.474H315.871C316.623 360.466 317.367 360.31 318.059 360.014C318.75 359.719 319.378 359.29 319.904 358.752C320.43 358.214 320.845 357.578 321.126 356.879C321.406 356.18 321.547 355.433 321.539 354.68V46.9406C321.534 46.9057 321.529 46.8732 321.529 46.8406ZM163.855 63.1981V53.8988H173.316C173.595 54.029 173.9 54.0964 174.208 54.0964C174.516 54.0964 174.82 54.029 175.1 53.8988H180.049C180.33 54.029 180.635 54.0965 180.944 54.0965C181.253 54.0965 181.558 54.029 181.838 53.8988H186.788C187.068 54.029 187.372 54.0964 187.681 54.0964C187.989 54.0964 188.294 54.029 188.574 53.8988H292.969V54.0964H310.087V53.8988H321.469V63.1981H163.855Z" fill="#D0F6FC"/>
<path d="M312.022 33.6193H173.265C164.336 33.6193 157.096 41.0169 157.096 50.1465V354.425C157.096 363.554 164.336 370.954 173.265 370.954H312.022C320.953 370.954 328.191 363.554 328.191 354.425V50.1465C328.191 41.0169 320.951 33.6193 312.022 33.6193ZM321.546 351.495C321.546 356.454 317.611 360.474 312.763 360.474H172.54C167.688 360.474 163.753 356.454 163.753 351.495V50.3162C163.753 44.7808 168.141 40.2986 173.553 40.2986H311.734C317.146 40.2986 321.534 44.7808 321.534 50.3162L321.546 351.495Z" fill="#20111D"/>
<path d="M321.536 63.1679V354.68C321.552 356.201 320.963 357.666 319.9 358.752C318.837 359.839 317.386 360.458 315.866 360.474H169.421C168.668 360.466 167.925 360.31 167.233 360.014C166.541 359.719 165.914 359.29 165.388 358.752C164.862 358.214 164.446 357.578 164.166 356.879C163.885 356.18 163.745 355.433 163.753 354.68V63.1679H163.855V63.1981H321.478V63.1679H321.536Z" fill="#D0F6FC"/>
<path d="M204.559 63.1981H199.064L199.087 114.182H163.753V119.798H199.089L199.105 157.505H163.753V163.124H199.11L199.136 221.035H163.753V226.652H199.138L199.164 281.116H163.753V286.735H199.168L199.203 360.474H204.699L204.673 304.724H276.732V327.84H246.936V360.474H252.429V333.459H321.534V327.84H282.228V304.724H321.416V299.105H245.487L245.461 273.186H304.501L304.524 198.266H321.534V192.647H304.524V163.122H321.522V157.505H304.524L304.536 119.798H321.522V114.182H304.552V91.8028H321.536V86.1837H204.58L204.559 63.1981ZM204.585 119.798H264.004V140.257C255.272 141.501 248.348 148.582 247.131 157.507H204.603L204.585 119.798ZM266.752 145.676C274.649 145.676 281.071 152.244 281.071 160.322C281.071 168.401 274.647 174.969 266.752 174.969C258.856 174.969 252.432 168.399 252.432 160.322C252.432 152.246 258.856 145.676 266.752 145.676ZM204.606 163.124H247.131C248.348 172.049 255.261 179.128 264.004 180.372V192.645H204.62L204.606 163.124ZM204.669 299.105L204.622 198.264H239.898L239.991 299.105H204.669ZM299.005 267.564H245.461L245.396 198.264H299.031L299.005 267.564ZM299.029 192.645H269.499V180.372C278.231 179.128 285.155 172.049 286.374 163.124H299.04L299.029 192.645ZM299.04 157.505H286.374C285.155 148.58 278.231 141.498 269.499 140.255V119.796H299.052L299.04 157.505ZM260.194 91.8028H299.057V114.182H260.194V91.8028ZM254.699 114.182H204.58V91.8028H254.708L254.699 114.182Z" fill="white"/>
<path d="M280.203 331.981H254.169V329.616H277.889V303.592H241.44V269.287H300.453V197.131H265.451V179.351C259.509 178.982 254.666 175.741 251.393 169.922C249.962 167.329 248.918 164.541 248.295 161.645H200.652V122.016H202.975V159.269H250.246L250.395 160.276C250.935 163.265 251.961 166.145 253.433 168.801C256.522 174.255 260.954 177.022 266.608 177.022H267.769V194.765H302.771V271.654H243.754V301.226H280.203V331.981Z" fill="#80C4A4"/>
<g style="mix-blend-mode:multiply">
<g style="mix-blend-mode:multiply">
<path d="M259.084 124.085H209.618V133.845H259.084V124.085Z" fill="#D0F6FC"/>
</g>
</g>
<g style="mix-blend-mode:multiply">
<g style="mix-blend-mode:multiply">
<path d="M273.55 209.846H262.847V219.606H273.55V209.846Z" fill="#D0F6FC"/>
</g>
</g>
<g style="mix-blend-mode:multiply">
<g style="mix-blend-mode:multiply">
<path d="M317.52 204.82H306.817V214.579H317.52V204.82Z" fill="#D0F6FC"/>
</g>
</g>
<g style="mix-blend-mode:multiply">
<g style="mix-blend-mode:multiply">
<path d="M281.359 237.053H270.656V246.813H281.359V237.053Z" fill="#D0F6FC"/>
</g>
</g>
<g style="mix-blend-mode:multiply">
<g style="mix-blend-mode:multiply">
<path d="M296.982 311.871H286.279V321.631H296.982V311.871Z" fill="#D0F6FC"/>
</g>
</g>
<g style="mix-blend-mode:multiply">
<g style="mix-blend-mode:multiply">
<path d="M318.677 311.871H307.974V321.631H318.677V311.871Z" fill="#D0F6FC"/>
</g>
</g>
<g style="mix-blend-mode:multiply">
<g style="mix-blend-mode:multiply">
<path d="M318.099 338.783H258.218V348.543H318.099V338.783Z" fill="#D0F6FC"/>
</g>
</g>
<g style="mix-blend-mode:multiply">
<g style="mix-blend-mode:multiply">
<path d="M176.642 184.119H165.939V193.879H176.642V184.119Z" fill="#D0F6FC"/>
</g>
</g>
<g style="mix-blend-mode:multiply">
<g style="mix-blend-mode:multiply">
<path d="M222.347 172.881H211.644V182.641H222.347V172.881Z" fill="#D0F6FC"/>
</g>
</g>
<g style="mix-blend-mode:multiply">
<g style="mix-blend-mode:multiply">
<path d="M176.642 200.089H165.939V209.848H176.642V200.089Z" fill="#D0F6FC"/>
</g>
</g>
<g style="mix-blend-mode:multiply">
<g style="mix-blend-mode:multiply">
<path d="M245.201 172.881H234.498V182.641H245.201V172.881Z" fill="#D0F6FC"/>
</g>
</g>
<g style="mix-blend-mode:multiply">
<g style="mix-blend-mode:multiply">
<path d="M294.957 179.386H284.254V189.146H294.957V179.386Z" fill="#D0F6FC"/>
</g>
</g>
<g style="mix-blend-mode:multiply">
<g style="mix-blend-mode:multiply">
<path d="M222.347 140.943H211.644V150.702H222.347V140.943Z" fill="#D0F6FC"/>
</g>
</g>
<g style="mix-blend-mode:multiply">
<g style="mix-blend-mode:multiply">
<path d="M242.597 140.943H231.894V150.702H242.597V140.943Z" fill="#D0F6FC"/>
</g>
</g>
<g style="mix-blend-mode:multiply">
<g style="mix-blend-mode:multiply">
<path d="M294.957 125.269H284.254V135.028H294.957V125.269Z" fill="#D0F6FC"/>
</g>
</g>
<g style="mix-blend-mode:multiply">
<g style="mix-blend-mode:multiply">
<path d="M250.697 98.0636H239.993V107.823H250.697V98.0636Z" fill="#D0F6FC"/>
</g>
</g>
<g style="mix-blend-mode:multiply">
<g style="mix-blend-mode:multiply">
<path d="M195.733 124.085H168.252V133.845H195.733V124.085Z" fill="#D0F6FC"/>
</g>
</g>
<g style="mix-blend-mode:multiply">
<g style="mix-blend-mode:multiply">
<path d="M195.733 144.195H168.252V153.955H195.733V144.195Z" fill="#D0F6FC"/>
</g>
</g>
<g style="mix-blend-mode:multiply">
<g style="mix-blend-mode:multiply">
<path d="M193.419 168.15H165.939V177.91H193.419V168.15Z" fill="#D0F6FC"/>
</g>
</g>
<g style="mix-blend-mode:multiply">
<g style="mix-blend-mode:multiply">
<path d="M193.998 66.4203H183.294V107.821H193.998V66.4203Z" fill="#D0F6FC"/>
</g>
</g>
<g style="mix-blend-mode:multiply">
<g style="mix-blend-mode:multiply">
<path d="M176.642 66.4203H165.939V107.821H176.642V66.4203Z" fill="#D0F6FC"/>
</g>
</g>
<g style="mix-blend-mode:multiply">
<g style="mix-blend-mode:multiply">
<path d="M286.567 98.0636H275.864V107.823H286.567V98.0636Z" fill="#D0F6FC"/>
</g>
</g>
<g style="mix-blend-mode:multiply">
<g style="mix-blend-mode:multiply">
<path d="M321.571 71.1513H209.909V80.911H321.571V71.1513Z" fill="#D0F6FC"/>
</g>
</g>
<g style="mix-blend-mode:multiply">
<g style="mix-blend-mode:multiply">
<path d="M235.076 98.0636H224.373V107.823H235.076V98.0636Z" fill="#D0F6FC"/>
</g>
</g>
<g style="mix-blend-mode:multiply">
<g style="mix-blend-mode:multiply">
<path d="M219.455 98.0636H208.752V107.823H219.455V98.0636Z" fill="#D0F6FC"/>
</g>
</g>
<g style="mix-blend-mode:multiply">
<g style="mix-blend-mode:multiply">
<path d="M272.103 276.385H248.961V286.144H272.103V276.385Z" fill="#D0F6FC"/>
</g>
</g>
<g style="mix-blend-mode:multiply">
<g style="mix-blend-mode:multiply">
<path d="M235.076 204.82H224.373V238.827H235.076V204.82Z" fill="#D0F6FC"/>
</g>
</g>
<g style="mix-blend-mode:multiply">
<g style="mix-blend-mode:multiply">
<path d="M195.445 293.833H184.741V327.84H195.445V293.833Z" fill="#D0F6FC"/>
</g>
</g>
<g style="mix-blend-mode:multiply">
<g style="mix-blend-mode:multiply">
<path d="M219.455 308.619H208.752V342.626H219.455V308.619Z" fill="#D0F6FC"/>
</g>
</g>
<g style="mix-blend-mode:multiply">
<g style="mix-blend-mode:multiply">
<path d="M242.597 324.293H231.894V358.3H242.597V324.293Z" fill="#D0F6FC"/>
</g>
</g>
<g style="mix-blend-mode:multiply">
<g style="mix-blend-mode:multiply">
<path d="M272.682 324.29V313.35H231.894V324.29H272.682Z" fill="#D0F6FC"/>
</g>
</g>
<g style="mix-blend-mode:multiply">
<g style="mix-blend-mode:multiply">
<path d="M196.602 333.755H185.898V348.54H196.602V333.755Z" fill="#D0F6FC"/>
</g>
</g>
<g style="mix-blend-mode:multiply">
<g style="mix-blend-mode:multiply">
<path d="M235.076 250.951H224.373V260.711H235.076V250.951Z" fill="#D0F6FC"/>
</g>
</g>
<g style="mix-blend-mode:multiply">
<g style="mix-blend-mode:multiply">
<path d="M285.989 254.501H255.326V264.261H285.989V254.501Z" fill="#D0F6FC"/>
</g>
</g>
<g style="mix-blend-mode:multiply">
<g style="mix-blend-mode:multiply">
<path d="M296.692 203.636H285.989V264.261H296.692V203.636Z" fill="#D0F6FC"/>
</g>
</g>
<g style="mix-blend-mode:multiply">
<g style="mix-blend-mode:multiply">
<path d="M306.817 276.385H276.154V286.144H306.817V276.385Z" fill="#D0F6FC"/>
</g>
</g>
<g style="mix-blend-mode:multiply">
<g style="mix-blend-mode:multiply">
<path d="M317.52 225.52H306.817V286.144H317.52V225.52Z" fill="#D0F6FC"/>
</g>
</g>
<g style="mix-blend-mode:multiply">
<g style="mix-blend-mode:multiply">
<path d="M193.129 232.025H182.426V241.784H193.129V232.025Z" fill="#D0F6FC"/>
</g>
</g>
<g style="mix-blend-mode:multiply">
<g style="mix-blend-mode:multiply">
<path d="M176.642 232.025H165.939V241.784H176.642V232.025Z" fill="#D0F6FC"/>
</g>
</g>
<g style="mix-blend-mode:multiply">
<g style="mix-blend-mode:multiply">
<path d="M176.642 266.625H165.939V276.385H176.642V266.625Z" fill="#D0F6FC"/>
</g>
</g>
<g style="mix-blend-mode:multiply">
<g style="mix-blend-mode:multiply">
<path d="M235.076 269.582H224.373V279.342H235.076V269.582Z" fill="#D0F6FC"/>
</g>
</g>
<path d="M194.681 104.599L201.621 118.68L208.905 104.78C211.063 99.6816 207.6 93.8533 202.169 93.6348H201.937H201.705C196.255 93.7208 192.651 99.4445 194.681 104.599ZM201.881 98.0426C202.612 98.0362 203.328 98.2478 203.938 98.6505C204.548 99.0531 205.024 99.6285 205.306 100.303C205.588 100.978 205.662 101.721 205.52 102.439C205.378 103.156 205.025 103.815 204.508 104.331C203.99 104.847 203.33 105.197 202.613 105.336C201.895 105.475 201.153 105.397 200.48 105.112C199.807 104.827 199.234 104.347 198.835 103.735C198.435 103.123 198.227 102.405 198.237 101.674C198.24 100.71 198.625 99.7862 199.307 99.1055C199.989 98.4248 200.913 98.0426 201.877 98.0426H201.881Z" fill="#ED2B47"/>
<path d="M243.28 319.589L250.22 333.671L257.505 319.773C259.662 314.675 256.199 308.846 250.768 308.614H250.536H250.304C244.855 308.712 241.25 314.438 243.28 319.589ZM250.48 313.033C251.211 313.028 251.927 313.24 252.536 313.644C253.146 314.047 253.621 314.623 253.902 315.298C254.183 315.973 254.257 316.717 254.114 317.434C253.971 318.151 253.617 318.81 253.099 319.325C252.58 319.84 251.92 320.189 251.203 320.327C250.485 320.466 249.743 320.387 249.07 320.101C248.398 319.815 247.826 319.335 247.427 318.722C247.028 318.109 246.821 317.391 246.831 316.66C246.836 315.697 247.222 314.774 247.905 314.094C248.587 313.415 249.511 313.033 250.474 313.033H250.48Z" fill="#ED2B47"/>
<path d="M314.882 40.2986H170.347C166.705 40.2986 163.753 43.3208 163.753 47.0406V63.2004H321.469V47.0382C321.476 43.3139 318.524 40.2986 314.882 40.2986Z" fill="#4CB7D8"/>
<g opacity="0.7">
<path opacity="0.7" d="M176.654 51.8622C176.654 52.3028 176.524 52.7337 176.28 53.1002C176.035 53.4668 175.688 53.7526 175.282 53.9215C174.875 54.0905 174.428 54.1349 173.996 54.0492C173.564 53.9636 173.167 53.7516 172.856 53.4402C172.544 53.1289 172.332 52.732 172.246 52.2999C172.16 51.8678 172.204 51.4199 172.372 51.0128C172.541 50.6057 172.826 50.2577 173.192 50.0129C173.558 49.7681 173.988 49.6374 174.428 49.6374C174.721 49.6368 175.01 49.6939 175.28 49.8054C175.55 49.917 175.796 50.0808 176.002 50.2875C176.209 50.4942 176.373 50.7397 176.485 51.0099C176.597 51.2802 176.654 51.5698 176.654 51.8622Z" fill="white"/>
<path opacity="0.7" d="M183.536 51.8622C183.536 52.3028 183.406 52.7337 183.162 53.1002C182.918 53.4668 182.571 53.7526 182.164 53.9215C181.757 54.0905 181.31 54.1349 180.878 54.0492C180.446 53.9636 180.05 53.7516 179.738 53.4402C179.427 53.1289 179.215 52.732 179.128 52.2999C179.042 51.8678 179.086 51.4199 179.255 51.0128C179.423 50.6057 179.708 50.2577 180.074 50.0129C180.44 49.7681 180.871 49.6374 181.311 49.6374C181.603 49.6368 181.892 49.6939 182.163 49.8054C182.433 49.917 182.678 50.0808 182.885 50.2875C183.092 50.4942 183.255 50.7397 183.367 51.0099C183.479 51.2802 183.536 51.5698 183.536 51.8622Z" fill="white"/>
<path opacity="0.7" d="M190.411 51.8622C190.412 52.3028 190.282 52.7337 190.037 53.1002C189.793 53.4668 189.446 53.7526 189.039 53.9215C188.633 54.0905 188.185 54.1349 187.753 54.0492C187.322 53.9636 186.925 53.7516 186.614 53.4402C186.302 53.1289 186.09 52.732 186.004 52.2999C185.918 51.8678 185.962 51.4199 186.13 51.0128C186.298 50.6057 186.584 50.2577 186.95 50.0129C187.316 49.7681 187.746 49.6374 188.186 49.6374C188.478 49.6368 188.768 49.6939 189.038 49.8054C189.308 49.917 189.553 50.0808 189.76 50.2875C189.967 50.4942 190.131 50.7397 190.243 51.0099C190.354 51.2802 190.412 51.5698 190.411 51.8622Z" fill="white"/>
<path opacity="0.7" d="M295.73 47.8659V49.4561H294.831V52.1831H295.73V54.0987H313.216V47.8659H295.73ZM296.33 48.375H312.617V53.5919H296.33V48.375Z" fill="white"/>
<path opacity="0.7" d="M311.627 49.1864H309.899V52.7503H311.627V49.1864Z" fill="white"/>
<path opacity="0.7" d="M308.729 49.1864H307V52.7503H308.729V49.1864Z" fill="white"/>
<path opacity="0.7" d="M305.753 49.1864H304.025V52.7503H305.753V49.1864Z" fill="white"/>
</g>
<path d="M168.94 351.172L154.617 352.962L154.824 366.535L169.202 366.337L168.94 351.172Z" fill="#FE9F73"/>
<path d="M183.543 370.849C183.754 370.848 183.962 370.801 184.152 370.71C184.342 370.619 184.51 370.487 184.643 370.323C184.776 370.16 184.872 369.969 184.923 369.764C184.973 369.559 184.978 369.345 184.937 369.138C184.864 368.809 184.679 368.514 184.414 368.306C184.149 368.097 183.82 367.986 183.483 367.992H181.48L172.189 362.45L167.105 367.992H154.562C154.411 367.992 154.267 368.052 154.161 368.158C154.055 368.265 153.995 368.409 153.995 368.56V370.461C153.995 370.564 154.036 370.663 154.109 370.736C154.181 370.809 154.28 370.849 154.383 370.849H183.543Z" fill="#BE0000"/>
<path d="M179.801 365.465L169.153 360.739C164.866 364.924 160.002 361.464 160.002 361.464C156.787 360.011 154.676 362.859 154.676 362.859V368.011H183.51C182.721 366.442 179.801 365.465 179.801 365.465Z" fill="#4CB7D8"/>
<path d="M154.782 362.857H154.569V367.983H154.782V362.857Z" fill="black"/>
<path d="M164.991 362.666C163.248 362.819 161.507 362.363 160.062 361.376L159.941 361.553C161.244 362.436 162.781 362.909 164.355 362.913C164.576 362.914 164.797 362.902 165.017 362.878L164.991 362.666Z" fill="black"/>
<path d="M156.021 365.975L155.902 366.152L157.262 367.069L157.382 366.891L156.021 365.975Z" fill="black"/>
<path d="M156.998 365.701L156.879 365.878L158.238 366.797L158.358 366.619L156.998 365.701Z" fill="black"/>
<path d="M184.535 370.596C184.775 370.393 184.947 370.121 185.027 369.817C185.107 369.513 185.092 369.191 184.984 368.896C184.876 368.601 184.68 368.346 184.422 368.166C184.164 367.986 183.857 367.89 183.543 367.89H154.713C154.495 367.89 154.286 367.977 154.131 368.131C153.977 368.285 153.891 368.495 153.891 368.713V370.136H154.104V368.713C154.104 368.551 154.168 368.397 154.282 368.282C154.397 368.168 154.551 368.104 154.713 368.104H183.543C183.813 368.104 184.076 368.187 184.297 368.342C184.518 368.496 184.686 368.715 184.779 368.968C184.872 369.222 184.886 369.497 184.818 369.759C184.749 370.02 184.603 370.254 184.398 370.429L184.535 370.596Z" fill="black"/>
<path d="M183.443 368.039L183.636 367.948C183.613 367.897 183.027 366.7 180.849 365.77C178.707 364.856 169.288 360.674 169.193 360.632L169.105 360.827C169.2 360.869 178.628 365.051 180.765 365.965C182.867 366.876 183.443 368.039 183.443 368.039Z" fill="black"/>
<path d="M143.791 351.172L129.469 352.962L129.676 366.535L144.054 366.337L143.791 351.172Z" fill="#FE9F73"/>
<path d="M158.394 370.849C158.605 370.848 158.813 370.801 159.003 370.71C159.194 370.619 159.361 370.487 159.495 370.323C159.628 370.16 159.723 369.969 159.774 369.764C159.825 369.559 159.829 369.345 159.788 369.138C159.715 368.809 159.53 368.515 159.265 368.306C159 368.097 158.671 367.986 158.334 367.992H156.332L147.041 362.45L141.956 367.992H129.413C129.339 367.992 129.265 368.007 129.196 368.035C129.127 368.064 129.065 368.106 129.012 368.158C128.96 368.211 128.918 368.274 128.89 368.342C128.861 368.411 128.846 368.485 128.846 368.56V370.461C128.846 370.564 128.887 370.663 128.96 370.736C129.033 370.809 129.131 370.849 129.234 370.849H158.394Z" fill="#F95565"/>
<path d="M154.641 365.465L143.995 360.739C139.708 364.924 134.844 361.464 134.844 361.464C131.629 360.011 129.515 362.859 129.515 362.859V368.011H158.357C157.57 366.442 154.641 365.465 154.641 365.465Z" fill="#4CB7D8"/>
<path d="M129.631 362.857H129.418V367.983H129.631V362.857Z" fill="black"/>
<path d="M139.842 362.666C138.1 362.819 136.358 362.363 134.913 361.376L134.793 361.553C136.095 362.437 137.632 362.91 139.206 362.913C139.426 362.914 139.647 362.903 139.866 362.878L139.842 362.666Z" fill="black"/>
<path d="M130.881 365.929L130.761 366.107L132.122 367.023L132.241 366.846L130.881 365.929Z" fill="black"/>
<path d="M131.859 365.663L131.739 365.841L133.099 366.759L133.218 366.581L131.859 365.663Z" fill="black"/>
<path d="M159.386 370.596C159.625 370.392 159.795 370.12 159.875 369.817C159.955 369.513 159.939 369.192 159.831 368.897C159.723 368.603 159.528 368.348 159.271 368.168C159.014 367.988 158.708 367.891 158.394 367.89H129.555C129.447 367.89 129.34 367.911 129.24 367.952C129.14 367.993 129.049 368.054 128.973 368.13C128.896 368.207 128.836 368.298 128.795 368.398C128.753 368.498 128.732 368.605 128.733 368.713V370.136H128.946V368.713C128.946 368.551 129.01 368.397 129.124 368.282C129.239 368.168 129.393 368.104 129.555 368.104H158.394C158.663 368.106 158.926 368.189 159.146 368.344C159.366 368.499 159.534 368.717 159.627 368.97C159.72 369.223 159.733 369.498 159.666 369.758C159.598 370.019 159.453 370.253 159.249 370.429L159.386 370.596Z" fill="black"/>
<path d="M158.297 368.039L158.49 367.948C158.466 367.897 157.883 366.7 155.702 365.77C153.561 364.856 144.139 360.674 144.044 360.632L143.958 360.827C144.054 360.869 153.482 365.051 155.616 365.965C157.716 366.876 158.292 368.039 158.297 368.039Z" fill="black"/>
<path d="M157.156 355.341C160.828 355.328 164.478 354.779 167.992 353.713C168.994 353.41 169.874 352.797 170.505 351.961C171.136 351.125 171.486 350.111 171.504 349.064L173.362 234.915C173.367 234.638 173.348 234.361 173.307 234.087L173.221 233.522C173.109 232.794 172.835 232.101 172.42 231.493C172.006 230.885 171.46 230.378 170.824 230.009C170.187 229.639 169.477 229.418 168.743 229.359C168.01 229.301 167.273 229.408 166.587 229.672L148.221 236.733C147.264 237.099 146.446 237.756 145.88 238.61C145.314 239.464 145.029 240.474 145.064 241.498C145.561 256.145 147.728 313.498 152.281 351.014C152.425 352.207 153.001 353.305 153.899 354.102C154.797 354.899 155.956 355.34 157.156 355.341Z" fill="#33192C"/>
<path d="M130.716 356.382C134.864 356.689 139.035 356.304 143.057 355.243C143.885 355.024 144.626 354.554 145.177 353.898C145.728 353.242 146.064 352.431 146.137 351.577L154.857 250.447L160.215 222.381L124.86 238.546C124.86 238.546 123.609 309.058 126.87 352.551C126.947 353.544 127.378 354.477 128.083 355.18C128.789 355.883 129.723 356.309 130.716 356.382Z" fill="#4C222E"/>
<path d="M176.475 260.206C177.52 256.133 171.437 212.464 171.437 212.464L119.249 216.093C119.555 218.908 121.242 260.697 125.927 264.147C130.612 267.597 175.434 264.279 176.475 260.206Z" fill="#ED2B47"/>
<path d="M194.437 207.716C194.437 207.716 170.466 196.413 169.859 196.404L175.666 213.473L189.215 216.939L194.437 207.716Z" fill="#ED2B47"/>
<path d="M147.463 152.444C147.463 152.444 131.931 152.476 126.024 153.09C116.845 154.045 115.107 177.647 115.107 177.647C114.571 193.342 115.693 214.888 120.914 222.072C128.795 232.929 138.59 231.653 138.59 231.653L183.838 228.107C183.838 228.107 186.574 212.778 183.757 206.965L174.466 206.142L167.344 169.12C167.344 169.12 165.883 156.333 148.855 152.727C149.498 153.053 147.463 152.444 147.463 152.444Z" fill="#ED2B47"/>
<path d="M139.403 205.584C139.451 205.605 139.504 205.611 139.555 205.604C139.606 205.596 139.655 205.575 139.695 205.542C139.735 205.509 139.765 205.465 139.783 205.416C139.8 205.367 139.804 205.315 139.794 205.264C139.752 205.061 135.724 184.859 134.149 172.179C134.145 172.142 134.133 172.106 134.114 172.074C134.096 172.041 134.071 172.013 134.042 171.99C134.012 171.967 133.979 171.95 133.943 171.94C133.907 171.93 133.869 171.927 133.832 171.931C133.795 171.936 133.759 171.948 133.727 171.966C133.694 171.985 133.666 172.009 133.643 172.039C133.62 172.068 133.603 172.102 133.593 172.138C133.583 172.174 133.58 172.212 133.585 172.249C135.162 184.952 139.194 205.173 139.234 205.375C139.243 205.421 139.264 205.464 139.293 205.5C139.323 205.537 139.361 205.566 139.403 205.584Z" fill="#21111D"/>
<path d="M167.156 206.131C167.231 206.126 167.302 206.092 167.352 206.035C167.402 205.978 167.427 205.904 167.423 205.829C167.409 205.596 166.064 182.318 164.698 174.588C164.685 174.513 164.643 174.447 164.581 174.404C164.519 174.361 164.443 174.344 164.368 174.357C164.294 174.371 164.228 174.413 164.185 174.475C164.142 174.537 164.125 174.613 164.139 174.688C165.497 182.383 166.84 205.629 166.854 205.861C166.856 205.899 166.865 205.936 166.882 205.969C166.898 206.003 166.921 206.034 166.949 206.059C166.977 206.084 167.01 206.103 167.045 206.115C167.081 206.128 167.118 206.133 167.156 206.131Z" fill="#21111D"/>
<path d="M170.707 200.998L170.749 201.021C170.811 201.047 170.881 201.05 170.945 201.029C171.009 201.009 171.064 200.966 171.1 200.909L173.123 197.699L173.102 197.587L167.625 169.075C167.595 168.82 167.16 165.502 164.48 161.773C161.978 158.286 156.963 153.764 147.28 152.137C147.242 152.127 147.202 152.126 147.163 152.133C147.124 152.139 147.087 152.154 147.055 152.176C147.022 152.198 146.994 152.226 146.972 152.259C146.951 152.292 146.936 152.329 146.93 152.368C146.924 152.407 146.925 152.446 146.935 152.485C146.945 152.523 146.962 152.559 146.986 152.59C147.01 152.621 147.041 152.647 147.075 152.666C147.11 152.684 147.148 152.696 147.187 152.699C156.659 154.292 161.558 158.679 163.997 162.078C166.642 165.763 167.056 169.117 167.061 169.152V169.173L172.526 197.585L170.624 200.607C170.583 200.67 170.57 200.746 170.585 200.82C170.601 200.893 170.645 200.957 170.707 200.998Z" fill="#21111D"/>
<path d="M135.069 153.743C135.387 155.243 137.522 158.253 141.508 158.284C142.625 158.294 143.738 158.131 144.806 157.802C145.727 157.51 146.517 156.906 147.04 156.094C147.563 155.282 147.787 154.312 147.672 153.353L147.066 148.024C150.55 147.559 150.423 143.563 150.423 143.563L150.525 131.155L136.268 127.989L135.71 141.601L135.803 145.113C135.803 145.113 134.749 152.246 135.069 153.743Z" fill="#FE9F73"/>
<path d="M147.073 148.024C147.073 148.024 141.661 149.066 139.015 144.569C139.015 144.569 139.194 151.249 147.521 151.953L147.073 148.024Z" fill="#F07162"/>
<path d="M140.976 137.534C141.062 137.446 143.09 135.41 144.925 136.916C144.941 136.93 144.961 136.94 144.981 136.947C145.002 136.953 145.024 136.955 145.046 136.953C145.068 136.951 145.089 136.945 145.108 136.935C145.127 136.925 145.144 136.911 145.158 136.894C145.172 136.877 145.182 136.858 145.189 136.837C145.195 136.816 145.197 136.794 145.195 136.773C145.193 136.751 145.187 136.73 145.177 136.711C145.167 136.691 145.153 136.674 145.136 136.66C143.062 134.959 140.758 137.279 140.737 137.302C140.706 137.333 140.689 137.375 140.689 137.418C140.689 137.462 140.706 137.504 140.737 137.534C140.751 137.55 140.769 137.562 140.789 137.571C140.808 137.579 140.829 137.583 140.85 137.583C140.874 137.585 140.897 137.581 140.918 137.572C140.94 137.564 140.96 137.551 140.976 137.534Z" fill="black"/>
<path d="M138.439 130.044C137.775 128.856 135.146 135.793 135.146 135.793L138.725 136.57L139.366 137.246C139.366 137.246 139.106 131.23 138.439 130.044Z" fill="black"/>
<path d="M147.819 136.605C147.833 136.591 149.264 135.389 150.042 136.068C150.075 136.096 150.118 136.11 150.161 136.107C150.205 136.104 150.245 136.084 150.274 136.051C150.288 136.035 150.299 136.016 150.306 135.996C150.313 135.975 150.316 135.953 150.315 135.932C150.313 135.91 150.307 135.889 150.298 135.869C150.288 135.85 150.274 135.833 150.258 135.819C149.264 134.949 147.668 136.284 147.6 136.351C147.567 136.38 147.547 136.42 147.543 136.464C147.54 136.507 147.554 136.55 147.582 136.584C147.597 136.602 147.617 136.616 147.638 136.626C147.66 136.636 147.683 136.642 147.707 136.642C147.748 136.642 147.787 136.629 147.819 136.605Z" fill="black"/>
<path d="M144.209 138.283C144.21 138.184 144.182 138.087 144.128 138.005C144.073 137.922 143.996 137.857 143.905 137.818C143.814 137.78 143.714 137.769 143.617 137.787C143.52 137.806 143.43 137.852 143.36 137.922C143.289 137.991 143.241 138.08 143.221 138.176C143.201 138.273 143.21 138.374 143.247 138.465C143.284 138.557 143.347 138.636 143.428 138.691C143.51 138.747 143.606 138.777 143.705 138.778C143.771 138.779 143.836 138.767 143.897 138.742C143.957 138.717 144.013 138.681 144.06 138.635C144.106 138.589 144.144 138.534 144.169 138.474C144.195 138.414 144.209 138.349 144.209 138.283Z" fill="black"/>
<path d="M149.507 137.827C149.508 137.728 149.48 137.631 149.426 137.549C149.371 137.466 149.294 137.401 149.203 137.363C149.112 137.324 149.011 137.313 148.914 137.332C148.817 137.35 148.728 137.397 148.657 137.467C148.587 137.536 148.539 137.625 148.519 137.722C148.499 137.819 148.508 137.92 148.546 138.011C148.583 138.103 148.646 138.181 148.728 138.237C148.81 138.292 148.907 138.322 149.006 138.323C149.071 138.323 149.136 138.311 149.197 138.286C149.257 138.262 149.313 138.225 149.359 138.179C149.406 138.133 149.443 138.079 149.468 138.018C149.494 137.958 149.507 137.893 149.507 137.827Z" fill="black"/>
<path d="M140.096 138.076C140.1 137.485 139.929 136.905 139.605 136.411C139.281 135.916 138.817 135.529 138.273 135.298C137.729 135.068 137.129 135.003 136.548 135.114C135.968 135.224 135.433 135.504 135.011 135.919C134.59 136.333 134.3 136.863 134.18 137.442C134.059 138.021 134.113 138.623 134.334 139.172C134.555 139.72 134.933 140.191 135.421 140.524C135.909 140.858 136.485 141.039 137.076 141.045C137.469 141.049 137.859 140.975 138.224 140.828C138.589 140.681 138.921 140.463 139.201 140.188C139.482 139.912 139.705 139.583 139.858 139.221C140.012 138.859 140.093 138.47 140.096 138.076Z" fill="#FE9F73"/>
<path d="M135.887 137.402C135.665 137.543 135.497 137.754 135.41 138.001C135.322 138.248 135.32 138.518 135.404 138.767C135.47 139.028 135.619 139.261 135.828 139.43C136.037 139.6 136.296 139.697 136.565 139.708H136.581C136.593 139.71 136.605 139.71 136.617 139.706C136.629 139.703 136.64 139.697 136.649 139.69C136.658 139.682 136.666 139.672 136.671 139.661C136.676 139.65 136.679 139.638 136.679 139.626C136.679 139.613 136.676 139.601 136.671 139.59C136.666 139.579 136.658 139.57 136.649 139.562C136.64 139.554 136.629 139.548 136.617 139.545C136.605 139.542 136.593 139.541 136.581 139.543H136.563C136.328 139.536 136.102 139.451 135.92 139.302C135.739 139.153 135.611 138.949 135.557 138.72C135.485 138.506 135.487 138.275 135.561 138.062C135.635 137.849 135.777 137.667 135.966 137.544C136.811 137.03 137.517 137.727 137.545 137.758L137.757 137.969L137.687 137.679C137.645 137.453 137.556 137.239 137.426 137.05C137.296 136.862 137.128 136.703 136.932 136.584C136.478 136.365 135.957 136.326 135.476 136.474C135.464 136.477 135.453 136.481 135.443 136.488C135.434 136.495 135.425 136.504 135.419 136.514C135.413 136.524 135.41 136.536 135.408 136.547C135.407 136.559 135.408 136.571 135.412 136.582C135.416 136.594 135.422 136.604 135.429 136.613C135.437 136.621 135.447 136.628 135.458 136.633C135.469 136.638 135.481 136.64 135.492 136.64C135.504 136.64 135.516 136.637 135.527 136.632C135.966 136.502 136.437 136.535 136.853 136.728C137.134 136.896 137.346 137.159 137.45 137.469C137.225 137.305 136.957 137.211 136.678 137.199C136.4 137.187 136.125 137.257 135.887 137.402Z" fill="#F07162"/>
<path d="M145.861 141.601C145.865 141.618 145.875 141.633 145.889 141.643C145.903 141.654 145.92 141.659 145.937 141.659H145.965L147.765 141.078L147.254 137.016C147.251 136.994 147.24 136.974 147.223 136.961C147.205 136.947 147.183 136.941 147.161 136.944C147.14 136.947 147.12 136.958 147.106 136.976C147.093 136.993 147.087 137.015 147.089 137.037L147.582 140.961L145.914 141.501C145.894 141.507 145.877 141.521 145.867 141.54C145.857 141.558 145.855 141.58 145.861 141.601Z" fill="#F07162"/>
<path d="M147.926 143.212C147.926 143.212 144.688 143.261 144.637 143.27C144.637 143.27 145.101 144.59 146.304 144.569C147.507 144.548 147.926 143.212 147.926 143.212Z" fill="#FBFDFC"/>
<path d="M149.273 123.025C148.042 121.93 137.784 125.648 135.984 127.803C134.184 129.958 135.146 135.789 135.146 135.789C136.564 133.644 138.646 132.024 141.071 131.176C146.325 132.924 155.173 131.446 154.271 127.793C153.37 124.141 149.254 125.424 149.254 125.424C149.254 125.424 150.504 124.123 149.273 123.025Z" fill="black"/>
<path d="M131.859 203.441L139.41 205.443C139.446 205.453 139.484 205.455 139.521 205.45C139.558 205.445 139.594 205.433 139.627 205.414C139.659 205.396 139.687 205.37 139.71 205.341C139.733 205.311 139.749 205.277 139.759 205.24C139.777 205.167 139.766 205.089 139.728 205.024C139.69 204.959 139.627 204.911 139.554 204.892L132.005 202.89C131.936 202.873 131.863 202.882 131.8 202.917C131.737 202.951 131.69 203.008 131.666 203.075C131.643 203.143 131.647 203.217 131.675 203.283C131.704 203.348 131.756 203.401 131.822 203.429L131.859 203.441Z" fill="#21111D"/>
<path d="M180.818 201.465C180.888 201.496 180.966 201.498 181.037 201.47C181.108 201.443 181.165 201.389 181.196 201.32C181.227 201.25 181.229 201.171 181.201 201.101C181.174 201.03 181.12 200.973 181.051 200.942L172.937 197.378C172.868 197.347 172.79 197.345 172.719 197.372C172.649 197.399 172.592 197.453 172.561 197.522C172.53 197.591 172.528 197.67 172.555 197.74C172.582 197.811 172.636 197.868 172.705 197.899L180.818 201.465Z" fill="#21111D"/>
<path d="M214.447 228.44C215.376 228.5 216.09 227.975 216.199 227.187L221.509 187.881C221.657 186.784 220.58 185.658 219.325 185.577L192.66 183.822C191.742 183.761 191.015 184.287 190.908 185.077L185.596 224.381C185.448 225.478 186.525 226.603 187.78 226.687L214.447 228.44Z" fill="#20111D"/>
<path d="M190.892 208.323L190.839 208.339C191.61 209.032 191.454 208.788 190.892 208.323Z" fill="#FE9F73"/>
<path d="M193.633 210.704L200.193 207.984C200.527 207.844 200.797 207.583 200.947 207.253C201.098 206.923 201.119 206.548 201.006 206.203C200.94 206.031 200.841 205.873 200.714 205.74C200.587 205.607 200.434 205.501 200.265 205.428C200.096 205.355 199.914 205.316 199.73 205.315C199.546 205.313 199.364 205.349 199.194 205.419C199.194 205.419 194.409 207.117 190.892 208.314C191.454 208.779 191.61 209.032 190.839 208.33C189.273 208.865 187.965 209.295 187.457 209.43L190.493 208.009C190.625 208.135 190.739 208.242 190.839 208.33L190.892 208.314C190.298 207.812 189.255 207.054 188.367 206.875C186.33 206.463 180.953 211.448 180.953 211.448C180.707 211.878 180.953 212.843 181.348 213.556C182.848 221.533 183.146 222.749 183.747 224.862L192.037 222.33C194.43 221.6 196.935 221.312 199.431 221.479L200.058 221.521C200.241 221.533 200.425 221.509 200.599 221.448C200.773 221.388 200.933 221.293 201.069 221.17C201.206 221.047 201.316 220.897 201.394 220.73C201.471 220.563 201.515 220.382 201.521 220.198C201.519 219.836 201.38 219.487 201.132 219.223C200.884 218.959 200.545 218.798 200.183 218.773L195.649 218.469C195.566 218.462 195.488 218.424 195.431 218.362C195.374 218.3 195.343 218.219 195.343 218.135C195.343 218.051 195.374 217.97 195.431 217.908C195.488 217.847 195.566 217.808 195.649 217.801L202.362 217.357C202.535 217.354 202.704 217.31 202.856 217.23C203.009 217.149 203.141 217.034 203.241 216.894C203.342 216.754 203.408 216.592 203.435 216.421C203.461 216.25 203.448 216.076 203.396 215.911C203.282 215.537 203.047 215.21 202.729 214.982C202.411 214.753 202.026 214.637 201.635 214.649L194.79 215.114C194.713 215.119 194.636 215.098 194.574 215.053C194.511 215.008 194.466 214.942 194.446 214.868L194.418 214.758C194.407 214.716 194.403 214.672 194.409 214.629C194.414 214.585 194.428 214.544 194.45 214.506C194.471 214.467 194.5 214.434 194.534 214.407C194.569 214.38 194.608 214.361 194.65 214.349L201.988 212.378C202.338 212.283 202.639 212.059 202.831 211.751C203.023 211.443 203.092 211.074 203.024 210.718C202.982 210.539 202.904 210.37 202.795 210.221C202.687 210.073 202.549 209.948 202.391 209.853C202.233 209.759 202.058 209.697 201.876 209.672C201.694 209.647 201.508 209.659 201.331 209.706L193.937 211.692C193.852 211.715 193.762 211.703 193.685 211.66C193.609 211.616 193.552 211.544 193.529 211.459L193.436 211.113C193.411 211.032 193.417 210.945 193.454 210.869C193.49 210.793 193.554 210.734 193.633 210.704Z" fill="#FE9F73"/>
<path d="M207.556 199.052C207.566 198.717 207.508 198.384 207.386 198.072C207.263 197.761 207.078 197.478 206.842 197.241C206.606 197.003 206.324 196.817 206.013 196.692C205.703 196.568 205.37 196.509 205.036 196.518C204.343 196.559 203.693 196.863 203.218 197.369C202.742 197.875 202.479 198.544 202.48 199.238C202.47 199.572 202.527 199.906 202.65 200.218C202.773 200.529 202.958 200.812 203.194 201.05C203.43 201.287 203.712 201.474 204.023 201.598C204.333 201.722 204.666 201.781 205.001 201.772C205.693 201.731 206.344 201.426 206.819 200.92C207.294 200.415 207.558 199.746 207.556 199.052Z" fill="white"/>
<path d="M188.458 206.317L188.082 209.244L191.194 208.202L191.155 206.084L188.458 206.317Z" fill="#20111D"/>
<path d="M192.658 184.108L219.325 185.863C219.362 185.865 219.398 185.86 219.432 185.847C219.467 185.835 219.498 185.815 219.524 185.79C219.55 185.764 219.571 185.734 219.585 185.7C219.598 185.666 219.605 185.63 219.604 185.593C219.604 185.517 219.576 185.444 219.525 185.387C219.474 185.331 219.403 185.296 219.328 185.289L192.662 183.536C191.61 183.466 190.758 184.091 190.632 185.021L187.42 209.486L188.082 209.253L191.185 185.135C191.273 184.477 191.879 184.057 192.658 184.108Z" fill="#21111D"/>
<path d="M183.743 206.965L176.735 211.48L181.167 218.039L183.824 228.107C186.477 214.091 183.743 206.965 183.743 206.965Z" fill="#ED2B47"/>
<path d="M184.728 221.11C184.765 221.113 184.802 221.109 184.838 221.097C184.873 221.086 184.906 221.068 184.935 221.043C184.963 221.019 184.987 220.99 185.004 220.956C185.021 220.923 185.031 220.887 185.034 220.849C185.822 211.592 184.082 207.054 184.008 206.865L183.945 206.707L183.778 206.686C170.791 205.127 130.084 204.959 129.676 204.957C129.6 204.957 129.527 204.987 129.474 205.041C129.42 205.094 129.39 205.167 129.39 205.243C129.39 205.299 129.406 205.354 129.438 205.401C129.469 205.448 129.514 205.484 129.566 205.505C129.6 205.52 129.636 205.528 129.673 205.529C130.082 205.529 170.394 205.694 183.534 207.231C183.829 208.109 185.16 212.631 184.463 220.801C184.459 220.838 184.463 220.876 184.475 220.913C184.486 220.949 184.505 220.982 184.53 221.011C184.554 221.04 184.585 221.064 184.619 221.081C184.653 221.097 184.69 221.107 184.728 221.11Z" fill="#21111D"/>
<path d="M146.005 230.697C162.466 230.697 182.616 228.57 183.866 228.438C183.953 228.428 184.033 228.384 184.089 228.316C184.144 228.248 184.17 228.16 184.161 228.073C184.156 228.029 184.143 227.987 184.123 227.948C184.102 227.909 184.073 227.875 184.039 227.848C184.005 227.82 183.966 227.8 183.924 227.788C183.881 227.776 183.837 227.772 183.794 227.777C183.345 227.826 138.753 232.532 127.553 228.135C116.485 223.793 115.706 199.382 115.706 199.135C115.706 199.092 115.696 199.049 115.678 199.009C115.661 198.969 115.636 198.933 115.604 198.903C115.573 198.873 115.535 198.85 115.495 198.834C115.454 198.818 115.411 198.811 115.367 198.812C115.279 198.815 115.195 198.852 115.134 198.916C115.073 198.98 115.04 199.066 115.042 199.154C115.07 200.177 115.834 224.262 127.313 228.754C130.995 230.202 138.072 230.697 146.005 230.697Z" fill="#21111D"/>
<path d="M148.539 157.254C148.564 156.933 147.728 153.069 147.728 153.069L143.8 157.254L134.117 154.324L128.605 163.575C128.605 163.575 142.985 162.05 143.55 162.099C144.114 162.147 148.516 157.572 148.539 157.254Z" fill="#ED2B47"/>
<path d="M129.367 265.463H129.39C129.474 265.459 129.553 265.424 129.612 265.365C129.671 265.306 129.705 265.226 129.708 265.142C129.711 265.059 129.682 264.977 129.628 264.913C129.573 264.85 129.496 264.809 129.413 264.8C124.768 264.468 124.126 260.511 123.067 253.955C122.877 252.776 122.682 251.558 122.445 250.249C120.87 241.54 120.178 220.447 120.171 220.236C120.168 220.149 120.132 220.067 120.07 220.006C120.008 219.946 119.925 219.912 119.839 219.912C119.751 219.916 119.668 219.954 119.608 220.019C119.548 220.083 119.516 220.168 119.518 220.256C119.518 220.468 120.215 241.612 121.804 250.368C122.036 251.67 122.236 252.885 122.424 254.062C123.485 260.704 124.194 265.093 129.367 265.463Z" fill="#21111D"/>
<path d="M124.18 152.444C125.755 154.399 133.936 155.001 136.1 155.712C138.265 156.424 143.71 158.079 143.71 158.079C145.148 157.01 149.01 152.469 149.01 152.469L152.917 153.555C152.994 149.584 147.15 148.715 147.15 148.715L147.547 152.183C147.547 152.183 145.15 155.782 143.51 156.944C140.258 154.687 135.067 151.486 135.067 151.486L135.478 147.515C129.441 146.815 122.607 150.486 124.18 152.444Z" fill="#D31E41"/>
<path d="M682.455 167.034L683.907 167.255V167.25L682.455 167.034Z" fill="#4A263E"/>
<path d="M687.877 181.267C682.767 175.52 683.889 167.383 683.907 167.255L681.006 166.813C680.946 167.202 679.633 176.385 685.652 183.194C689.728 187.802 696.085 190.131 704.57 190.131C705.035 190.131 705.52 190.131 706.004 190.108L705.918 187.172C697.649 187.418 691.577 185.431 687.877 181.267Z" fill="#0D0052"/>
<path d="M689.075 120.445C683.965 114.681 685.094 106.512 685.108 106.431L683.656 106.212L685.108 106.445L682.204 106.003C682.146 106.391 680.832 115.574 686.85 122.386C690.926 126.991 697.286 129.321 705.769 129.321C706.233 129.321 706.712 129.314 707.204 129.3L707.116 126.361C698.847 126.596 692.775 124.611 689.075 120.445Z" fill="#0D0052"/>
<path d="M683.907 245.202L682.46 244.986L683.907 245.204V245.202Z" fill="#4A263E"/>
<path d="M683.907 245.204L682.46 244.986L682.455 244.983L683.907 245.204Z" fill="#4A263E"/>
<path d="M687.877 259.218C682.766 253.471 683.888 245.334 683.907 245.207L682.455 244.974L681.001 244.742C680.941 245.13 679.628 254.311 685.647 261.122C689.723 265.728 696.081 268.06 704.566 268.06C705.03 268.06 705.516 268.06 705.999 268.036L705.913 265.1C697.649 265.367 691.577 263.382 687.877 259.218Z" fill="#0D0052"/>
<path d="M733.793 135.556C733.812 135.686 734.929 143.823 729.823 149.57C726.126 153.734 720.052 155.719 711.773 155.473L711.687 158.411C712.17 158.425 712.651 158.432 713.12 158.432C721.606 158.432 727.963 156.108 732.039 151.497C738.067 144.686 736.755 135.503 736.685 135.114L733.793 135.556Z" fill="#0D0052"/>
<path d="M733.793 135.542V135.544L735.245 135.324L733.793 135.542Z" fill="#4A263E"/>
<path d="M711.829 70.3609H708.422H708.419H705.012V70.4702L703.309 370.701H713.532L711.829 70.4702V70.3609Z" fill="#0D0052"/>
<path d="M741.112 71.4257C741.112 71.4257 739.619 56.0609 727.252 60.7547C727.252 60.7547 719.15 49.6583 709.555 62.8889C709.555 62.8889 703.372 45.6038 686.527 52.0064C669.682 58.409 676.075 75.2547 676.075 75.2547C676.075 75.2547 672.182 74.5875 670.732 78.077C669.485 81.0993 671.385 84.5145 674.553 85.2979C684.541 87.7646 711.506 93.2024 738.099 87.8552C743.312 86.8067 747.045 81.9781 746.394 76.6961C746.09 74.1271 744.71 71.9069 741.112 71.4257Z" fill="#56ABFF"/>
<path d="M703.302 157.465C695.637 157.251 692.643 163.547 692.643 163.547C692.643 163.547 689.656 146.576 677.289 148.501C664.923 150.426 666.417 163.868 666.417 163.868C666.417 163.868 661.074 160.878 658.312 166.002C657.851 166.799 657.605 167.702 657.598 168.623C657.592 169.544 657.825 170.451 658.275 171.254C659.437 173.474 661.734 174.876 664.233 175.099C671.095 175.717 690.404 177.145 701.609 174.855C707.941 173.562 711.574 166.604 708.559 160.883C707.564 158.997 705.941 157.537 703.302 157.465Z" fill="#56ABFF"/>
<path d="M747.974 130.016C747.974 130.016 749.163 119.301 739.307 117.771C729.452 116.241 727.073 129.76 727.073 129.76C726.253 128.237 725.022 126.975 723.52 126.118C722.019 125.261 720.306 124.843 718.579 124.913C716.474 124.973 715.183 126.136 714.398 127.638C711.996 132.197 714.89 137.741 719.935 138.771C728.864 140.596 744.252 139.469 749.72 138.967C750.704 138.891 751.653 138.572 752.482 138.037C753.311 137.502 753.994 136.768 754.468 135.902C754.825 135.262 755.011 134.539 755.005 133.806C754.999 133.072 754.803 132.353 754.435 131.718C752.22 127.635 747.974 130.016 747.974 130.016Z" fill="#56ABFF"/>
<path d="M695.381 239.374C693.927 239.315 692.486 239.666 691.222 240.387C689.958 241.109 688.922 242.171 688.232 243.454C688.232 243.454 686.23 232.074 677.935 233.362C669.641 234.649 670.642 243.668 670.642 243.668C670.642 243.668 667.067 241.663 665.209 245.1C664.899 245.634 664.734 246.239 664.729 246.857C664.724 247.475 664.88 248.083 665.181 248.622C665.58 249.351 666.155 249.968 666.853 250.419C667.551 250.869 668.35 251.139 669.178 251.202C673.78 251.616 686.732 252.572 694.246 251.037C698.492 250.17 700.928 245.504 698.907 241.666C698.243 240.406 697.154 239.422 695.381 239.374Z" fill="#56ABFF"/>
<path d="M704.043 99.6746C702.589 99.616 701.147 99.9674 699.883 100.689C698.618 101.41 697.582 102.472 696.891 103.755C696.891 103.755 694.889 92.377 686.597 93.665C678.304 94.9529 679.303 103.969 679.303 103.969C679.303 103.969 675.726 101.967 673.868 105.401C673.559 105.935 673.393 106.541 673.389 107.158C673.385 107.776 673.541 108.384 673.842 108.923C674.241 109.652 674.815 110.269 675.513 110.72C676.211 111.171 677.01 111.44 677.838 111.503C682.439 111.917 695.391 112.875 702.907 111.338C707.153 110.471 709.59 105.805 707.567 101.969C706.9 100.705 705.813 99.7258 704.043 99.6746Z" fill="#56ABFF"/>
<path d="M49.8327 141.429L51.4656 141.675L51.4679 141.673L49.8327 141.429Z" fill="#4A263E"/>
<path d="M55.9346 157.451C50.1881 150.981 51.447 141.821 51.4679 141.677L48.1998 141.18C48.1324 141.617 46.6551 151.953 53.44 159.62C58.0274 164.805 65.1862 167.429 74.7374 167.429C75.267 167.429 75.8051 167.421 76.3518 167.404L76.2542 164.098C66.9353 164.384 60.104 162.138 55.9346 157.451Z" fill="#0D0052"/>
<path d="M57.2841 88.9828C51.5213 82.4942 52.8035 73.2972 52.8175 73.2042L51.1915 72.9717L52.8175 73.2204L49.5493 72.7229C49.4843 73.16 48.0047 83.4962 54.7895 91.1635C59.3793 96.3502 66.5381 98.9726 76.087 98.9726C76.6166 98.9726 77.1578 98.9726 77.7013 98.947L77.6037 95.6411C68.2848 95.9061 61.4489 93.6696 57.2841 88.9828Z" fill="#0D0052"/>
<path d="M51.4679 229.423L49.8373 229.179L51.4656 229.428L51.4679 229.423Z" fill="#4A263E"/>
<path d="M51.4656 229.428L49.8373 229.179H49.8327L51.4656 229.428Z" fill="#4A263E"/>
<path d="M55.9346 245.202C50.1881 238.732 51.447 229.572 51.4679 229.428L49.842 229.179L48.2044 228.93C48.1371 229.367 46.6598 239.706 53.4446 247.371C58.0321 252.558 65.1908 255.18 74.7421 255.18C75.2717 255.18 75.8098 255.172 76.3564 255.154L76.2588 251.849C66.9352 252.125 60.104 249.889 55.9346 245.202Z" fill="#0D0052"/>
<path d="M107.623 105.98C107.644 106.124 108.903 115.279 103.157 121.754C98.9918 126.443 92.1559 128.677 82.8369 128.403L82.7394 131.708C83.2829 131.725 83.8241 131.732 84.3537 131.732C93.9026 131.732 101.061 129.109 105.651 123.925C112.436 116.253 110.956 105.919 110.891 105.482L107.623 105.98Z" fill="#0D0052"/>
<path d="M107.623 105.977V105.98L109.258 105.731L107.623 105.977Z" fill="#4A263E"/>
<path d="M82.8996 32.6034H82.8973H79.0624H79.0601H75.2252H75.2229L75.2252 32.7243L73.3066 370.701H84.8159L82.8973 32.7243L82.8996 32.6034Z" fill="#0D0052"/>
<path d="M115.862 33.8007C115.862 33.8007 114.183 16.5016 100.26 21.7883C100.26 21.7883 91.1385 9.29467 80.3376 24.1898C80.3376 24.1898 73.3693 4.73103 54.4155 11.938C35.4617 19.145 42.653 38.1249 42.653 38.1249C42.653 38.1249 38.2699 37.3716 36.644 41.2982C35.2503 44.6995 37.378 48.5471 40.9458 49.4351C52.181 52.211 82.5443 58.3346 112.487 52.3226C118.357 51.1416 122.556 45.7084 121.825 39.7685C121.465 36.8416 119.913 34.34 115.862 33.8007Z" fill="#56ABFF"/>
<path d="M73.2996 130.655C64.6589 130.423 61.3002 137.502 61.3002 137.502C61.3002 137.502 57.9392 118.403 44.0165 120.566C30.0938 122.728 31.7755 137.862 31.7755 137.862C31.7755 137.862 25.7758 134.501 22.654 140.266C22.135 141.163 21.8582 142.18 21.8509 143.217C21.8436 144.253 22.1059 145.274 22.6122 146.178C23.9245 148.68 26.5075 150.256 29.318 150.507C37.0412 151.204 58.78 152.809 71.3927 150.233C78.5212 148.775 82.6093 140.933 79.2157 134.505C78.0985 132.383 76.2705 130.739 73.2996 130.655Z" fill="#56ABFF"/>
<path d="M123.588 99.7537C123.588 99.7537 124.926 87.6925 113.832 85.9698C102.738 84.2471 100.06 99.4538 100.06 99.4538C100.06 99.4538 97.3821 93.8068 90.4974 93.9997C88.1305 94.0648 86.6741 95.3737 85.7822 97.0662C83.0785 102.197 86.3373 108.439 92.0165 109.599C102.067 111.652 119.39 110.371 125.546 109.818C126.653 109.733 127.721 109.373 128.654 108.771C129.587 108.168 130.355 107.342 130.888 106.368C131.291 105.647 131.499 104.833 131.493 104.007C131.487 103.181 131.267 102.37 130.853 101.655C128.368 97.0755 123.588 99.7537 123.588 99.7537Z" fill="#56ABFF"/>
<path d="M64.3872 222.863C62.7502 222.796 61.1275 223.191 59.7041 224.003C58.2807 224.815 57.1138 226.011 56.3365 227.454C56.3365 227.454 54.0834 214.644 44.7458 216.095C35.4083 217.546 36.5372 227.696 36.5372 227.696C36.5372 227.696 32.5118 225.441 30.419 229.307C30.0704 229.909 29.8843 230.591 29.879 231.286C29.8737 231.982 30.0494 232.666 30.3888 233.273C30.8384 234.093 31.4853 234.789 32.2709 235.296C33.0565 235.803 33.956 236.106 34.888 236.177C40.0678 236.642 54.6478 237.721 63.1073 235.993C67.8876 235.014 70.6308 229.763 68.3545 225.443C67.6042 224.02 66.3755 222.918 64.3872 222.863Z" fill="#56ABFF"/>
<path d="M74.1335 65.602C72.4968 65.5351 70.8743 65.9301 69.4512 66.742C68.028 67.5539 66.8616 68.7499 66.0851 70.1935C66.0851 70.1935 63.8204 57.3837 54.4922 58.8367C45.1639 60.2897 46.2835 70.4376 46.2835 70.4376C46.2835 70.4376 42.2582 68.1825 40.1653 72.0487C39.8168 72.6503 39.6307 73.3324 39.6254 74.0278C39.6201 74.7232 39.7958 75.408 40.1351 76.0149C40.5847 76.8351 41.2316 77.5302 42.0172 78.0372C42.8028 78.5443 43.7023 78.8472 44.6343 78.9186C49.8141 79.3836 64.3941 80.4623 72.8537 78.7326C77.6339 77.7562 80.3771 72.5044 78.1008 68.1849C77.3506 66.7597 76.1311 65.6554 74.1335 65.602Z" fill="#56ABFF"/>
<g style="mix-blend-mode:multiply">
<g style="mix-blend-mode:multiply">
<path d="M484.397 261.88V242.17H466.835V261.88H484.397Z" fill="#D0F6FC"/>
</g>
</g>
<g style="mix-blend-mode:multiply">
<g style="mix-blend-mode:multiply">
<path d="M475.35 342.849V323.139H457.788V342.849H475.35Z" fill="#D0F6FC"/>
</g>
</g>
<g style="mix-blend-mode:multiply">
<g style="mix-blend-mode:multiply">
<path d="M533.361 276.264V256.554H515.799V276.264H533.361Z" fill="#D0F6FC"/>
</g>
</g>
<g style="mix-blend-mode:multiply">
<g style="mix-blend-mode:multiply">
<path d="M668.015 305.029V285.319H650.452V305.029H668.015Z" fill="#D0F6FC"/>
</g>
</g>
<g style="mix-blend-mode:multiply">
<g style="mix-blend-mode:multiply">
<path d="M429.578 301.3V281.59H412.015V301.3H429.578Z" fill="#D0F6FC"/>
</g>
</g>
<g style="mix-blend-mode:multiply">
<g style="mix-blend-mode:multiply">
<path d="M564.763 284.784V228.319H547.2V284.784H564.763Z" fill="#D0F6FC"/>
</g>
</g>
<g style="mix-blend-mode:multiply">
<g style="mix-blend-mode:multiply">
<path d="M564.763 304.497V284.787H455.658V304.497H564.763Z" fill="#D0F6FC"/>
</g>
</g>
<g style="mix-blend-mode:multiply">
<g style="mix-blend-mode:multiply">
<path d="M604.148 323.139V266.674H586.585V323.139H604.148Z" fill="#D0F6FC"/>
</g>
</g>
<g style="mix-blend-mode:multiply">
<g style="mix-blend-mode:multiply">
<path d="M604.148 342.849V323.139H495.043V342.849H604.148Z" fill="#D0F6FC"/>
</g>
</g>
<path d="M649.783 333.115C649.783 333.115 575.701 345.204 574.816 344.67C573.931 344.135 564.456 302.695 564.456 302.695C564.456 302.695 625.719 291.85 626.706 291.854C627.694 291.859 640.985 302.548 641.161 303.269C641.338 303.99 649.783 333.115 649.783 333.115Z" fill="#3A2645"/>
<path d="M420.798 350.245C419.021 350.417 336.267 350.6 336.267 350.6L339.247 320.364C339.247 320.364 351.73 301.586 358.294 301.946C364.858 302.307 403.955 296.076 410.687 300.784C417.418 305.492 423.462 301.77 426.628 312.975C429.794 324.181 432.284 325.443 429.775 332.183C427.267 338.923 420.798 350.245 420.798 350.245Z" fill="#3A2645"/>
<path d="M612.37 370.938C629.227 370.938 642.892 357.257 642.892 340.38C642.892 323.504 629.227 309.823 612.37 309.823C595.514 309.823 581.849 323.504 581.849 340.38C581.849 357.257 595.514 370.938 612.37 370.938Z" fill="#1A1A1A"/>
<path d="M633.564 340.45C633.617 328.709 624.153 319.147 612.426 319.094C600.698 319.04 591.148 328.516 591.095 340.258C591.042 351.999 600.506 361.561 612.233 361.614C623.961 361.668 633.511 352.192 633.564 340.45Z" fill="#9E9DA2"/>
<g style="mix-blend-mode:multiply" opacity="0.5">
<g style="mix-blend-mode:multiply" opacity="0.5">
<path d="M624.263 322.765C626.83 326.899 627.901 331.79 627.298 336.62C626.696 341.45 624.455 345.927 620.95 349.302C617.446 352.676 612.89 354.745 608.045 355.162C603.2 355.58 598.358 354.319 594.329 351.593C596 354.283 598.25 356.566 600.915 358.274C603.581 359.982 606.594 361.073 609.734 361.465C612.874 361.858 616.063 361.543 619.066 360.544C622.069 359.545 624.811 357.886 627.092 355.69C629.373 353.494 631.134 350.815 632.247 347.85C633.36 344.885 633.797 341.708 633.526 338.552C633.255 335.396 632.282 332.341 630.68 329.609C629.077 326.878 626.885 324.539 624.263 322.765Z" fill="#9E9DA2"/>
</g>
</g>
<path d="M612.465 354.559C620.308 354.521 626.635 348.124 626.597 340.271C626.559 332.419 620.169 326.084 612.326 326.122C604.483 326.161 598.156 332.558 598.195 340.41C598.233 348.263 604.622 354.598 612.465 354.559Z" fill="#D8D9DD"/>
<g style="mix-blend-mode:screen" opacity="0.3">
<g style="mix-blend-mode:screen" opacity="0.3">
<path d="M620.249 328.552C622.053 331.291 622.856 334.57 622.52 337.834C622.184 341.097 620.73 344.144 618.406 346.457C616.081 348.771 613.029 350.208 609.767 350.526C606.504 350.844 603.232 350.022 600.506 348.201C601.664 349.959 603.198 351.438 604.997 352.531C606.796 353.623 608.815 354.302 610.908 354.518C613.001 354.734 615.116 354.481 617.1 353.779C619.084 353.077 620.887 351.942 622.379 350.457C623.871 348.972 625.015 347.174 625.728 345.192C626.441 343.211 626.705 341.095 626.501 338.999C626.297 336.903 625.631 334.878 624.55 333.071C623.468 331.265 621.999 329.721 620.249 328.552Z" fill="#D8D9DD"/>
</g>
</g>
<path d="M407.901 339.802C407.951 322.926 394.327 309.204 377.47 309.154C360.614 309.104 346.909 322.744 346.859 339.621C346.809 356.497 360.433 370.219 377.289 370.269C394.146 370.319 407.851 356.678 407.901 339.802Z" fill="#1A1A1A"/>
<path d="M397.015 338.16C397.015 326.417 387.508 316.897 375.78 316.897C364.052 316.897 354.545 326.417 354.545 338.16C354.545 349.903 364.052 359.423 375.78 359.423C387.508 359.423 397.015 349.903 397.015 338.16Z" fill="#9E9DA2"/>
<g style="mix-blend-mode:multiply" opacity="0.5">
<g style="mix-blend-mode:multiply" opacity="0.5">
<path d="M389.273 322.098C391.84 326.232 392.912 331.123 392.309 335.953C391.706 340.783 389.465 345.259 385.96 348.634C382.456 352.009 377.9 354.078 373.055 354.495C368.21 354.912 363.368 353.652 359.339 350.926C361.01 353.616 363.26 355.899 365.925 357.607C368.591 359.315 371.604 360.405 374.744 360.798C377.885 361.191 381.073 360.876 384.076 359.877C387.079 358.878 389.822 357.219 392.102 355.023C394.383 352.827 396.144 350.148 397.257 347.183C398.37 344.218 398.807 341.041 398.536 337.885C398.265 334.729 397.292 331.673 395.69 328.942C394.087 326.211 391.895 323.872 389.273 322.098Z" fill="#9E9DA2"/>
</g>
</g>
<path d="M391.593 339.742C391.603 331.889 385.253 325.515 377.409 325.506C369.566 325.496 363.2 331.854 363.191 339.707C363.181 347.56 369.531 353.933 377.375 353.943C385.218 353.953 391.584 347.595 391.593 339.742Z" fill="#D8D9DD"/>
<g style="mix-blend-mode:screen" opacity="0.3">
<g style="mix-blend-mode:screen" opacity="0.3">
<path d="M385.259 327.884C387.066 330.623 387.871 333.904 387.536 337.169C387.201 340.434 385.748 343.482 383.422 345.797C381.097 348.111 378.043 349.549 374.779 349.865C371.515 350.182 368.242 349.358 365.516 347.534C366.674 349.292 368.208 350.771 370.007 351.863C371.806 352.956 373.825 353.635 375.918 353.85C378.011 354.066 380.126 353.814 382.11 353.112C384.094 352.41 385.897 351.275 387.389 349.79C388.881 348.305 390.025 346.507 390.738 344.525C391.451 342.543 391.715 340.428 391.511 338.332C391.307 336.236 390.641 334.211 389.559 332.404C388.478 330.597 387.009 329.054 385.259 327.884Z" fill="#D8D9DD"/>
</g>
</g>
<path d="M307.391 310.434C310.02 293.412 318.373 289.857 343.061 284.989C370.303 279.616 404.921 261.941 404.921 261.941C404.921 261.941 463.955 233.199 478.407 229.921C492.859 226.643 528.37 227.694 558.201 228.014C588.032 228.335 605.527 236.679 620.646 248.571C635.765 260.462 662.022 269.543 662.022 269.543L666.793 270.408C669.17 270.84 671.32 272.095 672.865 273.954C674.411 275.812 675.254 278.156 675.248 280.574L675.129 322.835C675.123 325.162 674.347 327.422 672.923 329.262C671.499 331.101 669.507 332.418 667.257 333.006L649.99 337.518C649.657 337.574 649.317 337.561 648.99 337.479C648.663 337.398 648.356 337.25 648.088 337.045C647.82 336.841 647.596 336.583 647.432 336.288C647.267 335.994 647.165 335.669 647.131 335.333C645.289 318.039 630.395 304.857 612.586 304.829C593.653 304.797 578.082 320.326 578.04 339.276C578.034 341.39 578.222 343.501 578.602 345.581C578.692 346.077 578.673 346.586 578.544 347.073C578.416 347.56 578.181 348.013 577.858 348.399C577.535 348.786 577.131 349.096 576.675 349.309C576.219 349.521 575.721 349.63 575.218 349.629L416.417 349.177C415.69 349.176 414.971 349.02 414.309 348.718C413.647 348.417 413.057 347.977 412.579 347.429C412.1 346.881 411.744 346.237 411.534 345.541C411.323 344.844 411.264 344.11 411.36 343.389C411.563 341.897 411.669 340.393 411.678 338.888C411.788 320.171 396.708 304.611 377.998 304.171C373.41 304.063 368.847 304.872 364.575 306.551C360.304 308.23 356.41 310.746 353.122 313.95C349.834 317.154 347.218 320.983 345.427 325.212C343.636 329.441 342.706 333.985 342.692 338.579C342.689 339.842 342.754 341.105 342.887 342.361C342.979 343.19 342.895 344.029 342.641 344.823C342.387 345.617 341.968 346.349 341.412 346.97C340.856 347.591 340.175 348.088 339.415 348.428C338.654 348.768 337.83 348.943 336.997 348.943L314.164 348.88C313.177 348.877 312.2 348.68 311.289 348.299C310.377 347.918 309.55 347.362 308.854 346.661C308.158 345.96 307.607 345.129 307.232 344.215C306.857 343.301 306.665 342.322 306.668 341.334L306.731 319.199C306.731 316.265 306.952 313.335 307.391 310.434Z" fill="#FE0000"/>
<path d="M674.228 285.573L655.414 285.519C655.042 285.518 654.676 285.609 654.348 285.783C654.02 285.958 653.74 286.211 653.533 286.52C653.326 286.829 653.199 287.184 653.162 287.554C653.125 287.924 653.181 288.298 653.323 288.641L655.414 293.693C656.392 296.048 658.044 298.061 660.161 299.48C662.278 300.898 664.767 301.659 667.315 301.667L674.163 301.686C674.482 301.687 674.798 301.625 675.092 301.504C675.387 301.382 675.655 301.204 675.881 300.979C676.107 300.754 676.287 300.487 676.41 300.193C676.533 299.898 676.596 299.582 676.597 299.263L676.63 288.007C676.632 287.366 676.38 286.75 675.93 286.294C675.48 285.838 674.868 285.579 674.228 285.573Z" fill="#CF283C"/>
<path d="M337.357 292.435C348.234 291.175 349.842 296.416 347.858 303.197C347.281 305.167 346.111 306.911 344.507 308.191C342.904 309.471 340.944 310.224 338.897 310.348L318.689 311.569C314.508 311.82 312.169 306.835 315.028 303.776C315.04 303.776 328.632 293.449 337.357 292.435Z" fill="#F9E2C5"/>
<path d="M675.015 324.409C675.314 324.402 675.61 324.469 675.877 324.605C676.144 324.74 676.373 324.94 676.544 325.185C676.714 325.431 676.822 325.715 676.856 326.013C676.891 326.31 676.851 326.611 676.741 326.889C676.056 328.605 674.978 330.136 673.594 331.359C672.21 332.582 670.558 333.462 668.772 333.929L649.423 338.985C649.051 339.048 648.669 339.034 648.302 338.943C647.936 338.852 647.591 338.687 647.291 338.458C646.99 338.229 646.74 337.94 646.556 337.61C646.371 337.28 646.256 336.916 646.218 336.54C645.876 333.327 645.118 330.172 643.965 327.154C643.876 326.921 643.845 326.671 643.874 326.423C643.903 326.176 643.991 325.939 644.13 325.732C644.269 325.526 644.456 325.356 644.675 325.237C644.893 325.118 645.137 325.053 645.386 325.048L675.015 324.409Z" fill="#B40000"/>
<path d="M342.553 331.43C342.898 331.424 343.24 331.493 343.556 331.632C343.871 331.771 344.153 331.976 344.382 332.235C344.611 332.493 344.781 332.798 344.88 333.129C344.98 333.46 345.007 333.808 344.959 334.15C344.561 337.183 344.523 340.253 344.845 343.296C344.948 344.216 344.855 345.147 344.573 346.028C344.291 346.91 343.826 347.722 343.209 348.411C342.593 349.101 341.837 349.652 340.993 350.029C340.148 350.406 339.234 350.601 338.309 350.6L312.972 350.528C310.761 350.521 308.642 349.636 307.083 348.067C305.523 346.497 304.65 344.372 304.654 342.159L304.673 335.596C304.676 334.701 305.028 333.843 305.654 333.204C306.28 332.566 307.131 332.198 308.025 332.178L342.553 331.43Z" fill="#B40000"/>
<g style="mix-blend-mode:multiply" opacity="0.5">
<g style="mix-blend-mode:multiply" opacity="0.5">
<path d="M404.278 272.037L404.469 272.66C404.564 272.977 414.057 304.685 414.436 335.022V335.826L507.711 334.268L508.536 334.25H509.309L576.254 332.718L576.316 332.004C576.316 331.92 577.122 323.616 583.433 315.77C591.781 305.389 606.008 300.484 624.57 301.588L625.255 301.628L631.738 271.649L631.461 271.345C630.462 270.243 606.796 244.272 588.585 238.534C570.505 232.838 511.646 233.95 508.819 234.006C507.757 233.95 483.159 232.797 461.095 242.949C438.797 253.206 405.189 271.545 404.852 271.726L404.278 272.037ZM509.328 332.636L509.602 235.591C516.802 235.475 571.329 234.775 588.111 240.059C604.893 245.344 627.269 269.155 630.007 272.119L624 299.938C600.266 298.708 588.151 307.331 582.156 314.817C576.593 321.77 575.162 328.884 574.832 331.134L509.328 332.636ZM406.183 272.821C410.698 270.368 441.115 253.904 461.762 244.402C481.666 235.245 503.69 235.438 508.004 235.568L507.73 332.662L416.024 334.192C415.527 306.24 407.504 277.398 406.18 272.821H406.183Z" fill="#FEB546"/>
</g>
</g>
<path d="M407.465 341.071C407.477 339.359 407.357 337.649 407.107 335.956C407.041 335.477 407.079 334.989 407.216 334.525C407.354 334.062 407.59 333.633 407.907 333.268C408.223 332.902 408.615 332.609 409.054 332.408C409.494 332.206 409.971 332.101 410.454 332.099L581.524 328.542C581.948 328.524 582.371 328.607 582.757 328.784C583.144 328.962 583.482 329.228 583.745 329.562C584.008 329.896 584.188 330.288 584.271 330.705C584.353 331.122 584.335 331.553 584.218 331.962C583.302 335.046 582.832 338.246 582.825 341.464C582.819 343.605 583.016 345.743 583.412 347.848C583.503 348.363 583.478 348.893 583.34 349.397C583.201 349.902 582.952 350.37 582.612 350.767C582.271 351.164 581.846 351.481 581.369 351.694C580.891 351.907 580.372 352.011 579.849 352L412.457 351.535C409.174 351.535 406.698 348.713 407.135 345.567C407.345 344.077 407.455 342.575 407.465 341.071Z" fill="#B40000"/>
<path d="M594.176 284.287L615.104 284.347C615.296 284.347 615.479 284.272 615.615 284.137C615.751 284.001 615.828 283.818 615.829 283.627V281.458C615.829 281.266 615.753 281.082 615.618 280.946C615.483 280.81 615.3 280.733 615.109 280.732L594.178 280.674C594.084 280.674 593.99 280.692 593.902 280.728C593.814 280.764 593.734 280.817 593.667 280.884C593.6 280.951 593.546 281.031 593.51 281.118C593.473 281.206 593.454 281.3 593.454 281.395V283.562C593.453 283.657 593.471 283.751 593.507 283.839C593.543 283.927 593.597 284.008 593.664 284.075C593.731 284.142 593.811 284.196 593.899 284.232C593.987 284.269 594.081 284.287 594.176 284.287Z" fill="#1A1A1A"/>
<path d="M480.569 285.772L501.498 285.831C501.593 285.831 501.687 285.813 501.775 285.777C501.862 285.741 501.942 285.688 502.01 285.621C502.077 285.554 502.131 285.474 502.167 285.387C502.203 285.299 502.222 285.205 502.222 285.11V282.943C502.223 282.848 502.204 282.754 502.168 282.666C502.132 282.578 502.079 282.499 502.012 282.431C501.945 282.364 501.866 282.31 501.778 282.274C501.691 282.237 501.597 282.218 501.502 282.218L480.572 282.157C480.38 282.157 480.197 282.233 480.061 282.368C479.925 282.503 479.848 282.686 479.847 282.878V285.047C479.847 285.142 479.865 285.237 479.901 285.324C479.938 285.412 479.991 285.492 480.058 285.56C480.125 285.627 480.205 285.681 480.292 285.717C480.38 285.754 480.474 285.772 480.569 285.772Z" fill="#1A1A1A"/>
<path d="M611.913 275.148L520.628 275.752C520.628 275.752 515.053 275.585 514.296 270.322C513.539 265.058 513.68 242.521 513.68 242.521C513.68 242.521 514.354 238 518.684 237.953C521.315 237.925 543.372 236.412 564.814 239.088C582.195 241.27 598.348 249.208 610.703 261.638L617.165 268.148C617.165 268.148 621.517 275.083 611.913 275.148Z" fill="#A4E4EA"/>
<path d="M503.521 245.353L503.453 268.98C503.453 272.049 501.084 274.56 498.111 274.676L426.377 277.371C425.557 277.408 424.742 277.235 424.007 276.869C423.273 276.503 422.644 275.955 422.18 275.278C420.898 273.376 420.758 270.252 427.197 266.081C438.393 258.828 466.872 243.156 477.397 241.67C484.093 240.717 492.855 240.322 498.339 240.159C501.182 240.064 503.521 242.419 503.521 245.353Z" fill="#A4E4EA"/>
<g opacity="0.3">
<path opacity="0.3" d="M572.83 275.406L554.768 275.525L541.417 237.544C547.247 237.644 553.727 237.937 560.28 238.581L572.83 275.406Z" fill="white"/>
</g>
<g opacity="0.3">
<path opacity="0.3" d="M547.913 275.571L541.129 275.615L528.472 237.602C530.274 237.558 532.27 237.523 534.421 237.509L547.913 275.571Z" fill="white"/>
</g>
<g opacity="0.3">
<path opacity="0.3" d="M465.276 245.678C470.194 243.572 474.484 242.073 477.397 241.659C478.892 241.445 480.495 241.261 482.137 241.101L493.637 274.843L475.766 275.511L465.276 245.678Z" fill="white"/>
</g>
<g opacity="0.3">
<path opacity="0.3" d="M468.986 275.764L462.25 276.017L453.923 251.009C455.725 250.103 457.516 249.226 459.265 248.394L468.986 275.764Z" fill="white"/>
</g>
<path d="M567.124 328.313L427.776 331.21L427.799 332.312L567.147 329.415L567.124 328.313Z" fill="#1D1D1B"/>
<path d="M414.977 351.033L414.974 352.135L578.884 352.564L578.887 351.462L414.977 351.033Z" fill="#1D1D1B"/>
<path d="M307.247 332.497C307.786 317.327 308.801 306.245 308.81 306.136C310.173 296.836 320.949 289.043 335.013 287.237C348.95 285.449 370.533 277.473 379.171 274.12C387.241 270.993 422.547 254.127 422.902 253.964L422.437 252.971C422.082 253.141 386.813 269.982 378.783 273.093C370.189 276.427 348.69 284.371 334.883 286.144C327.915 287.039 321.39 289.453 316.533 292.938C311.488 296.56 308.443 301.074 307.723 306.003C307.709 306.143 306.692 317.255 306.153 332.457L307.247 332.497Z" fill="#1D1D1B"/>
<path d="M601.723 274.906L527.595 275.152L527.598 276.254L601.727 276.008L601.723 274.906Z" fill="#1D1D1B"/>
<path d="M495.679 274.967L435.855 276.818L435.889 277.919L495.713 276.069L495.679 274.967Z" fill="#1D1D1B"/>
<path d="M429.964 305.72L429.206 306.519L439.315 316.121L440.073 315.322L429.964 305.72Z" fill="#1D1D1B"/>
<path d="M423.116 304.659L422.358 305.458L432.468 315.06L433.225 314.261L423.116 304.659Z" fill="#1D1D1B"/>
<path d="M648.547 309.508L647.789 310.308L657.899 319.91L658.657 319.11L648.547 309.508Z" fill="#1D1D1B"/>
<path d="M641.703 308.459L640.945 309.259L651.054 318.861L651.812 318.061L641.703 308.459Z" fill="#1D1D1B"/>
<path d="M671.762 323.897L649.741 324.76L649.784 325.861L671.805 324.999L671.762 323.897Z" fill="#1D1D1B"/>
<path d="M669.483 302.504C670.634 302.514 671.784 302.419 672.918 302.221L672.686 301.142C672.191 301.246 660.507 303.56 655.929 293.47L654.926 293.935C658.278 301.298 665.271 302.504 669.483 302.504Z" fill="#1D1D1B"/>
<path d="M663.971 270.452L664.266 269.392C664.189 269.371 656.477 267.199 649.135 263.849C647.769 263.226 646.383 262.613 645.042 262.02C639.078 259.381 632.911 256.652 626.895 252.316L626.251 253.209C632.36 257.612 638.58 260.364 644.601 263.026C645.939 263.619 647.323 264.231 648.685 264.851C656.101 268.239 663.892 270.431 663.971 270.452Z" fill="#1D1D1B"/>
<path d="M312.821 351.144C313.169 351.144 313.515 351.122 313.86 351.077L313.72 349.984C308.784 350.612 306.169 345.834 305.695 344.87C305.038 343.53 304.636 335.368 306.143 333.506C307.428 332.267 325.871 331.795 342.564 331.981V330.879C342.476 330.879 333.668 330.783 324.767 330.948C306.513 331.286 305.646 332.343 305.277 332.808C303.319 335.224 303.974 343.877 304.696 345.362C305.198 346.369 307.809 351.144 312.821 351.144Z" fill="#1D1D1B"/>
<path d="M735.319 370.519H12.169V373H735.319V370.519Z" fill="#4A263E"/>
</svg>
