<svg width="604" height="386" viewBox="0 0 604 386" fill="none" xmlns="http://www.w3.org/2000/svg">
<g clip-path="url(#clip0_3_1269)">
<path d="M49.9442 385.303C49.9442 385.303 -23.36 314.213 23.276 230.569C69.9121 146.926 132.546 188.99 129.515 91.6342C126.484 -5.72128 273.564 -14.0819 320.379 14.1449C367.195 42.3718 366.915 76.3712 463.56 65.1242C560.206 53.8773 578.67 147.645 553.529 195.447C517.859 263.253 652.541 252.069 567.673 385.318L49.9442 385.303Z" fill="#E1ECFA"/>
<path opacity="0.3" d="M371.85 218.016C371.85 218.016 387.426 152.05 439.972 144.799C439.972 144.799 450.195 143.543 453.599 154.792C457.002 166.042 436.675 166.121 424.112 170.647C411.548 175.173 382.255 194.352 371.85 218.016Z" fill="#1383F1"/>
<path opacity="0.3" d="M370.657 205.672C370.657 205.672 365.194 151.03 403.528 131.639C403.528 131.639 411.031 127.984 416.605 135.707C422.179 143.429 406.629 148.843 398.187 155.617C389.746 162.391 372.386 184.801 370.657 205.672Z" fill="#1383F1"/>
<path d="M603.303 384.341H0.697069C0.312089 384.341 0 384.653 0 385.038V385.303C0 385.688 0.312089 386 0.697069 386H603.303C603.688 386 604 385.688 604 385.303V385.038C604 384.653 603.688 384.341 603.303 384.341Z" fill="#2E3552"/>
<path d="M87.1546 335.685C79.0416 317.214 108.468 301.345 108.468 301.345C108.468 301.345 147.242 313.885 152.81 310.447C158.377 307.008 121.754 293.255 121.754 293.255C130.79 284.421 165.439 276.324 165.439 276.324C165.439 276.324 188.813 308.553 193.361 303.849C197.909 299.146 171.213 276.361 171.213 276.361C182.989 271.572 200.751 275.504 200.751 275.504C226.331 284.603 213.315 316.953 213.315 316.953C213.315 316.953 221.656 327.948 238.225 334.923C238.225 334.923 241.557 335.992 246.196 338.634L243.611 340.714C242.841 340.192 242.07 339.71 241.293 339.275H241.279L241.244 339.256C240.745 339 240.034 338.636 239.146 338.201C237.111 337.292 235.649 336.57 234.654 336.027C228.375 333.08 219.873 329.504 216.53 330.01C216.468 329.451 216.333 328.903 216.129 328.379L216.53 330.01C219.742 343.055 198.886 362.439 184.521 369.833C170.155 377.227 172.729 369.43 174.822 358.446C176.916 347.463 192.023 337.756 194.349 332.237C196.676 326.718 188.871 329.339 181.177 336.586C173.484 343.833 175.979 355.353 163.72 367.303C151.462 379.254 121.229 362.439 121.229 362.439C132.688 357.904 145.053 339.61 143.144 335.953C141.235 332.295 117.143 352.192 112.585 354.298C108.027 356.404 95.2654 354.165 87.1546 335.685Z" fill="#A3CDF7"/>
<path d="M457.629 357.901C469.466 343.947 448.003 322.546 448.003 322.546C448.003 322.546 411.059 323.415 407.112 318.987C403.165 314.558 438.557 312.08 438.557 312.08C432.992 302.063 404.986 286.066 404.986 286.066C404.986 286.066 376.324 308.028 373.589 302.766C370.855 297.504 399.959 284.612 399.959 284.612C390.967 277.405 374.513 276.226 374.513 276.226C349.926 277.519 352.857 308.998 352.857 308.998C352.857 308.998 342.76 316.394 326.555 318.171C326.555 318.171 323.384 318.236 318.668 319.336L320.377 321.815C321.179 321.558 321.974 321.341 322.764 321.162C322.766 321.161 322.769 321.161 322.771 321.161C322.773 321.161 322.776 321.161 322.778 321.162H322.813C323.312 321.069 324.025 320.929 324.911 320.785C326.916 320.522 328.364 320.279 329.378 320.058C335.596 319.126 343.914 318.213 346.686 319.518C346.885 319.048 347.144 318.607 347.458 318.204C347.224 318.623 346.956 319.059 346.686 319.518C340.517 330.017 353.619 352.262 364.187 362.404C374.755 372.547 374.541 365.102 375.566 355.017C376.592 344.933 365.978 332.586 365.385 327.189C364.793 321.791 370.883 326.085 375.704 334.378C380.525 342.671 375.361 352.031 382.931 365.593C390.501 379.156 421.116 372.349 421.116 372.349C412.334 365.442 406.324 346.356 408.937 343.663C411.551 340.97 427.327 364.501 430.742 367.508C434.158 370.516 445.796 371.853 457.629 357.901Z" fill="#A3CDF7"/>
<path opacity="0.5" d="M163.212 87.6228C175.41 67.1719 210.844 84.5408 210.844 84.5408C210.844 84.5408 225.372 130.365 232.495 133.354C239.617 136.343 227.732 91.7507 227.732 91.7507C242.422 94.3691 273.964 122.083 273.964 122.083C273.964 122.083 259 166.619 266.639 167.763C274.279 168.907 277.876 127.658 277.876 127.658C290.557 135.681 298.954 155.431 298.954 155.431C307.741 186.227 267.714 195.911 267.714 195.911C267.714 195.911 262.863 211.456 267.514 232.147C267.514 232.147 268.77 236.079 269.411 242.343L265.639 241.288C265.614 240.19 265.548 239.119 265.434 238.075C265.436 238.072 265.437 238.068 265.437 238.065C265.437 238.061 265.436 238.057 265.434 238.054C265.434 238.04 265.434 238.024 265.434 238.01C265.339 237.355 265.201 236.421 265.019 235.282C264.499 232.703 264.187 230.821 264.031 229.479C262.56 221.433 260.168 210.817 257.389 207.954C257.884 207.512 258.319 207.007 258.683 206.452L257.389 207.954C247.056 219.979 214.112 213.249 197.152 204.528C180.191 195.806 189.458 192.929 201.451 187.408C213.443 181.887 233.138 189.738 240.041 188.186C246.944 186.635 239.081 180.965 226.825 178.526C214.569 176.087 205.216 186.402 185.327 182.824C165.439 179.245 160.871 138.695 160.871 138.695C173.088 146.588 199.147 145.917 201.362 141.57C203.577 137.223 167.919 127.742 162.771 124.797C157.624 121.853 151.015 108.076 163.212 87.6228Z" fill="#A3CDF7"/>
<path d="M299.406 125.056C299.39 123.8 299.628 122.553 300.106 121.391C300.562 120.291 301.244 119.298 302.108 118.477C303.005 117.634 304.063 116.981 305.218 116.555C306.53 116.074 307.918 115.837 309.315 115.856C310.721 115.839 312.119 116.076 313.441 116.555C314.608 116.976 315.676 117.63 316.581 118.477C317.445 119.299 318.127 120.291 318.584 121.391C319.061 122.554 319.298 123.8 319.283 125.056C319.3 126.302 319.062 127.539 318.584 128.69C318.12 129.778 317.439 130.759 316.581 131.574C315.676 132.42 314.607 133.074 313.441 133.496C312.119 133.974 310.721 134.21 309.315 134.195C307.918 134.213 306.53 133.976 305.218 133.496C304.063 133.069 303.006 132.416 302.108 131.574C301.25 130.76 300.568 129.778 300.106 128.69C299.627 127.539 299.388 126.302 299.406 125.056ZM316.714 107.959H301.941L299.842 57.4902H318.812L316.714 107.959Z" fill="#FE0000"/>
<path d="M254.773 75.7095C254.764 74.7509 254.948 73.8003 255.314 72.9141C255.665 72.07 256.188 71.3084 256.85 70.6777C257.539 70.0317 258.351 69.5303 259.237 69.2031C260.244 68.8358 261.309 68.6558 262.38 68.672C263.46 68.6573 264.533 68.8372 265.548 69.2031C266.444 69.5262 267.264 70.0279 267.959 70.6777C268.621 71.3084 269.144 72.07 269.495 72.9141C269.863 73.8055 270.048 74.7617 270.039 75.7258C270.05 76.6849 269.865 77.6362 269.495 78.5212C269.14 79.3563 268.617 80.1096 267.959 80.7343C267.264 81.3846 266.444 81.8864 265.548 82.2089C264.533 82.5748 263.46 82.7547 262.38 82.74C261.309 82.7562 260.244 82.5762 259.237 82.2089C258.351 81.8826 257.539 81.3811 256.85 80.7343C256.19 80.1048 255.667 79.3458 255.314 78.5049C254.943 77.6201 254.759 76.6685 254.773 75.7095ZM268.062 62.5896H256.713L255.106 23.8542H269.666L268.062 62.5896Z" fill="#1383F1"/>
<path d="M475.17 141.169C475.161 140.205 475.346 139.249 475.714 138.357C476.065 137.514 476.589 136.752 477.25 136.121C477.939 135.474 478.75 134.973 479.637 134.647C480.644 134.279 481.71 134.099 482.782 134.115C483.861 134.1 484.933 134.28 485.948 134.647C486.844 134.968 487.665 135.47 488.359 136.121C489.021 136.752 489.544 137.513 489.895 138.357C490.265 139.248 490.45 140.205 490.441 141.169C490.453 142.129 490.267 143.08 489.895 143.965C489.54 144.8 489.017 145.553 488.359 146.178C487.664 146.828 486.844 147.33 485.948 147.652C484.933 148.017 483.861 148.197 482.782 148.183C481.71 148.198 480.645 148.018 479.637 147.652C478.751 147.325 477.939 146.824 477.25 146.178C476.592 145.552 476.069 144.799 475.714 143.965C475.344 143.08 475.159 142.128 475.17 141.169ZM488.459 128.049H477.115L475.506 89.314H490.065L488.459 128.049Z" fill="#1383F1"/>
<path d="M450.213 239.743C447.844 244.156 445.046 248.325 441.86 252.19C438.69 255.973 435.444 258.847 432.705 259.821H432.684C432.54 259.87 432.4 259.917 432.257 259.954C432.251 259.956 432.243 259.956 432.237 259.954C431.721 260.108 431.184 260.177 430.647 260.159C421.657 259.754 412.182 240.486 412.182 240.486C412.182 240.486 412.43 238.203 414.178 236.589C415.703 235.191 416.875 234.814 416.875 234.814C416.875 234.814 426.557 244.749 428.924 245.464C430.411 245.912 432.367 238.974 435.169 230.262C437.972 221.549 447.819 219.402 447.819 219.402C447.819 219.402 457.783 225.731 450.213 239.743Z" fill="#1383F1"/>
<path d="M441.863 252.19C438.692 255.973 435.447 258.848 432.708 259.821H432.687L432.26 259.954H432.237C432.337 259.889 435.267 258.37 435.734 255.549C436.2 252.67 433.153 250.312 440.821 245.856C445.283 243.272 441.863 252.19 441.863 252.19Z" fill="#94B0ED"/>
<path d="M434.845 384.341H455.914C457.422 383.319 455.506 373.318 455.506 373.318C455.506 373.318 449.757 371.137 448.763 375.571C447.77 380.004 441.438 381.411 438.091 381.951C435.799 382.324 435.074 383.582 434.845 384.341Z" fill="#24406D"/>
<path d="M466.973 280.682C466.973 280.682 466.309 292.963 465.477 307.195C464.88 317.398 464.199 328.605 463.612 336.998C463.535 338.112 463.458 339.177 463.379 340.183C463.358 340.495 463.334 340.805 463.311 341.115C461.803 359.935 456.758 376.423 456.758 376.423C450.836 377.67 448.16 375.389 448.16 375.389C448.16 375.389 444.077 327.592 442.564 308.315C441.452 294.126 440.503 273.465 440.503 273.465L466.973 280.682Z" fill="#FF9E55"/>
<path d="M465.477 307.195C464.88 317.398 464.199 328.605 463.612 336.999C459.739 327.871 451.827 292.295 451.827 292.295L465.477 307.195Z" fill="#ED7D2B"/>
<path d="M466.09 384.341H487.16C488.669 383.319 486.752 373.318 486.752 373.318C486.752 373.318 481.001 371.137 480.008 375.571C479.015 380.004 472.685 381.411 469.335 381.951C467.043 382.324 466.321 383.582 466.09 384.341Z" fill="#24406D"/>
<path d="M446.236 278.241C446.236 278.241 461.28 315.662 466.09 329.847C469.517 339.95 479.178 375.396 479.178 375.396C479.178 375.396 483.374 376.675 486.911 374.206C486.911 374.206 490.506 337.991 483.246 327.78C479.392 322.362 482.288 271.462 466.668 271.026C451.048 270.591 446.236 278.241 446.236 278.241Z" fill="#FF9E55"/>
<path d="M477.042 266.204C476.98 271.525 476.921 275.431 476.935 276.419C476.977 279.638 474.916 280.365 472.792 280.857C472.792 280.857 470.832 281.278 468.363 281.698C465.938 282.103 463.001 282.504 460.947 282.49C454.357 282.387 447.818 281.312 441.543 279.298C439.555 279.298 438.65 276.228 438.324 271.937C438.102 269.034 439 240.081 439.112 232.852C439.189 227.667 442.037 222.875 442.842 222.174C450.218 215.651 471.983 216.478 475.902 220.974C476.872 222.085 477.154 232.803 477.187 244.546C477.194 252.106 477.117 260.087 477.042 266.204Z" fill="#1383F1"/>
<path d="M463.968 218.393C461.189 221.403 451.845 220.955 452.132 218.33C452.169 218.006 452.23 216.084 452.263 215.786C452.286 215.553 452.309 215.32 452.328 215.087C452.391 214.44 452.442 213.867 452.484 213.373C452.61 211.933 452.65 211.153 452.65 211.153C452.916 211.076 458.919 209.373 461.903 208.667C462.905 208.434 463.57 208.306 463.558 208.395C462.656 215.099 464.885 217.405 463.968 218.393Z" fill="#FFB27D"/>
<path d="M462.234 210.65C462.234 210.65 459.728 213.193 452.489 213.378C452.615 211.938 452.654 211.157 452.654 211.157C452.92 211.081 458.923 209.378 461.907 208.672C462.444 208.889 461.747 210.289 462.234 210.65Z" fill="#ED975D"/>
<path d="M450.82 210.801C452.175 211.255 453.571 211.58 454.988 211.77C458.403 212.236 462.898 211.961 464.313 207.829C466.691 200.877 469.727 196.707 462.73 193.87C458.986 192.349 456.59 192.27 454.962 192.85C453.55 193.348 452.715 194.35 452.086 195.338C450.722 197.467 447.989 209.583 450.82 210.801Z" fill="#FFB27D"/>
<path d="M452.608 189.959C450.109 191.589 450.924 195.44 453.869 195.96C455.634 196.269 457.114 196.33 457.97 196.712C459.709 197.483 461.206 198.303 460.793 200.998C460.655 201.916 460.208 203.034 462.57 202.48C462.851 202.385 463.159 202.403 463.427 202.531C464.407 203.111 463.155 205.928 462.777 206.538C462.777 206.538 462.234 208.555 463.441 209.536C463.586 209.655 465.957 210.701 471.669 201.956C472.566 200.586 473.422 197.497 472.037 194.522C470.652 191.547 466.789 187.788 459.513 187.788C457.618 187.788 454.771 188.538 452.608 189.959Z" fill="#233862"/>
<path d="M477.042 266.204C475.979 271.14 476.25 271.192 474.62 269.896C467.976 264.62 469.918 261.855 471.394 257.282C472.869 252.709 467.689 245.558 471.394 242.508C475.019 239.529 477.082 244.332 477.173 244.547C477.194 252.106 477.117 260.087 477.042 266.204Z" fill="#0A67C2"/>
<path d="M476.879 265.566C476.879 265.566 474.375 269.659 472.734 269.526C471.093 269.393 468.876 268.769 467.605 269.992C466.335 271.215 464.264 274.358 464.84 275.196C465.416 276.035 467.733 275.292 469.396 274.374C471.058 273.456 473.683 274.826 475.079 273.782C476.476 272.739 479.821 268.594 479.821 268.594L476.879 265.566Z" fill="#FFB27D"/>
<path d="M475.888 220.974C475.888 220.974 496.672 240.514 493.975 253.515C492.744 259.439 488.928 264.436 478.758 272.527C478.758 272.527 473.946 269.205 472.89 266.507C472.89 266.507 482.122 253.515 481.766 251.302C481.327 248.595 475.026 241.805 472.767 240.749C470.508 239.694 470.713 223.241 475.888 220.974Z" fill="#1383F1"/>
<path d="M472.734 269.526C472.734 269.526 470.543 268.569 469.839 268.159C469.135 267.749 469.291 268.413 469.508 268.743C469.724 269.074 470.31 269.82 471.17 269.908C471.718 269.94 472.263 269.807 472.734 269.526Z" fill="#FFB27D"/>
<path d="M107.274 227.052C106.523 225.603 123.668 220.389 123.941 234.681C123.941 234.681 156.057 233.891 140.726 216.003C135.418 209.811 135.963 204.691 136.124 199.929C136.285 195.168 132.816 181.309 120.929 182.705C120.929 182.705 117.816 181.437 113.935 183.452C105.09 188.028 85.2965 232.321 107.274 227.052Z" fill="#163560"/>
<path d="M159.783 240.174C159.783 240.174 161.881 236.994 163.559 236.931C165.238 236.868 168.364 236 168.115 236.619C167.865 237.239 165.93 237.318 165.744 237.679C165.557 238.04 168.614 238.611 169.488 238.679C170.362 238.746 172.421 238.679 172.358 239.114C172.295 239.55 168.646 241.36 166.063 241.111C163.48 240.861 160.305 241.858 160.305 241.858L159.783 240.174Z" fill="#FFB27D"/>
<path d="M129.548 241.199C130.463 242.905 131.533 244.522 132.746 246.031C135.231 249.141 139.062 252.73 143.871 253.441C146.168 253.779 148.415 253.285 150.478 252.369C156.307 249.779 160.711 243.82 160.711 243.82C161.741 241.013 160.055 239.112 160.055 239.112C160.055 239.112 148.261 241.763 147.138 241.208C146.014 240.654 139.108 225.337 137.863 222.787C135.22 217.368 131.023 215.812 131.023 215.812L129.548 241.199Z" fill="#1383F1"/>
<path d="M132.746 246.03C135.231 249.14 139.062 252.73 143.871 253.441C146.168 253.778 148.415 253.285 150.478 252.369C150.245 252.397 144.417 253.119 142.086 248.961C139.712 244.721 137.148 237.987 133.625 240.232C132.112 241.201 132.18 243.608 132.746 246.03Z" fill="#0A67C2"/>
<path d="M85.546 368.414C85.546 368.414 81.9464 371.697 82.6482 374.029C83.3499 376.36 86.5974 377.917 87.0381 380.766C87.4787 383.615 89.2319 385.171 90.8125 385.171H98.345C98.345 385.171 99.5107 383.165 96.6991 382.559C93.8875 381.954 92.8314 378.599 93.0063 375.498C93.1811 372.398 92.7428 368.242 92.7428 368.242L86.7746 366.861L85.546 368.414Z" fill="#1D3356"/>
<path d="M116.007 369.81C116.007 369.81 114.711 383.712 116.292 384.486L136.514 384.446C136.514 384.446 136.514 382.117 133.264 381.595C130.014 381.073 124.311 379.177 123.346 374.944C122.381 370.711 116.007 369.81 116.007 369.81Z" fill="#1D3356"/>
<path d="M100.453 231.82C100.271 234.931 100.271 238.049 100.453 241.159C100.653 244.537 104.071 249.059 104.556 250.177C105.773 252.972 107.144 253.438 107.144 253.438L117.765 256.04L121.495 256.954L133.266 253.452C133.266 253.452 138.628 238.497 136.476 230.08C134.325 221.664 131.033 215.814 131.033 215.814C131.033 215.814 123.053 212.669 108.92 215.017L100.453 231.82Z" fill="#1383F1"/>
<path d="M103.56 242.539C103.761 245.914 104.071 249.061 104.556 250.177C105.773 252.972 107.144 253.438 107.144 253.438L117.765 256.04L122.376 254.687C122.376 254.687 106.99 252.357 108.689 239.121L103.56 242.539Z" fill="#F2CCAA"/>
<path d="M132.518 255.71C132.518 255.71 138.346 273.843 138.721 280.016C139.097 286.189 127.578 367.713 127.114 370.558C126.678 373.239 123.346 374.946 123.346 374.946C123.346 374.946 121.812 375.85 119.616 375.233C116.585 374.378 115.623 373.353 115.623 373.353C115.623 373.353 111.086 315.21 113.893 294.44C115.603 281.597 116.552 268.665 116.735 255.71H132.518Z" fill="#233862"/>
<path d="M107.817 255.169C107.817 255.169 98.9256 267.092 98.0956 275.152C97.2657 283.212 96.7947 311.52 95.0299 319.378C93.2651 327.235 86.7747 342.354 86.7747 366.861C86.7747 366.861 87.4484 368.258 89.5303 369.013C90.3254 369.282 91.1348 369.506 91.9549 369.684C92.7896 369.874 93.6642 369.779 94.4378 369.412C95.2113 369.045 95.8387 368.429 96.2189 367.662C100.606 358.835 114.583 330.366 115.299 324.459C115.807 320.265 120.218 292.598 129.844 276.359C132.154 272.459 128.426 256.954 128.426 256.954L107.817 255.169Z" fill="#2B478B"/>
<path d="M133.448 252.912C133.448 252.912 131.117 254.762 126.454 254.855C120.901 254.966 107.141 253.441 107.141 253.441C106.761 254.572 106.563 255.756 106.554 256.949C106.554 256.949 123.36 261.186 133.098 257.569C133.103 257.569 134.359 255.206 133.448 252.912Z" fill="#233862"/>
<path d="M125.258 256.77C125.258 255.19 126.393 253.904 127.792 253.904C129.191 253.904 130.326 255.19 130.326 256.77C130.326 258.349 129.189 259.637 127.79 259.637C126.391 259.637 125.258 258.344 125.258 256.77ZM126.097 256.77C126.097 257.888 126.857 258.796 127.792 258.796C128.727 258.796 129.487 257.888 129.487 256.77C129.487 255.651 128.727 254.743 127.792 254.743C126.857 254.743 126.097 255.654 126.097 256.77Z" fill="white"/>
<path d="M90.8381 257.746L104.486 269.626C104.96 270.038 105.578 270.245 106.204 270.201C106.831 270.157 107.414 269.867 107.827 269.393L125.239 249.411C125.444 249.176 125.6 248.904 125.698 248.609C125.797 248.314 125.837 248.003 125.815 247.693C125.794 247.383 125.711 247.08 125.572 246.802C125.433 246.524 125.241 246.276 125.006 246.072L111.359 234.192C111.124 233.988 110.852 233.832 110.557 233.733C110.262 233.634 109.951 233.595 109.641 233.616C109.331 233.638 109.028 233.721 108.75 233.859C108.472 233.998 108.224 234.19 108.02 234.425L90.605 254.407C90.1931 254.881 89.9862 255.499 90.0299 256.125C90.0736 256.751 90.3644 257.334 90.8381 257.746Z" fill="#FE0000"/>
<path d="M111.028 256.248C111.223 256.299 118.278 257.128 118.28 258.577C118.28 260.262 116.212 262.519 114.261 262.412C113.473 262.37 109.832 259.025 109.832 259.025L111.028 256.248Z" fill="#FFB27D"/>
<path d="M114.653 214.235C115.455 212.29 115.923 209.326 115.909 205.66L116.443 205.765L125.405 207.537C125.405 207.537 125.202 210.356 125.195 213.012V213.077C125.195 215.383 126.755 217.696 123.053 218.612C121.908 218.894 112.965 218.321 114.653 214.235Z" fill="#FFB27D"/>
<path d="M125.405 207.537C125.405 207.537 125.202 210.356 125.195 213.012C120.18 212.87 117.53 208.299 116.443 205.765L125.405 207.537Z" fill="#E8945B"/>
<path d="M127.09 210.051C127.09 210.051 115.224 210.247 115.215 202.862C115.205 195.477 113.671 190.515 121.246 190.089C128.82 189.663 130.296 192.47 130.9 194.935C131.504 197.399 130.165 209.811 127.09 210.051Z" fill="#FFB27D"/>
<path d="M126.64 189.91C126.64 189.91 123.393 198.573 118.406 199.855C113.419 201.136 111.258 199.801 111.258 199.801C111.258 199.801 115.082 196.773 115.877 191.466C115.877 191.466 124.19 185.784 126.64 189.91Z" fill="#163560"/>
<path d="M125.836 190.613C125.836 190.613 128.244 191.513 129.238 193.269C130.434 195.319 130.992 197.679 130.842 200.048C130.842 200.048 133.289 194.159 130.538 190.828C127.62 187.294 125.836 190.613 125.836 190.613Z" fill="#163560"/>
<path d="M111.028 256.248C111.028 256.248 112.72 255.705 113.851 255.863C114.981 256.022 115.816 255.84 115.816 256.157C115.816 256.474 114.357 256.623 114.047 256.772C113.737 256.921 111.028 256.248 111.028 256.248Z" fill="#FFB27D"/>
<path d="M108.92 215.015C108.92 215.015 100.497 215.607 97.2633 223.448C94.0297 231.289 87.924 244.451 87.924 246.666C87.924 248.882 91.3464 255.71 109.724 259.637C109.724 259.637 111.624 257.638 111.51 256.059C111.51 256.059 100.038 246.212 100.068 245.061C100.126 242.886 101.949 240.011 112.021 229.943C114.748 227.206 108.92 215.015 108.92 215.015Z" fill="#1383F1"/>
<path d="M344.317 148.177H253.293C251.092 148.177 248.981 149.05 247.425 150.604L183.061 214.917C182.29 215.688 181.679 216.602 181.261 217.609C180.844 218.615 180.629 219.694 180.63 220.783V311.735C180.63 313.935 181.504 316.045 183.061 317.601L247.425 381.912C248.195 382.682 249.11 383.293 250.117 383.71C251.124 384.127 252.203 384.341 253.293 384.341H344.317C345.407 384.342 346.486 384.127 347.493 383.71C348.5 383.293 349.415 382.682 350.185 381.912L414.544 317.601C416.101 316.045 416.976 313.935 416.976 311.735V220.783C416.976 219.694 416.761 218.615 416.344 217.609C415.927 216.602 415.315 215.688 414.544 214.917L350.185 150.604C348.629 149.049 346.518 148.176 344.317 148.177Z" fill="#FE0000"/>
<path d="M337.913 372.519H259.697C258.129 372.523 256.577 372.216 255.129 371.616C253.681 371.016 252.367 370.135 251.262 369.025L195.956 313.764C194.844 312.66 193.963 311.346 193.362 309.9C192.762 308.453 192.455 306.902 192.459 305.336V227.18C192.455 225.614 192.763 224.063 193.363 222.616C193.963 221.169 194.844 219.856 195.956 218.752L251.262 163.488C252.367 162.378 253.681 161.497 255.129 160.897C256.577 160.298 258.129 159.991 259.697 159.994H337.913C339.48 159.99 341.033 160.297 342.481 160.897C343.929 161.497 345.243 162.378 346.348 163.488L401.654 218.754C402.766 219.858 403.648 221.17 404.248 222.617C404.848 224.063 405.155 225.614 405.151 227.18V305.336C405.155 306.902 404.848 308.453 404.248 309.9C403.648 311.347 402.766 312.66 401.654 313.764L346.348 369.027C345.243 370.138 343.929 371.019 342.481 371.618C341.033 372.217 339.48 372.524 337.913 372.519ZM259.697 168.101C259.195 168.1 258.698 168.198 258.235 168.39C257.772 168.582 257.351 168.864 256.997 169.219L201.693 224.485C201.338 224.838 201.056 225.258 200.863 225.72C200.671 226.183 200.573 226.679 200.574 227.18V305.336C200.573 305.837 200.671 306.333 200.863 306.796C201.055 307.259 201.337 307.68 201.693 308.033L256.999 363.299C257.353 363.654 257.774 363.935 258.237 364.127C258.701 364.318 259.198 364.416 259.699 364.415H337.915C338.417 364.416 338.914 364.318 339.377 364.127C339.84 363.935 340.261 363.654 340.615 363.299L395.921 308.033C396.278 307.68 396.56 307.26 396.752 306.797C396.944 306.334 397.042 305.837 397.04 305.336V227.18C397.042 226.679 396.944 226.183 396.752 225.72C396.56 225.257 396.277 224.837 395.921 224.485L340.613 169.219C340.259 168.864 339.838 168.582 339.375 168.39C338.911 168.198 338.415 168.1 337.913 168.101H259.697Z" fill="#FFE5D4"/>
<path d="M361.889 269.233L360.296 267.854C358.363 266.191 355.849 265.36 353.305 265.543C350.76 265.726 348.392 266.908 346.716 268.83L337.715 279.217C337.432 279.546 337.054 279.781 336.633 279.888C336.212 279.996 335.768 279.972 335.361 279.82C334.954 279.667 334.604 279.394 334.358 279.036C334.112 278.678 333.982 278.253 333.985 277.819C333.984 277.005 333.94 276.192 333.854 275.383V210C333.848 207.931 333.023 205.948 331.559 204.485C330.094 203.022 328.11 202.197 326.04 202.191H325.461C323.391 202.197 321.406 203.021 319.942 204.484C318.477 205.948 317.652 207.93 317.647 210V252.558C317.647 253.052 317.45 253.526 317.101 253.876C316.751 254.225 316.276 254.421 315.782 254.421C315.234 254.421 314.708 254.204 314.321 253.817C313.934 253.43 313.716 252.905 313.716 252.358V201.753C313.71 199.753 312.912 197.837 311.497 196.423C310.082 195.009 308.164 194.212 306.163 194.206H305.065C303.063 194.212 301.145 195.009 299.73 196.423C298.315 197.837 297.517 199.753 297.511 201.753V252.698C297.511 253.157 297.329 253.597 297.004 253.922C296.679 254.246 296.238 254.428 295.779 254.428C295.489 254.429 295.202 254.372 294.934 254.261C294.667 254.151 294.424 253.988 294.219 253.784C294.014 253.579 293.851 253.336 293.741 253.068C293.63 252.801 293.573 252.514 293.573 252.225V211.614C293.568 209.545 292.743 207.562 291.278 206.099C289.814 204.636 287.83 203.811 285.759 203.806H285.181C283.11 203.812 281.126 204.636 279.662 206.099C278.197 207.562 277.372 209.545 277.366 211.614V252.556C277.366 253.05 277.169 253.524 276.82 253.873C276.47 254.223 275.996 254.419 275.501 254.419C275.23 254.419 274.962 254.366 274.712 254.262C274.461 254.159 274.234 254.007 274.043 253.815C273.851 253.624 273.7 253.396 273.596 253.146C273.493 252.896 273.44 252.628 273.44 252.358V220.327C273.433 218.258 272.608 216.275 271.144 214.812C269.68 213.35 267.696 212.525 265.625 212.518H265.047C262.977 212.524 260.992 213.349 259.528 214.812C258.064 216.275 257.239 218.257 257.233 220.327V276.568C257.233 276.724 257.233 276.878 257.249 277.034C257.249 277.295 257.233 277.558 257.233 277.822V308.779C257.233 321.358 267.535 331.655 280.126 331.655H311.107C314.942 331.647 318.714 330.678 322.078 328.837C325.441 326.996 328.289 324.341 330.36 321.116C331.582 319.198 332.939 317.369 334.418 315.641L362.877 282.795C364.538 280.862 365.366 278.351 365.181 275.81C364.996 273.269 363.812 270.905 361.889 269.233Z" fill="#FFE5D4"/>
</g>
<defs>
<clipPath id="clip0_3_1269">
<rect width="604" height="386" fill="white"/>
</clipPath>
</defs>
</svg>
